<ttFont>
    <TTGlyph name=".notdef" xMin="68" yMin="0" xMax="612" yMax="1365">
      <contour>
        <pt x="68" y="0" on="1"/>
        <pt x="68" y="1365" on="1"/>
        <pt x="612" y="1365" on="1"/>
        <pt x="612" y="0" on="1"/>
      </contour>
      <contour>
        <pt x="136" y="68" on="1"/>
        <pt x="544" y="68" on="1"/>
        <pt x="544" y="1297" on="1"/>
        <pt x="136" y="1297" on="1"/>
      </contour>
    </TTGlyph>
    <TTGlyph name="A" xMin="57" yMin="1" xMax="618" yMax="1543">
      <contour>
        <pt x="482" y="447" on="1"/>
        <pt x="479" y="484" on="0"/>
        <pt x="462" y="668" on="1"/>
        <pt x="417" y="1138" on="0"/>
        <pt x="417" y="1249" on="0"/>
        <pt x="418" y="1254" on="1"/>
        <pt x="406" y="1240" on="0"/>
        <pt x="315" y="688" on="0"/>
        <pt x="303" y="640" on="0"/>
        <pt x="290" y="598" on="1"/>
        <pt x="263" y="511" on="0"/>
        <pt x="261" y="464" on="1"/>
        <pt x="346" y="441" on="0"/>
        <pt x="458" y="441" on="0"/>
      </contour>
      <contour>
        <pt x="490" y="1529" on="1"/>
        <pt x="530" y="1242" on="0"/>
        <pt x="618" y="322" on="0"/>
        <pt x="618" y="70" on="1"/>
        <pt x="618" y="1" on="0"/>
        <pt x="484" y="1" on="0"/>
        <pt x="484" y="54" on="1"/>
        <pt x="484" y="321" on="1"/>
        <pt x="455" y="341" on="0"/>
        <pt x="306" y="369" on="0"/>
        <pt x="248" y="373" on="1"/>
        <pt x="223" y="331" on="0"/>
        <pt x="196" y="72" on="0"/>
        <pt x="166" y="23" on="1"/>
        <pt x="67" y="23" on="0"/>
        <pt x="57" y="64" on="1"/>
        <pt x="103" y="131" on="0"/>
        <pt x="244" y="918" on="1"/>
        <pt x="299" y="1229" on="0"/>
        <pt x="310" y="1279" on="1"/>
        <pt x="365" y="1543" on="0"/>
        <pt x="429" y="1543" on="1"/>
        <pt x="467" y="1543" on="0"/>
        <pt x="490" y="1525" on="1"/>
      </contour>
    </TTGlyph>
    <TTGlyph name="AE" xMin="67" yMin="-43" xMax="864" yMax="1554">
      <contour>
        <pt x="571" y="82" on="1"/>
        <pt x="796" y="103" on="1"/>
        <pt x="821" y="103" on="0"/>
        <pt x="864" y="76" on="0"/>
        <pt x="864" y="53" on="1"/>
        <pt x="864" y="-12" on="0"/>
        <pt x="620" y="-12" on="1"/>
        <pt x="590" y="-12" on="1"/>
        <pt x="574" y="-12" on="0"/>
        <pt x="522" y="-41" on="0"/>
        <pt x="509" y="-43" on="1"/>
        <pt x="465" y="2" on="1"/>
        <pt x="465" y="3" on="1"/>
        <pt x="483" y="190" on="0"/>
        <pt x="483" y="253" on="1"/>
        <pt x="473" y="633" on="1"/>
        <pt x="459" y="632" on="0"/>
        <pt x="403" y="629" on="0"/>
        <pt x="386" y="628" on="1"/>
        <pt x="336" y="623" on="0"/>
        <pt x="303" y="611" on="1"/>
        <pt x="202" y="226" on="1"/>
        <pt x="200" y="217" on="0"/>
        <pt x="183" y="127" on="0"/>
        <pt x="167" y="61" on="0"/>
        <pt x="130" y="1" on="0"/>
        <pt x="91" y="1" on="0"/>
        <pt x="67" y="31" on="0"/>
        <pt x="67" y="116" on="0"/>
        <pt x="119" y="374" on="0"/>
        <pt x="216" y="722" on="0"/>
        <pt x="293" y="985" on="0"/>
        <pt x="405" y="1346" on="0"/>
        <pt x="416" y="1383" on="0"/>
        <pt x="427" y="1423" on="0"/>
        <pt x="431" y="1438" on="0"/>
        <pt x="444" y="1475" on="0"/>
        <pt x="454" y="1493" on="0"/>
        <pt x="472" y="1520" on="0"/>
        <pt x="481" y="1526" on="1"/>
        <pt x="505" y="1544" on="0"/>
        <pt x="528" y="1544" on="1"/>
        <pt x="684" y="1554" on="1"/>
        <pt x="771" y="1554" on="0"/>
        <pt x="771" y="1498" on="1"/>
        <pt x="771" y="1450" on="1"/>
        <pt x="647" y="1450" on="0"/>
        <pt x="558" y="1440" on="1"/>
        <pt x="572" y="1166" on="1"/>
        <pt x="572" y="1091" on="0"/>
        <pt x="566" y="791" on="0"/>
        <pt x="566" y="716" on="1"/>
        <pt x="584" y="718" on="0"/>
        <pt x="684" y="735" on="0"/>
        <pt x="712" y="735" on="1"/>
        <pt x="764" y="687" on="1"/>
        <pt x="764" y="621" on="0"/>
        <pt x="642" y="621" on="1"/>
        <pt x="565" y="621" on="1"/>
      </contour>
      <contour>
        <pt x="470" y="706" on="1"/>
        <pt x="477" y="965" on="0"/>
        <pt x="477" y="1240" on="0"/>
        <pt x="475" y="1283" on="1"/>
        <pt x="369" y="917" on="0"/>
        <pt x="323" y="688" on="1"/>
        <pt x="416" y="694" on="0"/>
      </contour>
    </TTGlyph>
    <TTGlyph name="Aacute" xMin="57" yMin="1" xMax="702" yMax="1975">
      <component glyphName="acute" x="266" y="402" flags="0x1004"/>
      <component glyphName="A" x="0" y="0" flags="0x1204"/>
    </TTGlyph>
    <TTGlyph name="Abreve" xMin="57" yMin="1" xMax="618" yMax="1962">
      <component glyphName="breve" x="174" y="820" flags="0x1004"/>
      <component glyphName="A" x="0" y="0" flags="0x1204"/>
    </TTGlyph>
    <TTGlyph name="Acircumflex" xMin="57" yMin="1" xMax="618" yMax="2119">
      <component glyphName="circumflex" x="174" y="760" flags="0x1004"/>
      <component glyphName="A" x="0" y="0" flags="0x1204"/>
    </TTGlyph>
    <TTGlyph name="Adieresis" xMin="57" yMin="1" xMax="702" yMax="1831">
      <component glyphName="dieresis" x="44" y="733" flags="0x1004"/>
      <component glyphName="A" x="0" y="0" flags="0x1204"/>
    </TTGlyph>
    <TTGlyph name="Agrave" xMin="57" yMin="1" xMax="618" yMax="1888">
      <component glyphName="grave" x="0" y="162" flags="0x1004"/>
      <component glyphName="A" x="0" y="0" flags="0x1204"/>
    </TTGlyph>
    <TTGlyph name="Amacron" xMin="57" yMin="1" xMax="676" yMax="1791">
      <component glyphName="macron" x="128" y="987" flags="0x1004"/>
      <component glyphName="A" x="0" y="0" flags="0x1204"/>
    </TTGlyph>
    <TTGlyph name="Aogonek" xMin="56" yMin="-372" xMax="655" yMax="1543">
      <component glyphName="ogonek" x="327" y="-6" flags="0x1004"/>
      <component glyphName="A" x="-1" y="0" flags="0x1004"/>
    </TTGlyph>
    <TTGlyph name="Aring" xMin="57" yMin="1" xMax="618" yMax="1806">
      <component glyphName="ring" x="220" y="515" flags="0x1004"/>
      <component glyphName="A" x="0" y="0" flags="0x1204"/>
    </TTGlyph>
    <TTGlyph name="Atilde" xMin="57" yMin="1" xMax="661" yMax="1915">
      <component glyphName="tilde" x="87" y="691" flags="0x1004"/>
      <component glyphName="A" x="0" y="0" flags="0x1204"/>
    </TTGlyph>
    <TTGlyph name="B" xMin="104" yMin="-17" xMax="547" yMax="1537">
      <contour>
        <pt x="104" y="1403" on="1"/>
        <pt x="104" y="1537" on="0"/>
        <pt x="181" y="1537" on="1"/>
        <pt x="275" y="1537" on="0"/>
        <pt x="344" y="1492" on="1"/>
        <pt x="484" y="1403" on="0"/>
        <pt x="484" y="1201" on="1"/>
        <pt x="484" y="1045" on="0"/>
        <pt x="359" y="869" on="1"/>
        <pt x="446" y="746" on="0"/>
        <pt x="483" y="702" on="0"/>
        <pt x="511" y="655" on="0"/>
        <pt x="515" y="644" on="0"/>
        <pt x="525" y="592" on="0"/>
        <pt x="526" y="573" on="1"/>
        <pt x="527" y="524" on="0"/>
        <pt x="544" y="390" on="0"/>
        <pt x="547" y="382" on="1"/>
        <pt x="550" y="374" on="0"/>
        <pt x="529" y="287" on="0"/>
        <pt x="521" y="258" on="0"/>
        <pt x="507" y="207" on="0"/>
        <pt x="497" y="182" on="0"/>
        <pt x="479" y="141" on="0"/>
        <pt x="461" y="120" on="0"/>
        <pt x="435" y="87" on="0"/>
        <pt x="405" y="66" on="0"/>
        <pt x="386" y="52" on="1"/>
        <pt x="323" y="8" on="0"/>
        <pt x="224" y="-17" on="0"/>
        <pt x="218" y="-17" on="1"/>
        <pt x="208" y="-17" on="1"/>
        <pt x="152" y="-17" on="0"/>
        <pt x="137" y="-9" on="1"/>
        <pt x="108" y="7" on="0"/>
        <pt x="108" y="34" on="1"/>
        <pt x="118" y="538" on="1"/>
        <pt x="104" y="1370" on="1"/>
      </contour>
      <contour>
        <pt x="292" y="785" on="1"/>
        <pt x="292" y="786" on="1"/>
        <pt x="222" y="786" on="1"/>
        <pt x="231" y="532" on="0"/>
        <pt x="231" y="90" on="1"/>
        <pt x="330" y="106" on="0"/>
        <pt x="444" y="263" on="0"/>
        <pt x="444" y="369" on="1"/>
        <pt x="444" y="715" on="0"/>
      </contour>
      <contour>
        <pt x="243" y="1421" on="1"/>
        <pt x="215" y="1421" on="0"/>
        <pt x="215" y="1274" on="0"/>
        <pt x="223" y="959" on="0"/>
        <pt x="223" y="888" on="1"/>
        <pt x="296" y="905" on="0"/>
        <pt x="348" y="1068" on="1"/>
        <pt x="376" y="1155" on="0"/>
        <pt x="384" y="1173" on="1"/>
        <pt x="384" y="1246" on="1"/>
        <pt x="384" y="1306" on="0"/>
        <pt x="299" y="1421" on="0"/>
      </contour>
    </TTGlyph>
    <TTGlyph name="C" xMin="83" yMin="-33" xMax="620" yMax="1565">
      <contour>
        <pt x="206" y="999" on="1"/>
        <pt x="188" y="856" on="1"/>
        <pt x="188" y="752" on="0"/>
        <pt x="243" y="198" on="0"/>
        <pt x="269" y="160" on="1"/>
        <pt x="315" y="93" on="0"/>
        <pt x="505" y="93" on="0"/>
        <pt x="555" y="152" on="1"/>
        <pt x="590" y="152" on="0"/>
        <pt x="620" y="162" on="1"/>
        <pt x="620" y="135" on="1"/>
        <pt x="620" y="73" on="0"/>
        <pt x="584" y="34" on="1"/>
        <pt x="525" y="-33" on="0"/>
        <pt x="396" y="-33" on="1"/>
        <pt x="327" y="-33" on="0"/>
        <pt x="193" y="60" on="0"/>
        <pt x="123" y="208" on="0"/>
        <pt x="83" y="822" on="0"/>
        <pt x="83" y="1154" on="0"/>
        <pt x="97" y="1226" on="1"/>
        <pt x="91" y="1259" on="0"/>
        <pt x="91" y="1290" on="1"/>
        <pt x="91" y="1416" on="0"/>
        <pt x="279" y="1565" on="0"/>
        <pt x="417" y="1565" on="1"/>
        <pt x="466" y="1565" on="0"/>
        <pt x="560" y="1510" on="0"/>
        <pt x="560" y="1465" on="1"/>
        <pt x="560" y="1443" on="0"/>
        <pt x="526" y="1419" on="0"/>
        <pt x="465" y="1419" on="0"/>
        <pt x="450" y="1444" on="1"/>
        <pt x="450" y="1440" on="1"/>
        <pt x="418" y="1440" on="1"/>
        <pt x="418" y="1448" on="1"/>
        <pt x="260" y="1448" on="0"/>
        <pt x="220" y="1314" on="1"/>
        <pt x="200" y="1248" on="0"/>
        <pt x="200" y="1140" on="1"/>
      </contour>
    </TTGlyph>
    <TTGlyph name="Cacute" xMin="83" yMin="-33" xMax="634" yMax="1975">
      <component glyphName="acute" x="198" y="402" flags="0x1004"/>
      <component glyphName="C" x="0" y="0" flags="0x1204"/>
    </TTGlyph>
    <TTGlyph name="Ccaron" xMin="83" yMin="-33" xMax="620" yMax="2115">
      <component glyphName="caron" x="187" y="759" flags="0x1004"/>
      <component glyphName="C" x="0" y="0" flags="0x1204"/>
    </TTGlyph>
    <TTGlyph name="Ccedilla" xMin="82" yMin="-536" xMax="619" yMax="1564">
      <contour>
        <pt x="205" y="998" on="1"/>
        <pt x="187" y="855" on="1"/>
        <pt x="187" y="748" on="0"/>
        <pt x="242" y="199" on="0"/>
        <pt x="268" y="159" on="1"/>
        <pt x="312" y="92" on="0"/>
        <pt x="504" y="92" on="0"/>
        <pt x="554" y="151" on="1"/>
        <pt x="589" y="151" on="0"/>
        <pt x="619" y="161" on="1"/>
        <pt x="619" y="134" on="1"/>
        <pt x="619" y="-4" on="0"/>
        <pt x="466" y="-28" on="1"/>
        <pt x="457" y="-82" on="0"/>
        <pt x="456" y="-123" on="1"/>
        <pt x="534" y="-138" on="0"/>
        <pt x="605" y="-264" on="0"/>
        <pt x="605" y="-417" on="0"/>
        <pt x="493" y="-536" on="0"/>
        <pt x="384" y="-536" on="0"/>
        <pt x="314" y="-495" on="0"/>
        <pt x="314" y="-439" on="0"/>
        <pt x="342" y="-413" on="0"/>
        <pt x="397" y="-413" on="0"/>
        <pt x="426" y="-433" on="1"/>
        <pt x="441" y="-431" on="0"/>
        <pt x="472" y="-389" on="0"/>
        <pt x="472" y="-358" on="0"/>
        <pt x="465" y="-324" on="0"/>
        <pt x="451" y="-282" on="0"/>
        <pt x="449" y="-272" on="1"/>
        <pt x="484" y="-307" on="1"/>
        <pt x="484" y="-297" on="1"/>
        <pt x="484" y="-263" on="0"/>
        <pt x="467" y="-246" on="1"/>
        <pt x="434" y="-251" on="0"/>
        <pt x="393" y="-251" on="0"/>
        <pt x="362" y="-226" on="0"/>
        <pt x="338" y="-189" on="1"/>
        <pt x="357" y="-150" on="0"/>
        <pt x="357" y="-76" on="1"/>
        <pt x="357" y="-30" on="1"/>
        <pt x="297" y="-17" on="0"/>
        <pt x="187" y="68" on="0"/>
        <pt x="122" y="211" on="0"/>
        <pt x="82" y="817" on="0"/>
        <pt x="82" y="1153" on="0"/>
        <pt x="96" y="1225" on="1"/>
        <pt x="90" y="1258" on="0"/>
        <pt x="90" y="1289" on="1"/>
        <pt x="90" y="1415" on="0"/>
        <pt x="278" y="1564" on="0"/>
        <pt x="416" y="1564" on="1"/>
        <pt x="465" y="1564" on="0"/>
        <pt x="559" y="1509" on="0"/>
        <pt x="559" y="1464" on="1"/>
        <pt x="559" y="1442" on="0"/>
        <pt x="525" y="1418" on="0"/>
        <pt x="462" y="1418" on="0"/>
        <pt x="449" y="1443" on="1"/>
        <pt x="449" y="1439" on="1"/>
        <pt x="417" y="1439" on="1"/>
        <pt x="417" y="1447" on="1"/>
        <pt x="259" y="1447" on="0"/>
        <pt x="219" y="1314" on="1"/>
        <pt x="199" y="1247" on="0"/>
        <pt x="199" y="1139" on="1"/>
      </contour>
    </TTGlyph>
    <TTGlyph name="Ccircumflex" xMin="83" yMin="-33" xMax="620" yMax="2119">
      <component glyphName="circumflex" x="100" y="760" flags="0x1004"/>
      <component glyphName="C" x="0" y="0" flags="0x1204"/>
    </TTGlyph>
    <TTGlyph name="Cdotaccent" xMin="83" yMin="-33" xMax="620" yMax="1839">
      <component glyphName="dotaccent" x="265" y="297" flags="0x1004"/>
      <component glyphName="C" x="0" y="0" flags="0x1204"/>
    </TTGlyph>
    <TTGlyph name="D" xMin="64" yMin="-5" xMax="602" yMax="1552">
      <contour>
        <pt x="103" y="982" on="1"/>
        <pt x="109" y="1206" on="1"/>
        <pt x="109" y="1301" on="0"/>
        <pt x="91" y="1384" on="0"/>
        <pt x="64" y="1459" on="0"/>
        <pt x="64" y="1498" on="0"/>
        <pt x="80" y="1524" on="0"/>
        <pt x="112" y="1539" on="0"/>
        <pt x="142" y="1548" on="0"/>
        <pt x="165" y="1550" on="1"/>
        <pt x="203" y="1552" on="0"/>
        <pt x="220" y="1552" on="1"/>
        <pt x="240" y="1552" on="1"/>
        <pt x="324" y="1552" on="0"/>
        <pt x="419" y="1462" on="1"/>
        <pt x="534" y="1353" on="0"/>
        <pt x="559" y="1232" on="1"/>
        <pt x="574" y="1161" on="0"/>
        <pt x="584" y="987" on="0"/>
        <pt x="586" y="958" on="1"/>
        <pt x="592" y="892" on="0"/>
        <pt x="602" y="868" on="1"/>
        <pt x="602" y="773" on="1"/>
        <pt x="591" y="754" on="0"/>
        <pt x="591" y="711" on="1"/>
        <pt x="591" y="556" on="0"/>
        <pt x="449" y="188" on="0"/>
        <pt x="344" y="92" on="1"/>
        <pt x="266" y="21" on="0"/>
        <pt x="211" y="-5" on="0"/>
        <pt x="158" y="-5" on="0"/>
        <pt x="96" y="30" on="0"/>
        <pt x="96" y="65" on="1"/>
        <pt x="141" y="112" on="0"/>
        <pt x="141" y="306" on="1"/>
        <pt x="141" y="420" on="0"/>
        <pt x="103" y="870" on="0"/>
      </contour>
      <contour>
        <pt x="239" y="310" on="1"/>
        <pt x="239" y="114" on="1"/>
        <pt x="398" y="226" on="0"/>
        <pt x="462" y="531" on="1"/>
        <pt x="494" y="687" on="0"/>
        <pt x="494" y="854" on="1"/>
        <pt x="494" y="1429" on="0"/>
        <pt x="210" y="1429" on="1"/>
        <pt x="210" y="1427" on="1"/>
        <pt x="210" y="1237" on="0"/>
        <pt x="238" y="492" on="0"/>
      </contour>
    </TTGlyph>
    <TTGlyph name="Dcaron" xMin="64" yMin="-5" xMax="602" yMax="2115">
      <component glyphName="caron" x="71" y="759" flags="0x1004"/>
      <component glyphName="D" x="0" y="0" flags="0x1204"/>
    </TTGlyph>
    <TTGlyph name="Dcroat" xMin="47" yMin="45" xMax="776" yMax="2220">
      <component glyphName="Eth" x="0" y="0" flags="0x1204"/>
    </TTGlyph>
    <TTGlyph name="E" xMin="110" yMin="-12" xMax="450" yMax="1551">
      <contour>
        <pt x="315" y="750" on="1"/>
        <pt x="264" y="752" on="1"/>
        <pt x="240" y="752" on="0"/>
        <pt x="228" y="737" on="1"/>
        <pt x="228" y="105" on="1"/>
        <pt x="333" y="111" on="0"/>
        <pt x="336" y="111" on="1"/>
        <pt x="450" y="111" on="0"/>
        <pt x="450" y="57" on="1"/>
        <pt x="450" y="50" on="1"/>
        <pt x="436" y="22" on="0"/>
        <pt x="369" y="-8" on="0"/>
        <pt x="319" y="-12" on="0"/>
        <pt x="278" y="-12" on="1"/>
        <pt x="214" y="-12" on="1"/>
        <pt x="136" y="-12" on="0"/>
        <pt x="118" y="18" on="1"/>
        <pt x="110" y="32" on="0"/>
        <pt x="110" y="55" on="1"/>
        <pt x="110" y="1533" on="1"/>
        <pt x="287" y="1551" on="1"/>
        <pt x="318" y="1551" on="0"/>
        <pt x="381" y="1514" on="0"/>
        <pt x="381" y="1484" on="1"/>
        <pt x="381" y="1423" on="0"/>
        <pt x="288" y="1423" on="1"/>
        <pt x="229" y="1425" on="1"/>
        <pt x="214" y="1425" on="0"/>
        <pt x="207" y="1424" on="1"/>
        <pt x="223" y="1086" on="1"/>
        <pt x="223" y="1045" on="0"/>
        <pt x="213" y="888" on="0"/>
        <pt x="213" y="852" on="1"/>
        <pt x="224" y="854" on="0"/>
        <pt x="243" y="859" on="1"/>
        <pt x="285" y="870" on="0"/>
        <pt x="332" y="870" on="0"/>
        <pt x="369" y="836" on="0"/>
        <pt x="369" y="788" on="0"/>
        <pt x="339" y="750" on="0"/>
      </contour>
    </TTGlyph>
    <TTGlyph name="Eacute" xMin="110" yMin="-10" xMax="488" yMax="1978">
      <contour>
        <pt x="211" y="1690" on="1"/>
        <pt x="142" y="1690" on="0"/>
        <pt x="142" y="1744" on="1"/>
        <pt x="142" y="1746" on="1"/>
        <pt x="144" y="1786" on="0"/>
        <pt x="324" y="1914" on="1"/>
        <pt x="395" y="1964" on="0"/>
        <pt x="410" y="1978" on="1"/>
        <pt x="488" y="1978" on="0"/>
        <pt x="488" y="1922" on="1"/>
        <pt x="488" y="1921" on="0"/>
        <pt x="479" y="1873" on="1"/>
        <pt x="413" y="1846" on="0"/>
        <pt x="260" y="1741" on="0"/>
      </contour>
      <contour>
        <pt x="315" y="752" on="1"/>
        <pt x="264" y="754" on="1"/>
        <pt x="240" y="754" on="0"/>
        <pt x="228" y="739" on="1"/>
        <pt x="228" y="107" on="1"/>
        <pt x="333" y="113" on="0"/>
        <pt x="336" y="113" on="1"/>
        <pt x="450" y="113" on="0"/>
        <pt x="450" y="59" on="1"/>
        <pt x="450" y="52" on="1"/>
        <pt x="436" y="24" on="0"/>
        <pt x="369" y="-6" on="0"/>
        <pt x="319" y="-10" on="0"/>
        <pt x="278" y="-10" on="1"/>
        <pt x="214" y="-10" on="1"/>
        <pt x="136" y="-10" on="0"/>
        <pt x="118" y="20" on="1"/>
        <pt x="110" y="34" on="0"/>
        <pt x="110" y="57" on="1"/>
        <pt x="110" y="1535" on="1"/>
        <pt x="287" y="1553" on="1"/>
        <pt x="318" y="1553" on="0"/>
        <pt x="381" y="1516" on="0"/>
        <pt x="381" y="1486" on="1"/>
        <pt x="381" y="1425" on="0"/>
        <pt x="288" y="1425" on="1"/>
        <pt x="229" y="1427" on="1"/>
        <pt x="214" y="1427" on="0"/>
        <pt x="207" y="1426" on="1"/>
        <pt x="223" y="1088" on="1"/>
        <pt x="223" y="1047" on="0"/>
        <pt x="213" y="890" on="0"/>
        <pt x="213" y="854" on="1"/>
        <pt x="224" y="856" on="0"/>
        <pt x="243" y="861" on="1"/>
        <pt x="285" y="872" on="0"/>
        <pt x="332" y="872" on="0"/>
        <pt x="369" y="838" on="0"/>
        <pt x="369" y="790" on="0"/>
        <pt x="339" y="752" on="0"/>
      </contour>
    </TTGlyph>
    <TTGlyph name="Ebreve" xMin="45" yMin="-12" xMax="450" yMax="1962">
      <component glyphName="breve" x="-50" y="820" flags="0x1004"/>
      <component glyphName="E" x="0" y="0" flags="0x1204"/>
    </TTGlyph>
    <TTGlyph name="Ecaron" xMin="54" yMin="-12" xMax="450" yMax="2115">
      <component glyphName="caron" x="-28" y="759" flags="0x1004"/>
      <component glyphName="E" x="0" y="0" flags="0x1204"/>
    </TTGlyph>
    <TTGlyph name="Ecircumflex" xMin="50" yMin="-12" xMax="455" yMax="2123">
      <contour>
        <pt x="320" y="750" on="1"/>
        <pt x="269" y="752" on="1"/>
        <pt x="245" y="752" on="0"/>
        <pt x="233" y="737" on="1"/>
        <pt x="233" y="105" on="1"/>
        <pt x="338" y="111" on="0"/>
        <pt x="341" y="111" on="1"/>
        <pt x="455" y="111" on="0"/>
        <pt x="455" y="57" on="1"/>
        <pt x="455" y="50" on="1"/>
        <pt x="441" y="22" on="0"/>
        <pt x="374" y="-8" on="0"/>
        <pt x="324" y="-12" on="0"/>
        <pt x="283" y="-12" on="1"/>
        <pt x="219" y="-12" on="1"/>
        <pt x="141" y="-12" on="0"/>
        <pt x="124" y="18" on="1"/>
        <pt x="115" y="32" on="0"/>
        <pt x="115" y="55" on="1"/>
        <pt x="115" y="1533" on="1"/>
        <pt x="292" y="1551" on="1"/>
        <pt x="323" y="1551" on="0"/>
        <pt x="386" y="1514" on="0"/>
        <pt x="386" y="1484" on="1"/>
        <pt x="386" y="1423" on="0"/>
        <pt x="293" y="1423" on="1"/>
        <pt x="234" y="1425" on="1"/>
        <pt x="219" y="1425" on="0"/>
        <pt x="212" y="1424" on="1"/>
        <pt x="228" y="1086" on="1"/>
        <pt x="228" y="1045" on="0"/>
        <pt x="218" y="888" on="0"/>
        <pt x="218" y="852" on="1"/>
        <pt x="229" y="854" on="0"/>
        <pt x="248" y="859" on="1"/>
        <pt x="290" y="870" on="0"/>
        <pt x="337" y="870" on="0"/>
        <pt x="374" y="836" on="0"/>
        <pt x="374" y="788" on="0"/>
        <pt x="344" y="750" on="0"/>
      </contour>
      <contour>
        <pt x="361" y="1766" on="1"/>
        <pt x="379" y="1741" on="1"/>
        <pt x="379" y="1718" on="0"/>
        <pt x="338" y="1691" on="0"/>
        <pt x="314" y="1691" on="1"/>
        <pt x="270" y="1691" on="1"/>
        <pt x="253" y="1862" on="0"/>
        <pt x="230" y="1957" on="1"/>
        <pt x="222" y="1933" on="0"/>
        <pt x="194" y="1842" on="0"/>
        <pt x="186" y="1817" on="1"/>
        <pt x="162" y="1749" on="0"/>
        <pt x="117" y="1692" on="1"/>
        <pt x="50" y="1740" on="1"/>
        <pt x="54" y="1778" on="0"/>
        <pt x="118" y="1958" on="0"/>
        <pt x="213" y="2123" on="0"/>
        <pt x="247" y="2123" on="1"/>
        <pt x="299" y="2123" on="0"/>
        <pt x="299" y="2056" on="1"/>
        <pt x="299" y="2011" on="0"/>
        <pt x="361" y="1853" on="0"/>
        <pt x="361" y="1818" on="1"/>
      </contour>
    </TTGlyph>
    <TTGlyph name="Edieresis" xMin="43" yMin="-13" xMax="604" yMax="1834">
      <contour>
        <pt x="431" y="749" on="1"/>
        <pt x="380" y="751" on="1"/>
        <pt x="356" y="751" on="0"/>
        <pt x="344" y="736" on="1"/>
        <pt x="344" y="104" on="1"/>
        <pt x="449" y="110" on="0"/>
        <pt x="452" y="110" on="1"/>
        <pt x="566" y="110" on="0"/>
        <pt x="566" y="56" on="1"/>
        <pt x="566" y="49" on="1"/>
        <pt x="552" y="21" on="0"/>
        <pt x="485" y="-9" on="0"/>
        <pt x="435" y="-13" on="0"/>
        <pt x="394" y="-13" on="1"/>
        <pt x="330" y="-13" on="1"/>
        <pt x="252" y="-13" on="0"/>
        <pt x="234" y="16" on="1"/>
        <pt x="226" y="31" on="0"/>
        <pt x="226" y="54" on="1"/>
        <pt x="226" y="1532" on="1"/>
        <pt x="403" y="1550" on="1"/>
        <pt x="434" y="1550" on="0"/>
        <pt x="497" y="1513" on="0"/>
        <pt x="497" y="1483" on="1"/>
        <pt x="497" y="1422" on="0"/>
        <pt x="404" y="1422" on="1"/>
        <pt x="345" y="1424" on="1"/>
        <pt x="330" y="1424" on="0"/>
        <pt x="323" y="1423" on="1"/>
        <pt x="339" y="1085" on="1"/>
        <pt x="339" y="1044" on="0"/>
        <pt x="329" y="887" on="0"/>
        <pt x="329" y="851" on="1"/>
        <pt x="340" y="853" on="0"/>
        <pt x="359" y="858" on="1"/>
        <pt x="401" y="869" on="0"/>
        <pt x="448" y="869" on="0"/>
        <pt x="485" y="835" on="0"/>
        <pt x="485" y="787" on="0"/>
        <pt x="455" y="749" on="0"/>
      </contour>
      <contour>
        <pt x="501" y="1690" on="0"/>
        <pt x="463" y="1732" on="0"/>
        <pt x="463" y="1788" on="0"/>
        <pt x="507" y="1834" on="0"/>
        <pt x="563" y="1834" on="0"/>
        <pt x="604" y="1789" on="0"/>
        <pt x="604" y="1730" on="0"/>
        <pt x="558" y="1690" on="0"/>
      </contour>
      <contour>
        <pt x="184" y="1732" on="0"/>
        <pt x="133" y="1690" on="0"/>
        <pt x="75" y="1690" on="0"/>
        <pt x="43" y="1729" on="0"/>
        <pt x="43" y="1788" on="0"/>
        <pt x="83" y="1831" on="0"/>
        <pt x="142" y="1831" on="0"/>
        <pt x="184" y="1791" on="0"/>
      </contour>
    </TTGlyph>
    <TTGlyph name="Edotaccent" xMin="110" yMin="-12" xMax="450" yMax="1839">
      <component glyphName="dotaccent" x="137" y="297" flags="0x1004"/>
      <component glyphName="E" x="0" y="0" flags="0x1204"/>
    </TTGlyph>
    <TTGlyph name="Egrave" xMin="44" yMin="-13" xMax="617" yMax="1891">
      <contour>
        <pt x="482" y="749" on="1"/>
        <pt x="431" y="751" on="1"/>
        <pt x="408" y="751" on="0"/>
        <pt x="395" y="736" on="1"/>
        <pt x="395" y="104" on="1"/>
        <pt x="500" y="110" on="0"/>
        <pt x="503" y="110" on="1"/>
        <pt x="617" y="110" on="0"/>
        <pt x="617" y="56" on="1"/>
        <pt x="617" y="49" on="1"/>
        <pt x="603" y="21" on="0"/>
        <pt x="536" y="-9" on="0"/>
        <pt x="486" y="-13" on="0"/>
        <pt x="445" y="-13" on="1"/>
        <pt x="381" y="-13" on="1"/>
        <pt x="303" y="-13" on="0"/>
        <pt x="286" y="16" on="1"/>
        <pt x="277" y="31" on="0"/>
        <pt x="277" y="54" on="1"/>
        <pt x="277" y="1532" on="1"/>
        <pt x="454" y="1550" on="1"/>
        <pt x="485" y="1550" on="0"/>
        <pt x="548" y="1513" on="0"/>
        <pt x="548" y="1483" on="1"/>
        <pt x="548" y="1422" on="0"/>
        <pt x="455" y="1422" on="1"/>
        <pt x="396" y="1424" on="1"/>
        <pt x="381" y="1424" on="0"/>
        <pt x="374" y="1423" on="1"/>
        <pt x="390" y="1085" on="1"/>
        <pt x="390" y="1044" on="0"/>
        <pt x="380" y="887" on="0"/>
        <pt x="380" y="851" on="1"/>
        <pt x="391" y="853" on="0"/>
        <pt x="410" y="858" on="1"/>
        <pt x="452" y="869" on="0"/>
        <pt x="499" y="869" on="0"/>
        <pt x="536" y="835" on="0"/>
        <pt x="536" y="787" on="0"/>
        <pt x="506" y="749" on="0"/>
      </contour>
      <contour>
        <pt x="168" y="1763" on="1"/>
        <pt x="148" y="1761" on="0"/>
        <pt x="133" y="1761" on="1"/>
        <pt x="44" y="1761" on="0"/>
        <pt x="44" y="1823" on="1"/>
        <pt x="44" y="1874" on="0"/>
        <pt x="72" y="1891" on="1"/>
        <pt x="141" y="1891" on="0"/>
        <pt x="177" y="1873" on="0"/>
        <pt x="190" y="1865" on="0"/>
        <pt x="270" y="1839" on="0"/>
        <pt x="321" y="1819" on="0"/>
        <pt x="356" y="1803" on="1"/>
        <pt x="426" y="1770" on="0"/>
        <pt x="426" y="1730" on="1"/>
        <pt x="426" y="1713" on="0"/>
        <pt x="396" y="1690" on="0"/>
        <pt x="369" y="1690" on="0"/>
        <pt x="328" y="1702" on="0"/>
        <pt x="273" y="1722" on="0"/>
        <pt x="228" y="1739" on="0"/>
        <pt x="174" y="1761" on="0"/>
      </contour>
    </TTGlyph>
    <TTGlyph name="Emacron" xMin="98" yMin="-12" xMax="540" yMax="1791">
      <component glyphName="macron" x="-8" y="987" flags="0x1004"/>
      <component glyphName="E" x="0" y="0" flags="0x1204"/>
    </TTGlyph>
    <TTGlyph name="Eng" xMin="93" yMin="-194" xMax="725" yMax="1596">
      <component glyphName="N" x="0" y="0" flags="0x1004"/>
      <component glyphName="J" x="315" y="0" flags="0x1004"/>
    </TTGlyph>
    <TTGlyph name="Eogonek" xMin="109" yMin="-385" xMax="449" yMax="1551">
      <component glyphName="ogonek" x="65" y="-19" flags="0x1004"/>
      <component glyphName="E" x="-1" y="0" flags="0x1004"/>
    </TTGlyph>
    <TTGlyph name="Eth" xMin="47" yMin="45" xMax="776" yMax="2220">
      <contour>
        <pt x="320" y="1141" on="1"/>
        <pt x="320" y="1140" on="1"/>
        <pt x="324" y="991" on="0"/>
        <pt x="372" y="367" on="0"/>
        <pt x="375" y="204" on="1"/>
        <pt x="627" y="424" on="0"/>
        <pt x="654" y="804" on="1"/>
        <pt x="659" y="882" on="0"/>
        <pt x="659" y="1054" on="0"/>
        <pt x="658" y="1156" on="0"/>
        <pt x="650" y="1324" on="0"/>
        <pt x="636" y="1452" on="0"/>
        <pt x="609" y="1620" on="0"/>
        <pt x="571" y="1748" on="0"/>
        <pt x="512" y="1888" on="0"/>
        <pt x="476" y="1938" on="1"/>
        <pt x="393" y="2052" on="0"/>
        <pt x="277" y="2097" on="1"/>
        <pt x="277" y="1829" on="1"/>
        <pt x="277" y="1460" on="0"/>
        <pt x="319" y="1252" on="1"/>
        <pt x="352" y="1254" on="0"/>
        <pt x="509" y="1274" on="0"/>
        <pt x="581" y="1274" on="0"/>
        <pt x="617" y="1224" on="0"/>
        <pt x="619" y="1194" on="1"/>
        <pt x="585" y="1153" on="1"/>
        <pt x="416" y="1153" on="0"/>
      </contour>
      <contour>
        <pt x="47" y="1184" on="1"/>
        <pt x="47" y="1244" on="0"/>
        <pt x="172" y="1244" on="1"/>
        <pt x="203" y="1244" on="1"/>
        <pt x="202" y="1392" on="0"/>
        <pt x="159" y="1998" on="0"/>
        <pt x="159" y="2154" on="1"/>
        <pt x="159" y="2176" on="0"/>
        <pt x="193" y="2220" on="0"/>
        <pt x="215" y="2220" on="1"/>
        <pt x="280" y="2220" on="0"/>
        <pt x="494" y="2083" on="0"/>
        <pt x="659" y="1895" on="0"/>
        <pt x="659" y="1831" on="1"/>
        <pt x="659" y="1627" on="0"/>
        <pt x="776" y="1013" on="0"/>
        <pt x="776" y="576" on="0"/>
        <pt x="540" y="148" on="0"/>
        <pt x="340" y="45" on="1"/>
        <pt x="340" y="47" on="1"/>
        <pt x="280" y="65" on="0"/>
        <pt x="258" y="107" on="1"/>
        <pt x="258" y="792" on="0"/>
        <pt x="206" y="1137" on="1"/>
        <pt x="122" y="1125" on="0"/>
        <pt x="75" y="1125" on="0"/>
        <pt x="47" y="1160" on="0"/>
      </contour>
    </TTGlyph>
    <TTGlyph name="Euro" xMin="60" yMin="-33" xMax="685" yMax="1565">
      <contour>
        <pt x="254" y="879" on="1"/>
        <pt x="319" y="880" on="1"/>
        <pt x="456" y="880" on="0"/>
        <pt x="456" y="852" on="1"/>
        <pt x="456" y="833" on="0"/>
        <pt x="442" y="821" on="1"/>
        <pt x="392" y="815" on="0"/>
        <pt x="254" y="811" on="1"/>
        <pt x="254" y="725" on="1"/>
        <pt x="403" y="727" on="0"/>
        <pt x="449" y="731" on="1"/>
        <pt x="463" y="719" on="0"/>
        <pt x="463" y="700" on="1"/>
        <pt x="463" y="652" on="0"/>
        <pt x="305" y="652" on="1"/>
        <pt x="265" y="653" on="1"/>
        <pt x="301" y="208" on="0"/>
        <pt x="334" y="160" on="1"/>
        <pt x="380" y="93" on="0"/>
        <pt x="570" y="93" on="0"/>
        <pt x="620" y="152" on="1"/>
        <pt x="655" y="152" on="0"/>
        <pt x="685" y="162" on="1"/>
        <pt x="685" y="135" on="1"/>
        <pt x="685" y="73" on="0"/>
        <pt x="650" y="34" on="1"/>
        <pt x="590" y="-33" on="0"/>
        <pt x="461" y="-33" on="1"/>
        <pt x="206" y="-33" on="0"/>
        <pt x="171" y="416" on="1"/>
        <pt x="167" y="468" on="0"/>
        <pt x="166" y="504" on="1"/>
        <pt x="161" y="610" on="0"/>
        <pt x="159" y="654" on="1"/>
        <pt x="80" y="654" on="1"/>
        <pt x="67" y="665" on="0"/>
        <pt x="67" y="687" on="1"/>
        <pt x="67" y="724" on="0"/>
        <pt x="132" y="724" on="1"/>
        <pt x="144" y="724" on="0"/>
        <pt x="155" y="724" on="1"/>
        <pt x="155" y="808" on="1"/>
        <pt x="79" y="808" on="1"/>
        <pt x="60" y="815" on="0"/>
        <pt x="60" y="866" on="0"/>
        <pt x="81" y="877" on="0"/>
        <pt x="105" y="877" on="1"/>
        <pt x="150" y="877" on="1"/>
        <pt x="148" y="1038" on="1"/>
        <pt x="148" y="1147" on="0"/>
        <pt x="162" y="1226" on="1"/>
        <pt x="156" y="1259" on="0"/>
        <pt x="156" y="1289" on="1"/>
        <pt x="156" y="1415" on="0"/>
        <pt x="344" y="1565" on="0"/>
        <pt x="482" y="1565" on="1"/>
        <pt x="531" y="1565" on="0"/>
        <pt x="625" y="1510" on="0"/>
        <pt x="625" y="1465" on="1"/>
        <pt x="625" y="1443" on="0"/>
        <pt x="591" y="1419" on="0"/>
        <pt x="548" y="1419" on="0"/>
        <pt x="479" y="1448" on="0"/>
        <pt x="426" y="1448" on="0"/>
        <pt x="362" y="1429" on="0"/>
        <pt x="320" y="1400" on="0"/>
        <pt x="290" y="1349" on="0"/>
        <pt x="275" y="1304" on="0"/>
        <pt x="271" y="1268" on="1"/>
        <pt x="265" y="1213" on="0"/>
        <pt x="265" y="981" on="0"/>
      </contour>
    </TTGlyph>
    <TTGlyph name="F" xMin="69" yMin="-2" xMax="391" yMax="1554">
      <contour>
        <pt x="391" y="828" on="1"/>
        <pt x="391" y="761" on="0"/>
        <pt x="221" y="761" on="1"/>
        <pt x="221" y="650" on="0"/>
        <pt x="260" y="206" on="0"/>
        <pt x="260" y="94" on="1"/>
        <pt x="256" y="81" on="1"/>
        <pt x="259" y="72" on="0"/>
        <pt x="259" y="30" on="0"/>
        <pt x="221" y="-2" on="0"/>
        <pt x="190" y="-2" on="1"/>
        <pt x="131" y="-2" on="0"/>
        <pt x="131" y="129" on="1"/>
        <pt x="131" y="324" on="0"/>
        <pt x="90" y="1408" on="0"/>
        <pt x="69" y="1440" on="1"/>
        <pt x="69" y="1546" on="0"/>
        <pt x="214" y="1553" on="1"/>
        <pt x="235" y="1554" on="0"/>
        <pt x="311" y="1554" on="0"/>
        <pt x="354" y="1526" on="0"/>
        <pt x="354" y="1440" on="0"/>
        <pt x="297" y="1440" on="1"/>
        <pt x="247" y="1442" on="1"/>
        <pt x="190" y="1442" on="0"/>
        <pt x="190" y="1419" on="1"/>
        <pt x="190" y="1324" on="0"/>
        <pt x="220" y="957" on="0"/>
        <pt x="221" y="869" on="1"/>
        <pt x="309" y="891" on="0"/>
        <pt x="358" y="891" on="0"/>
        <pt x="391" y="852" on="0"/>
      </contour>
    </TTGlyph>
    <TTGlyph name="G" xMin="80" yMin="-54" xMax="693" yMax="1591">
      <contour>
        <pt x="540" y="371" on="1"/>
        <pt x="463" y="363" on="1"/>
        <pt x="395" y="363" on="0"/>
        <pt x="395" y="421" on="1"/>
        <pt x="395" y="471" on="0"/>
        <pt x="522" y="486" on="1"/>
        <pt x="547" y="489" on="0"/>
        <pt x="608" y="489" on="0"/>
        <pt x="652" y="425" on="0"/>
        <pt x="652" y="318" on="0"/>
        <pt x="693" y="76" on="0"/>
        <pt x="693" y="34" on="1"/>
        <pt x="693" y="-41" on="0"/>
        <pt x="591" y="-41" on="0"/>
        <pt x="574" y="2" on="1"/>
        <pt x="574" y="4" on="1"/>
        <pt x="562" y="-2" on="0"/>
        <pt x="531" y="-20" on="1"/>
        <pt x="470" y="-54" on="0"/>
        <pt x="375" y="-54" on="0"/>
        <pt x="282" y="-16" on="0"/>
        <pt x="215" y="43" on="0"/>
        <pt x="162" y="137" on="0"/>
        <pt x="127" y="229" on="0"/>
        <pt x="102" y="353" on="0"/>
        <pt x="90" y="451" on="0"/>
        <pt x="86" y="516" on="1"/>
        <pt x="81" y="596" on="0"/>
        <pt x="81" y="711" on="1"/>
        <pt x="80" y="862" on="1"/>
        <pt x="80" y="1343" on="0"/>
        <pt x="216" y="1499" on="1"/>
        <pt x="295" y="1591" on="0"/>
        <pt x="421" y="1591" on="1"/>
        <pt x="503" y="1591" on="0"/>
        <pt x="503" y="1533" on="1"/>
        <pt x="503" y="1511" on="0"/>
        <pt x="472" y="1485" on="0"/>
        <pt x="451" y="1485" on="1"/>
        <pt x="395" y="1495" on="1"/>
        <pt x="321" y="1495" on="0"/>
        <pt x="278" y="1402" on="1"/>
        <pt x="234" y="1306" on="0"/>
        <pt x="208" y="1119" on="0"/>
        <pt x="196" y="1007" on="0"/>
        <pt x="194" y="938" on="1"/>
        <pt x="190" y="841" on="0"/>
        <pt x="190" y="744" on="1"/>
        <pt x="189" y="617" on="1"/>
        <pt x="189" y="416" on="0"/>
        <pt x="223" y="255" on="0"/>
        <pt x="258" y="157" on="0"/>
        <pt x="282" y="124" on="1"/>
        <pt x="338" y="51" on="0"/>
        <pt x="513" y="51" on="0"/>
        <pt x="571" y="137" on="1"/>
        <pt x="568" y="321" on="0"/>
      </contour>
    </TTGlyph>
    <TTGlyph name="Gbreve" xMin="80" yMin="-54" xMax="693" yMax="1968">
      <component glyphName="breve" x="76" y="826" flags="0x1004"/>
      <component glyphName="G" x="0" y="0" flags="0x1204"/>
    </TTGlyph>
    <TTGlyph name="Gcircumflex" xMin="80" yMin="-54" xMax="693" yMax="2125">
      <component glyphName="circumflex" x="109" y="766" flags="0x1004"/>
      <component glyphName="G" x="0" y="0" flags="0x1204"/>
    </TTGlyph>
    <TTGlyph name="Gcommaaccent" xMin="80" yMin="-542" xMax="693" yMax="1591">
      <component glyphName="uni0326" x="246" y="18" flags="0x1004"/>
      <component glyphName="G" x="0" y="0" flags="0x1204"/>
    </TTGlyph>
    <TTGlyph name="Gdotaccent" xMin="80" yMin="-54" xMax="693" yMax="1845">
      <component glyphName="uni0307" x="176" y="303" flags="0x1004"/>
      <component glyphName="G" x="0" y="0" flags="0x1204"/>
    </TTGlyph>
    <TTGlyph name="H" xMin="84" yMin="-31" xMax="522" yMax="1557">
      <contour>
        <pt x="392" y="824" on="1"/>
        <pt x="374" y="1496" on="1"/>
        <pt x="373" y="1511" on="0"/>
        <pt x="407" y="1547" on="0"/>
        <pt x="450" y="1547" on="0"/>
        <pt x="484" y="1475" on="0"/>
        <pt x="484" y="1393" on="1"/>
        <pt x="484" y="1168" on="0"/>
        <pt x="522" y="267" on="0"/>
        <pt x="522" y="43" on="1"/>
        <pt x="522" y="16" on="0"/>
        <pt x="488" y="-31" on="0"/>
        <pt x="462" y="-31" on="1"/>
        <pt x="410" y="-31" on="0"/>
        <pt x="410" y="37" on="1"/>
        <pt x="410" y="419" on="0"/>
        <pt x="393" y="759" on="1"/>
        <pt x="338" y="769" on="0"/>
        <pt x="246" y="769" on="0"/>
        <pt x="210" y="753" on="1"/>
        <pt x="211" y="641" on="0"/>
        <pt x="244" y="178" on="0"/>
        <pt x="244" y="59" on="1"/>
        <pt x="244" y="39" on="0"/>
        <pt x="220" y="5" on="0"/>
        <pt x="200" y="5" on="1"/>
        <pt x="167" y="5" on="0"/>
        <pt x="134" y="60" on="0"/>
        <pt x="125" y="295" on="0"/>
        <pt x="123" y="575" on="0"/>
        <pt x="121" y="602" on="1"/>
        <pt x="84" y="1134" on="0"/>
        <pt x="84" y="1510" on="1"/>
        <pt x="84" y="1525" on="1"/>
        <pt x="87" y="1557" on="0"/>
        <pt x="119" y="1557" on="1"/>
        <pt x="182" y="1557" on="0"/>
        <pt x="191" y="1514" on="1"/>
        <pt x="184" y="1441" on="0"/>
        <pt x="184" y="1360" on="1"/>
        <pt x="198" y="939" on="1"/>
        <pt x="196" y="862" on="1"/>
        <pt x="196" y="833" on="0"/>
        <pt x="200" y="809" on="1"/>
      </contour>
    </TTGlyph>
    <TTGlyph name="Hbar" xMin="85" yMin="-31" xMax="525" yMax="1550">
      <contour>
        <pt x="393" y="824" on="1"/>
        <pt x="375" y="1496" on="1"/>
        <pt x="375" y="1550" on="1"/>
        <pt x="467" y="1550" on="0"/>
        <pt x="482" y="1450" on="1"/>
        <pt x="485" y="1426" on="0"/>
        <pt x="485" y="1168" on="0"/>
        <pt x="523" y="267" on="0"/>
        <pt x="523" y="43" on="1"/>
        <pt x="523" y="16" on="0"/>
        <pt x="489" y="-31" on="0"/>
        <pt x="463" y="-31" on="1"/>
        <pt x="411" y="-31" on="0"/>
        <pt x="411" y="37" on="1"/>
        <pt x="411" y="419" on="0"/>
        <pt x="394" y="759" on="1"/>
        <pt x="339" y="769" on="0"/>
        <pt x="247" y="769" on="0"/>
        <pt x="211" y="753" on="1"/>
        <pt x="212" y="641" on="0"/>
        <pt x="245" y="178" on="0"/>
        <pt x="245" y="59" on="1"/>
        <pt x="245" y="39" on="0"/>
        <pt x="221" y="5" on="0"/>
        <pt x="201" y="5" on="1"/>
        <pt x="168" y="5" on="0"/>
        <pt x="135" y="60" on="0"/>
        <pt x="126" y="295" on="0"/>
        <pt x="124" y="575" on="0"/>
        <pt x="122" y="602" on="1"/>
        <pt x="85" y="1134" on="0"/>
        <pt x="85" y="1510" on="1"/>
        <pt x="85" y="1525" on="1"/>
        <pt x="192" y="1525" on="1"/>
        <pt x="185" y="1452" on="0"/>
        <pt x="185" y="1360" on="1"/>
        <pt x="199" y="939" on="1"/>
        <pt x="197" y="862" on="1"/>
        <pt x="197" y="833" on="0"/>
        <pt x="201" y="809" on="1"/>
      </contour>
      <contour>
        <pt x="180" y="994" on="1"/>
        <pt x="319" y="998" on="1"/>
        <pt x="525" y="998" on="0"/>
        <pt x="525" y="943" on="1"/>
        <pt x="525" y="898" on="0"/>
        <pt x="459" y="898" on="1"/>
        <pt x="313" y="894" on="1"/>
        <pt x="90" y="894" on="0"/>
        <pt x="90" y="950" on="1"/>
        <pt x="90" y="994" on="0"/>
      </contour>
    </TTGlyph>
    <TTGlyph name="Hcircumflex" xMin="84" yMin="-31" xMax="522" yMax="2119">
      <component glyphName="circumflex" x="56" y="760" flags="0x1004"/>
      <component glyphName="H" x="0" y="0" flags="0x1204"/>
    </TTGlyph>
    <TTGlyph name="I" xMin="62" yMin="19" xMax="429" yMax="1553">
      <contour>
        <pt x="304" y="115" on="1"/>
        <pt x="346" y="116" on="1"/>
        <pt x="429" y="116" on="0"/>
        <pt x="429" y="82" on="1"/>
        <pt x="437" y="48" on="0"/>
        <pt x="406" y="19" on="0"/>
        <pt x="378" y="19" on="1"/>
        <pt x="121" y="19" on="1"/>
        <pt x="62" y="19" on="0"/>
        <pt x="62" y="113" on="0"/>
        <pt x="124" y="113" on="1"/>
        <pt x="187" y="112" on="1"/>
        <pt x="197" y="112" on="0"/>
        <pt x="197" y="316" on="0"/>
        <pt x="159" y="947" on="0"/>
        <pt x="159" y="1105" on="1"/>
        <pt x="159" y="1105" on="0"/>
        <pt x="163" y="1314" on="1"/>
        <pt x="163" y="1380" on="0"/>
        <pt x="158" y="1428" on="1"/>
        <pt x="131" y="1419" on="0"/>
        <pt x="110" y="1419" on="1"/>
        <pt x="62" y="1419" on="0"/>
        <pt x="62" y="1468" on="1"/>
        <pt x="62" y="1493" on="0"/>
        <pt x="124" y="1530" on="0"/>
        <pt x="170" y="1538" on="1"/>
        <pt x="256" y="1553" on="0"/>
        <pt x="339" y="1553" on="0"/>
        <pt x="375" y="1520" on="0"/>
        <pt x="375" y="1475" on="0"/>
        <pt x="348" y="1442" on="0"/>
        <pt x="327" y="1442" on="1"/>
        <pt x="291" y="1443" on="1"/>
        <pt x="271" y="1443" on="0"/>
        <pt x="252" y="1426" on="0"/>
        <pt x="252" y="1401" on="1"/>
        <pt x="252" y="1201" on="0"/>
        <pt x="304" y="403" on="0"/>
        <pt x="304" y="203" on="1"/>
      </contour>
    </TTGlyph>
    <TTGlyph name="IJ" xMin="62" yMin="-194" xMax="842" yMax="1553">
      <component glyphName="J" x="432" y="0" flags="0x1004"/>
      <component glyphName="I" x="0" y="0" flags="0x1004"/>
    </TTGlyph>
    <TTGlyph name="Iacute" xMin="61" yMin="10" xMax="462" yMax="1978">
      <contour>
        <pt x="185" y="1690" on="1"/>
        <pt x="116" y="1690" on="0"/>
        <pt x="116" y="1744" on="1"/>
        <pt x="116" y="1746" on="1"/>
        <pt x="118" y="1786" on="0"/>
        <pt x="298" y="1914" on="1"/>
        <pt x="369" y="1964" on="0"/>
        <pt x="384" y="1978" on="1"/>
        <pt x="462" y="1978" on="0"/>
        <pt x="462" y="1922" on="1"/>
        <pt x="462" y="1921" on="0"/>
        <pt x="453" y="1873" on="1"/>
        <pt x="387" y="1846" on="0"/>
        <pt x="234" y="1741" on="0"/>
      </contour>
      <contour>
        <pt x="377" y="10" on="1"/>
        <pt x="303" y="20" on="1"/>
        <pt x="303" y="21" on="1"/>
        <pt x="266" y="21" on="1"/>
        <pt x="256" y="21" on="0"/>
        <pt x="240" y="16" on="1"/>
        <pt x="209" y="5" on="0"/>
        <pt x="190" y="14" on="1"/>
        <pt x="61" y="14" on="0"/>
        <pt x="61" y="115" on="0"/>
        <pt x="123" y="115" on="1"/>
        <pt x="166" y="112" on="1"/>
        <pt x="196" y="112" on="0"/>
        <pt x="196" y="160" on="1"/>
        <pt x="196" y="318" on="0"/>
        <pt x="158" y="949" on="0"/>
        <pt x="158" y="1107" on="1"/>
        <pt x="162" y="1316" on="1"/>
        <pt x="162" y="1382" on="0"/>
        <pt x="157" y="1430" on="1"/>
        <pt x="130" y="1421" on="0"/>
        <pt x="109" y="1421" on="1"/>
        <pt x="61" y="1421" on="0"/>
        <pt x="61" y="1470" on="1"/>
        <pt x="61" y="1495" on="0"/>
        <pt x="123" y="1532" on="0"/>
        <pt x="169" y="1540" on="1"/>
        <pt x="255" y="1555" on="0"/>
        <pt x="338" y="1555" on="0"/>
        <pt x="374" y="1522" on="0"/>
        <pt x="374" y="1477" on="0"/>
        <pt x="347" y="1444" on="0"/>
        <pt x="326" y="1444" on="1"/>
        <pt x="290" y="1445" on="1"/>
        <pt x="270" y="1445" on="0"/>
        <pt x="251" y="1428" on="0"/>
        <pt x="251" y="1403" on="1"/>
        <pt x="251" y="1203" on="0"/>
        <pt x="303" y="405" on="0"/>
        <pt x="303" y="205" on="1"/>
        <pt x="303" y="126" on="1"/>
        <pt x="324" y="129" on="0"/>
        <pt x="343" y="129" on="1"/>
        <pt x="428" y="129" on="0"/>
        <pt x="428" y="57" on="1"/>
        <pt x="428" y="45" on="1"/>
      </contour>
    </TTGlyph>
    <TTGlyph name="Ibreve" xMin="23" yMin="19" xMax="429" yMax="1962">
      <component glyphName="breve" x="-72" y="820" flags="0x1004"/>
      <component glyphName="I" x="0" y="0" flags="0x1204"/>
    </TTGlyph>
    <TTGlyph name="Icircumflex" xMin="43" yMin="8" xMax="454" yMax="2124">
      <contour>
        <pt x="403" y="8" on="1"/>
        <pt x="329" y="18" on="1"/>
        <pt x="329" y="19" on="1"/>
        <pt x="292" y="19" on="1"/>
        <pt x="282" y="19" on="0"/>
        <pt x="266" y="14" on="1"/>
        <pt x="235" y="3" on="0"/>
        <pt x="216" y="12" on="1"/>
        <pt x="87" y="12" on="0"/>
        <pt x="87" y="113" on="0"/>
        <pt x="149" y="113" on="1"/>
        <pt x="192" y="110" on="1"/>
        <pt x="222" y="110" on="0"/>
        <pt x="222" y="158" on="1"/>
        <pt x="222" y="316" on="0"/>
        <pt x="184" y="947" on="0"/>
        <pt x="184" y="1105" on="1"/>
        <pt x="188" y="1314" on="1"/>
        <pt x="188" y="1380" on="0"/>
        <pt x="183" y="1428" on="1"/>
        <pt x="156" y="1419" on="0"/>
        <pt x="135" y="1419" on="1"/>
        <pt x="87" y="1419" on="0"/>
        <pt x="87" y="1468" on="1"/>
        <pt x="87" y="1493" on="0"/>
        <pt x="149" y="1530" on="0"/>
        <pt x="195" y="1538" on="1"/>
        <pt x="281" y="1553" on="0"/>
        <pt x="364" y="1553" on="0"/>
        <pt x="400" y="1520" on="0"/>
        <pt x="400" y="1475" on="0"/>
        <pt x="373" y="1442" on="0"/>
        <pt x="352" y="1442" on="1"/>
        <pt x="316" y="1443" on="1"/>
        <pt x="296" y="1443" on="0"/>
        <pt x="277" y="1426" on="0"/>
        <pt x="277" y="1401" on="1"/>
        <pt x="277" y="1201" on="0"/>
        <pt x="329" y="403" on="0"/>
        <pt x="329" y="203" on="1"/>
        <pt x="329" y="124" on="1"/>
        <pt x="350" y="127" on="0"/>
        <pt x="369" y="127" on="1"/>
        <pt x="454" y="127" on="0"/>
        <pt x="454" y="55" on="1"/>
        <pt x="454" y="43" on="1"/>
      </contour>
      <contour>
        <pt x="354" y="1767" on="1"/>
        <pt x="372" y="1742" on="1"/>
        <pt x="372" y="1719" on="0"/>
        <pt x="331" y="1692" on="0"/>
        <pt x="307" y="1692" on="1"/>
        <pt x="263" y="1692" on="1"/>
        <pt x="246" y="1863" on="0"/>
        <pt x="223" y="1958" on="1"/>
        <pt x="215" y="1934" on="0"/>
        <pt x="187" y="1843" on="0"/>
        <pt x="178" y="1818" on="1"/>
        <pt x="155" y="1750" on="0"/>
        <pt x="110" y="1693" on="1"/>
        <pt x="43" y="1741" on="1"/>
        <pt x="47" y="1779" on="0"/>
        <pt x="111" y="1959" on="0"/>
        <pt x="206" y="2124" on="0"/>
        <pt x="240" y="2124" on="1"/>
        <pt x="292" y="2124" on="0"/>
        <pt x="292" y="2057" on="1"/>
        <pt x="292" y="2012" on="0"/>
        <pt x="354" y="1854" on="0"/>
        <pt x="354" y="1819" on="1"/>
      </contour>
    </TTGlyph>
    <TTGlyph name="Idieresis" xMin="45" yMin="7" xMax="606" yMax="1834">
      <contour>
        <pt x="522" y="7" on="1"/>
        <pt x="448" y="17" on="1"/>
        <pt x="448" y="18" on="1"/>
        <pt x="411" y="18" on="1"/>
        <pt x="401" y="18" on="0"/>
        <pt x="384" y="12" on="1"/>
        <pt x="354" y="2" on="0"/>
        <pt x="335" y="11" on="1"/>
        <pt x="206" y="11" on="0"/>
        <pt x="206" y="112" on="0"/>
        <pt x="268" y="112" on="1"/>
        <pt x="311" y="109" on="1"/>
        <pt x="341" y="109" on="0"/>
        <pt x="341" y="157" on="1"/>
        <pt x="341" y="315" on="0"/>
        <pt x="303" y="946" on="0"/>
        <pt x="303" y="1104" on="1"/>
        <pt x="307" y="1313" on="1"/>
        <pt x="307" y="1379" on="0"/>
        <pt x="302" y="1427" on="1"/>
        <pt x="275" y="1418" on="0"/>
        <pt x="254" y="1418" on="1"/>
        <pt x="206" y="1418" on="0"/>
        <pt x="206" y="1467" on="1"/>
        <pt x="206" y="1492" on="0"/>
        <pt x="268" y="1529" on="0"/>
        <pt x="314" y="1537" on="1"/>
        <pt x="400" y="1552" on="0"/>
        <pt x="483" y="1552" on="0"/>
        <pt x="519" y="1519" on="0"/>
        <pt x="519" y="1474" on="0"/>
        <pt x="492" y="1441" on="0"/>
        <pt x="471" y="1441" on="1"/>
        <pt x="435" y="1442" on="1"/>
        <pt x="415" y="1442" on="0"/>
        <pt x="396" y="1425" on="0"/>
        <pt x="396" y="1400" on="1"/>
        <pt x="396" y="1200" on="0"/>
        <pt x="448" y="402" on="0"/>
        <pt x="448" y="202" on="1"/>
        <pt x="448" y="123" on="1"/>
        <pt x="469" y="126" on="0"/>
        <pt x="488" y="126" on="1"/>
        <pt x="573" y="126" on="0"/>
        <pt x="573" y="54" on="1"/>
        <pt x="573" y="42" on="1"/>
      </contour>
      <contour>
        <pt x="503" y="1690" on="0"/>
        <pt x="465" y="1732" on="0"/>
        <pt x="465" y="1788" on="0"/>
        <pt x="509" y="1834" on="0"/>
        <pt x="565" y="1834" on="0"/>
        <pt x="606" y="1789" on="0"/>
        <pt x="606" y="1730" on="0"/>
        <pt x="560" y="1690" on="0"/>
      </contour>
      <contour>
        <pt x="186" y="1732" on="0"/>
        <pt x="135" y="1690" on="0"/>
        <pt x="77" y="1690" on="0"/>
        <pt x="45" y="1729" on="0"/>
        <pt x="45" y="1788" on="0"/>
        <pt x="85" y="1831" on="0"/>
        <pt x="144" y="1831" on="0"/>
        <pt x="186" y="1791" on="0"/>
      </contour>
    </TTGlyph>
    <TTGlyph name="Idotaccent" xMin="62" yMin="19" xMax="429" yMax="1839">
      <component glyphName="uni0307" x="27" y="297" flags="0x1004"/>
      <component glyphName="I" x="0" y="0" flags="0x1204"/>
    </TTGlyph>
    <TTGlyph name="Igrave" xMin="45" yMin="7" xMax="623" yMax="1891">
      <contour>
        <pt x="572" y="7" on="1"/>
        <pt x="498" y="17" on="1"/>
        <pt x="498" y="18" on="1"/>
        <pt x="461" y="18" on="1"/>
        <pt x="451" y="18" on="0"/>
        <pt x="434" y="12" on="1"/>
        <pt x="404" y="2" on="0"/>
        <pt x="385" y="11" on="1"/>
        <pt x="256" y="11" on="0"/>
        <pt x="256" y="112" on="0"/>
        <pt x="318" y="112" on="1"/>
        <pt x="361" y="109" on="1"/>
        <pt x="391" y="109" on="0"/>
        <pt x="391" y="157" on="1"/>
        <pt x="391" y="315" on="0"/>
        <pt x="353" y="946" on="0"/>
        <pt x="353" y="1104" on="1"/>
        <pt x="357" y="1313" on="1"/>
        <pt x="357" y="1379" on="0"/>
        <pt x="352" y="1427" on="1"/>
        <pt x="325" y="1418" on="0"/>
        <pt x="304" y="1418" on="1"/>
        <pt x="256" y="1418" on="0"/>
        <pt x="256" y="1467" on="1"/>
        <pt x="256" y="1492" on="0"/>
        <pt x="318" y="1529" on="0"/>
        <pt x="364" y="1537" on="1"/>
        <pt x="450" y="1552" on="0"/>
        <pt x="533" y="1552" on="0"/>
        <pt x="569" y="1519" on="0"/>
        <pt x="569" y="1474" on="0"/>
        <pt x="542" y="1441" on="0"/>
        <pt x="521" y="1441" on="1"/>
        <pt x="485" y="1442" on="1"/>
        <pt x="465" y="1442" on="0"/>
        <pt x="446" y="1425" on="0"/>
        <pt x="446" y="1400" on="1"/>
        <pt x="446" y="1200" on="0"/>
        <pt x="498" y="402" on="0"/>
        <pt x="498" y="202" on="1"/>
        <pt x="498" y="123" on="1"/>
        <pt x="519" y="126" on="0"/>
        <pt x="538" y="126" on="1"/>
        <pt x="623" y="126" on="0"/>
        <pt x="623" y="54" on="1"/>
        <pt x="623" y="42" on="1"/>
      </contour>
      <contour>
        <pt x="169" y="1763" on="1"/>
        <pt x="149" y="1761" on="0"/>
        <pt x="134" y="1761" on="1"/>
        <pt x="45" y="1761" on="0"/>
        <pt x="45" y="1823" on="1"/>
        <pt x="45" y="1874" on="0"/>
        <pt x="73" y="1891" on="1"/>
        <pt x="142" y="1891" on="0"/>
        <pt x="178" y="1873" on="0"/>
        <pt x="191" y="1865" on="0"/>
        <pt x="271" y="1839" on="0"/>
        <pt x="322" y="1819" on="0"/>
        <pt x="356" y="1803" on="1"/>
        <pt x="427" y="1770" on="0"/>
        <pt x="427" y="1730" on="1"/>
        <pt x="427" y="1713" on="0"/>
        <pt x="397" y="1690" on="0"/>
        <pt x="370" y="1690" on="0"/>
        <pt x="329" y="1702" on="0"/>
        <pt x="274" y="1722" on="0"/>
        <pt x="229" y="1739" on="0"/>
        <pt x="175" y="1761" on="0"/>
      </contour>
    </TTGlyph>
    <TTGlyph name="Imacron" xMin="-11" yMin="19" xMax="431" yMax="1791">
      <component glyphName="macron" x="-117" y="987" flags="0x1004"/>
      <component glyphName="I" x="0" y="0" flags="0x1204"/>
    </TTGlyph>
    <TTGlyph name="Iogonek" xMin="62" yMin="-377" xMax="429" yMax="1553">
      <component glyphName="ogonek" x="45" y="-11" flags="0x1004"/>
      <component glyphName="I" x="0" y="0" flags="0x1204"/>
    </TTGlyph>
    <TTGlyph name="Itilde" xMin="-34" yMin="19" xMax="447" yMax="1915">
      <component glyphName="tilde" x="-127" y="691" flags="0x1004"/>
      <component glyphName="I" x="0" y="0" flags="0x1204"/>
    </TTGlyph>
    <TTGlyph name="J" xMin="47" yMin="-194" xMax="410" yMax="1553">
      <contour>
        <pt x="319" y="1429" on="1"/>
        <pt x="315" y="1112" on="1"/>
        <pt x="315" y="979" on="0"/>
        <pt x="352" y="448" on="0"/>
        <pt x="352" y="120" on="0"/>
        <pt x="264" y="-115" on="0"/>
        <pt x="153" y="-194" on="1"/>
        <pt x="121" y="-194" on="0"/>
        <pt x="79" y="-162" on="0"/>
        <pt x="79" y="-106" on="0"/>
        <pt x="130" y="-60" on="0"/>
        <pt x="159" y="-48" on="1"/>
        <pt x="241" y="55" on="0"/>
        <pt x="241" y="241" on="1"/>
        <pt x="241" y="343" on="0"/>
        <pt x="220" y="723" on="0"/>
        <pt x="217" y="856" on="0"/>
        <pt x="215" y="1063" on="0"/>
        <pt x="214" y="1128" on="1"/>
        <pt x="211" y="1301" on="0"/>
        <pt x="188" y="1445" on="1"/>
        <pt x="181" y="1444" on="0"/>
        <pt x="161" y="1439" on="1"/>
        <pt x="121" y="1429" on="0"/>
        <pt x="78" y="1429" on="0"/>
        <pt x="47" y="1460" on="0"/>
        <pt x="47" y="1481" on="1"/>
        <pt x="47" y="1553" on="0"/>
        <pt x="292" y="1553" on="1"/>
        <pt x="410" y="1553" on="0"/>
        <pt x="410" y="1441" on="0"/>
        <pt x="319" y="1444" on="1"/>
      </contour>
    </TTGlyph>
    <TTGlyph name="Jcircumflex" xMin="47" yMin="-194" xMax="410" yMax="2119">
      <component glyphName="circumflex" x="-19" y="760" flags="0x1004"/>
      <component glyphName="J" x="0" y="0" flags="0x1204"/>
    </TTGlyph>
    <TTGlyph name="K" xMin="93" yMin="-48" xMax="631" yMax="1596">
      <contour>
        <pt x="120" y="660" on="1"/>
        <pt x="123" y="1049" on="1"/>
        <pt x="123" y="1272" on="0"/>
        <pt x="110" y="1380" on="0"/>
        <pt x="93" y="1457" on="0"/>
        <pt x="93" y="1502" on="0"/>
        <pt x="126" y="1541" on="0"/>
        <pt x="151" y="1541" on="1"/>
        <pt x="227" y="1541" on="0"/>
        <pt x="227" y="1375" on="1"/>
        <pt x="227" y="1374" on="0"/>
        <pt x="218" y="954" on="1"/>
        <pt x="225" y="972" on="0"/>
        <pt x="287" y="1136" on="0"/>
        <pt x="353" y="1306" on="0"/>
        <pt x="390" y="1394" on="1"/>
        <pt x="476" y="1596" on="0"/>
        <pt x="513" y="1596" on="1"/>
        <pt x="536" y="1596" on="0"/>
        <pt x="571" y="1565" on="0"/>
        <pt x="571" y="1522" on="0"/>
        <pt x="347" y="1054" on="0"/>
        <pt x="334" y="991" on="1"/>
        <pt x="334" y="955" on="1"/>
        <pt x="364" y="876" on="0"/>
        <pt x="631" y="37" on="0"/>
        <pt x="631" y="-14" on="0"/>
        <pt x="591" y="-48" on="0"/>
        <pt x="566" y="-48" on="1"/>
        <pt x="518" y="-40" on="1"/>
        <pt x="468" y="253" on="0"/>
        <pt x="364" y="684" on="0"/>
        <pt x="278" y="880" on="1"/>
        <pt x="221" y="771" on="0"/>
        <pt x="217" y="748" on="1"/>
        <pt x="210" y="695" on="0"/>
        <pt x="210" y="650" on="1"/>
        <pt x="223" y="270" on="1"/>
        <pt x="223" y="-7" on="0"/>
        <pt x="153" y="-7" on="1"/>
        <pt x="93" y="-7" on="0"/>
        <pt x="93" y="200" on="0"/>
        <pt x="120" y="568" on="0"/>
      </contour>
    </TTGlyph>
    <TTGlyph name="Kcommaaccent" xMin="93" yMin="-536" xMax="631" yMax="1596">
      <component glyphName="uni0326" x="214" y="24" flags="0x1004"/>
      <component glyphName="K" x="0" y="0" flags="0x1204"/>
    </TTGlyph>
    <TTGlyph name="L" xMin="88" yMin="-23" xMax="431" yMax="1571">
      <contour>
        <pt x="200" y="1512" on="1"/>
        <pt x="221" y="775" on="1"/>
        <pt x="221" y="739" on="0"/>
        <pt x="217" y="710" on="1"/>
        <pt x="217" y="701" on="1"/>
        <pt x="220" y="642" on="0"/>
        <pt x="226" y="533" on="1"/>
        <pt x="241" y="290" on="0"/>
        <pt x="241" y="167" on="1"/>
        <pt x="241" y="102" on="1"/>
        <pt x="387" y="102" on="1"/>
        <pt x="421" y="82" on="0"/>
        <pt x="431" y="64" on="0"/>
        <pt x="431" y="31" on="0"/>
        <pt x="401" y="-4" on="0"/>
        <pt x="369" y="-4" on="0"/>
        <pt x="348" y="3" on="1"/>
        <pt x="331" y="-1" on="0"/>
        <pt x="309" y="-1" on="1"/>
        <pt x="243" y="2" on="1"/>
        <pt x="222" y="-23" on="0"/>
        <pt x="159" y="-23" on="0"/>
        <pt x="116" y="16" on="0"/>
        <pt x="116" y="42" on="1"/>
        <pt x="116" y="42" on="0"/>
        <pt x="129" y="132" on="1"/>
        <pt x="129" y="365" on="0"/>
        <pt x="88" y="1296" on="0"/>
        <pt x="88" y="1529" on="1"/>
        <pt x="88" y="1548" on="0"/>
        <pt x="118" y="1571" on="0"/>
        <pt x="163" y="1571" on="0"/>
        <pt x="200" y="1537" on="0"/>
      </contour>
    </TTGlyph>
    <TTGlyph name="Lacute" xMin="88" yMin="-23" xMax="516" yMax="1975">
      <component glyphName="acute" x="80" y="402" flags="0x1004"/>
      <component glyphName="L" x="0" y="0" flags="0x1204"/>
    </TTGlyph>
    <TTGlyph name="Lcaron" xMin="88" yMin="-23" xMax="804" yMax="1585">
      <component glyphName="comma" x="472" y="1401" flags="0x1004"/>
      <component glyphName="L" x="0" y="0" flags="0x1004"/>
    </TTGlyph>
    <TTGlyph name="Lcommaaccent" xMin="88" yMin="-511" xMax="431" yMax="1571">
      <component glyphName="uni0326" x="25" y="49" flags="0x1004"/>
      <component glyphName="L" x="0" y="0" flags="0x1204"/>
    </TTGlyph>
    <TTGlyph name="Ldot" xMin="88" yMin="-23" xMax="431" yMax="1571">
      <component glyphName="periodcentered" x="96" y="72" flags="0x1004"/>
      <component glyphName="L" x="0" y="0" flags="0x1204"/>
    </TTGlyph>
    <TTGlyph name="Lslash" xMin="63" yMin="-23" xMax="505" yMax="1571">
      <component glyphName="L" x="7" y="0" flags="0x1004"/>
      <component glyphName="hyphen" x="-41" y="0" flags="0x1004"/>
    </TTGlyph>
    <TTGlyph name="M" xMin="106" yMin="-23" xMax="745" yMax="1587">
      <contour>
        <pt x="423" y="424" on="1"/>
        <pt x="561" y="1209" on="0"/>
        <pt x="593" y="1517" on="1"/>
        <pt x="593" y="1529" on="1"/>
        <pt x="598" y="1556" on="0"/>
        <pt x="641" y="1587" on="0"/>
        <pt x="684" y="1587" on="0"/>
        <pt x="695" y="1579" on="1"/>
        <pt x="719" y="1562" on="0"/>
        <pt x="719" y="1535" on="1"/>
        <pt x="719" y="1292" on="0"/>
        <pt x="745" y="322" on="0"/>
        <pt x="745" y="79" on="1"/>
        <pt x="745" y="18" on="0"/>
        <pt x="704" y="-17" on="1"/>
        <pt x="682" y="-32" on="0"/>
        <pt x="677" y="-23" on="1"/>
        <pt x="636" y="-34" on="0"/>
        <pt x="631" y="-6" on="1"/>
        <pt x="629" y="6" on="0"/>
        <pt x="629" y="24" on="1"/>
        <pt x="629" y="24" on="0"/>
        <pt x="630" y="57" on="1"/>
        <pt x="626" y="213" on="0"/>
        <pt x="626" y="389" on="0"/>
        <pt x="629" y="699" on="0"/>
        <pt x="627" y="1132" on="1"/>
        <pt x="616" y="1068" on="0"/>
        <pt x="545" y="713" on="0"/>
        <pt x="519" y="552" on="0"/>
        <pt x="503" y="444" on="0"/>
        <pt x="488" y="359" on="0"/>
        <pt x="477" y="315" on="1"/>
        <pt x="454" y="222" on="0"/>
        <pt x="411" y="222" on="1"/>
        <pt x="347" y="222" on="0"/>
        <pt x="347" y="413" on="1"/>
        <pt x="335" y="511" on="0"/>
        <pt x="227" y="1100" on="0"/>
        <pt x="209" y="1210" on="1"/>
        <pt x="207" y="1020" on="0"/>
        <pt x="207" y="925" on="1"/>
        <pt x="224" y="73" on="1"/>
        <pt x="224" y="29" on="0"/>
        <pt x="193" y="-4" on="1"/>
        <pt x="142" y="-4" on="0"/>
        <pt x="106" y="64" on="0"/>
        <pt x="106" y="122" on="1"/>
        <pt x="113" y="464" on="1"/>
        <pt x="106" y="1257" on="1"/>
        <pt x="106" y="1390" on="0"/>
        <pt x="109" y="1522" on="1"/>
        <pt x="166" y="1554" on="1"/>
        <pt x="223" y="1548" on="0"/>
        <pt x="293" y="1194" on="1"/>
        <pt x="349" y="914" on="0"/>
        <pt x="420" y="442" on="0"/>
      </contour>
    </TTGlyph>
    <TTGlyph name="N" xMin="93" yMin="-21" xMax="660" yMax="1596">
      <contour>
        <pt x="647" y="1444" on="1"/>
        <pt x="639" y="687" on="1"/>
        <pt x="639" y="61" on="1"/>
        <pt x="639" y="12" on="0"/>
        <pt x="599" y="-10" on="1"/>
        <pt x="578" y="-21" on="0"/>
        <pt x="533" y="-21" on="0"/>
        <pt x="510" y="-7" on="0"/>
        <pt x="498" y="13" on="0"/>
        <pt x="489" y="43" on="0"/>
        <pt x="487" y="56" on="1"/>
        <pt x="476" y="129" on="0"/>
        <pt x="411" y="362" on="1"/>
        <pt x="285" y="810" on="0"/>
        <pt x="250" y="1037" on="1"/>
        <pt x="248" y="1044" on="0"/>
        <pt x="247" y="1068" on="0"/>
        <pt x="246" y="1076" on="1"/>
        <pt x="245" y="1098" on="0"/>
        <pt x="235" y="1112" on="1"/>
        <pt x="236" y="1154" on="0"/>
        <pt x="199" y="1285" on="0"/>
        <pt x="197" y="1298" on="1"/>
        <pt x="197" y="2" on="1"/>
        <pt x="125" y="2" on="1"/>
        <pt x="125" y="40" on="1"/>
        <pt x="129" y="55" on="0"/>
        <pt x="119" y="151" on="0"/>
        <pt x="119" y="283" on="0"/>
        <pt x="93" y="759" on="0"/>
        <pt x="93" y="812" on="1"/>
        <pt x="93" y="1073" on="1"/>
        <pt x="107" y="1449" on="1"/>
        <pt x="107" y="1525" on="0"/>
        <pt x="118" y="1534" on="1"/>
        <pt x="144" y="1554" on="0"/>
        <pt x="200" y="1554" on="0"/>
        <pt x="215" y="1546" on="1"/>
        <pt x="250" y="1527" on="0"/>
        <pt x="250" y="1459" on="0"/>
        <pt x="266" y="1392" on="0"/>
        <pt x="296" y="1309" on="0"/>
        <pt x="308" y="1265" on="0"/>
        <pt x="317" y="1207" on="0"/>
        <pt x="319" y="1184" on="1"/>
        <pt x="326" y="1107" on="0"/>
        <pt x="347" y="995" on="0"/>
        <pt x="407" y="774" on="0"/>
        <pt x="434" y="689" on="1"/>
        <pt x="502" y="471" on="0"/>
        <pt x="511" y="298" on="1"/>
        <pt x="527" y="268" on="0"/>
        <pt x="531" y="225" on="1"/>
        <pt x="537" y="939" on="1"/>
        <pt x="537" y="1545" on="1"/>
        <pt x="549" y="1596" on="0"/>
        <pt x="660" y="1596" on="0"/>
        <pt x="660" y="1516" on="1"/>
        <pt x="660" y="1504" on="1"/>
        <pt x="647" y="1477" on="0"/>
      </contour>
    </TTGlyph>
    <TTGlyph name="Nacute" xMin="93" yMin="-21" xMax="671" yMax="1986">
      <component glyphName="acute" x="235" y="413" flags="0x1004"/>
      <component glyphName="N" x="0" y="0" flags="0x1204"/>
    </TTGlyph>
    <TTGlyph name="Ncaron" xMin="93" yMin="-21" xMax="660" yMax="2126">
      <component glyphName="caron" x="125" y="770" flags="0x1004"/>
      <component glyphName="N" x="0" y="0" flags="0x1204"/>
    </TTGlyph>
    <TTGlyph name="Ncommaaccent" xMin="93" yMin="-509" xMax="660" yMax="1596">
      <component glyphName="uni0326" x="272" y="51" flags="0x1004"/>
      <component glyphName="N" x="0" y="0" flags="0x1204"/>
    </TTGlyph>
    <TTGlyph name="Ntilde" xMin="93" yMin="-21" xMax="689" yMax="1924">
      <contour>
        <pt x="676" y="1444" on="1"/>
        <pt x="668" y="687" on="1"/>
        <pt x="668" y="61" on="1"/>
        <pt x="668" y="26" on="0"/>
        <pt x="622" y="-21" on="0"/>
        <pt x="554" y="-21" on="0"/>
        <pt x="523" y="10" on="0"/>
        <pt x="514" y="44" on="0"/>
        <pt x="505" y="103" on="0"/>
        <pt x="477" y="205" on="0"/>
        <pt x="418" y="400" on="1"/>
        <pt x="297" y="792" on="0"/>
        <pt x="254" y="1037" on="1"/>
        <pt x="253" y="1044" on="0"/>
        <pt x="252" y="1061" on="1"/>
        <pt x="250" y="1097" on="0"/>
        <pt x="238" y="1112" on="1"/>
        <pt x="239" y="1154" on="0"/>
        <pt x="200" y="1285" on="0"/>
        <pt x="197" y="1298" on="1"/>
        <pt x="197" y="2" on="1"/>
        <pt x="125" y="2" on="1"/>
        <pt x="125" y="40" on="1"/>
        <pt x="129" y="55" on="0"/>
        <pt x="119" y="151" on="0"/>
        <pt x="119" y="283" on="0"/>
        <pt x="93" y="759" on="0"/>
        <pt x="93" y="812" on="1"/>
        <pt x="93" y="1073" on="1"/>
        <pt x="107" y="1449" on="1"/>
        <pt x="107" y="1525" on="0"/>
        <pt x="118" y="1534" on="1"/>
        <pt x="144" y="1554" on="0"/>
        <pt x="210" y="1554" on="0"/>
        <pt x="254" y="1518" on="0"/>
        <pt x="254" y="1459" on="0"/>
        <pt x="272" y="1392" on="0"/>
        <pt x="305" y="1309" on="0"/>
        <pt x="322" y="1250" on="0"/>
        <pt x="338" y="1105" on="0"/>
        <pt x="363" y="978" on="0"/>
        <pt x="457" y="683" on="0"/>
        <pt x="530" y="414" on="0"/>
        <pt x="538" y="298" on="1"/>
        <pt x="556" y="268" on="0"/>
        <pt x="559" y="225" on="1"/>
        <pt x="566" y="939" on="1"/>
        <pt x="566" y="1545" on="1"/>
        <pt x="578" y="1596" on="0"/>
        <pt x="689" y="1596" on="0"/>
        <pt x="689" y="1516" on="1"/>
        <pt x="689" y="1504" on="1"/>
        <pt x="676" y="1477" on="0"/>
      </contour>
      <contour>
        <pt x="497" y="1846" on="1"/>
        <pt x="484" y="1891" on="1"/>
        <pt x="500" y="1923" on="0"/>
        <pt x="562" y="1923" on="0"/>
        <pt x="598" y="1865" on="0"/>
        <pt x="598" y="1776" on="0"/>
        <pt x="520" y="1697" on="0"/>
        <pt x="429" y="1697" on="0"/>
        <pt x="353" y="1740" on="0"/>
        <pt x="307" y="1785" on="0"/>
        <pt x="275" y="1823" on="1"/>
        <pt x="275" y="1825" on="1"/>
        <pt x="223" y="1794" on="1"/>
        <pt x="223" y="1696" on="1"/>
        <pt x="189" y="1696" on="0"/>
        <pt x="125" y="1727" on="0"/>
        <pt x="125" y="1755" on="1"/>
        <pt x="125" y="1824" on="0"/>
        <pt x="205" y="1924" on="0"/>
        <pt x="272" y="1924" on="1"/>
        <pt x="372" y="1872" on="1"/>
        <pt x="381" y="1848" on="0"/>
        <pt x="424" y="1800" on="0"/>
        <pt x="445" y="1800" on="1"/>
        <pt x="445" y="1801" on="1"/>
        <pt x="451" y="1807" on="0"/>
        <pt x="466" y="1814" on="1"/>
        <pt x="497" y="1828" on="0"/>
      </contour>
    </TTGlyph>
    <TTGlyph name="O" xMin="81" yMin="-57" xMax="599" yMax="1585">
      <contour>
        <pt x="399" y="1420" on="0"/>
        <pt x="340" y="1477" on="0"/>
        <pt x="285" y="1477" on="0"/>
        <pt x="251" y="1449" on="0"/>
        <pt x="227" y="1393" on="0"/>
        <pt x="207" y="1330" on="0"/>
        <pt x="194" y="1239" on="0"/>
        <pt x="184" y="1165" on="0"/>
        <pt x="178" y="1063" on="0"/>
        <pt x="174" y="999" on="0"/>
        <pt x="173" y="909" on="0"/>
        <pt x="173" y="894" on="1"/>
        <pt x="173" y="852" on="1"/>
        <pt x="173" y="687" on="0"/>
        <pt x="204" y="474" on="1"/>
        <pt x="266" y="55" on="0"/>
        <pt x="379" y="55" on="1"/>
        <pt x="419" y="55" on="0"/>
        <pt x="475" y="208" on="0"/>
        <pt x="486" y="323" on="1"/>
        <pt x="506" y="518" on="0"/>
        <pt x="506" y="693" on="0"/>
        <pt x="505" y="769" on="0"/>
        <pt x="500" y="914" on="0"/>
        <pt x="488" y="1041" on="0"/>
        <pt x="470" y="1195" on="0"/>
        <pt x="439" y="1315" on="0"/>
      </contour>
      <contour>
        <pt x="599" y="618" on="1"/>
        <pt x="581" y="359" on="1"/>
        <pt x="581" y="350" on="1"/>
        <pt x="568" y="293" on="0"/>
        <pt x="568" y="161" on="0"/>
        <pt x="523" y="38" on="0"/>
        <pt x="430" y="-57" on="0"/>
        <pt x="320" y="-57" on="0"/>
        <pt x="229" y="19" on="0"/>
        <pt x="170" y="138" on="0"/>
        <pt x="124" y="303" on="0"/>
        <pt x="100" y="460" on="0"/>
        <pt x="92" y="547" on="1"/>
        <pt x="81" y="680" on="0"/>
        <pt x="81" y="851" on="0"/>
        <pt x="84" y="906" on="1"/>
        <pt x="88" y="1007" on="0"/>
        <pt x="98" y="1164" on="0"/>
        <pt x="100" y="1248" on="0"/>
        <pt x="102" y="1306" on="0"/>
        <pt x="112" y="1391" on="0"/>
        <pt x="126" y="1451" on="0"/>
        <pt x="155" y="1517" on="0"/>
        <pt x="175" y="1538" on="1"/>
        <pt x="221" y="1585" on="0"/>
        <pt x="335" y="1585" on="0"/>
        <pt x="403" y="1563" on="0"/>
        <pt x="450" y="1528" on="0"/>
        <pt x="489" y="1471" on="0"/>
        <pt x="514" y="1417" on="0"/>
        <pt x="524" y="1379" on="1"/>
        <pt x="537" y="1331" on="0"/>
        <pt x="550" y="1242" on="1"/>
        <pt x="599" y="892" on="0"/>
      </contour>
    </TTGlyph>
    <TTGlyph name="OE" xMin="77" yMin="-22" xMax="1094" yMax="1551">
      <contour>
        <pt x="171" y="957" on="1"/>
        <pt x="172" y="820" on="1"/>
        <pt x="172" y="774" on="0"/>
        <pt x="171" y="751" on="1"/>
        <pt x="185" y="722" on="0"/>
        <pt x="195" y="552" on="1"/>
        <pt x="215" y="238" on="0"/>
        <pt x="279" y="232" on="1"/>
        <pt x="378" y="112" on="0"/>
        <pt x="520" y="112" on="1"/>
        <pt x="592" y="112" on="0"/>
        <pt x="692" y="147" on="0"/>
        <pt x="692" y="168" on="1"/>
        <pt x="692" y="385" on="0"/>
        <pt x="656" y="1196" on="0"/>
        <pt x="653" y="1371" on="1"/>
        <pt x="586" y="1449" on="0"/>
        <pt x="420" y="1449" on="1"/>
        <pt x="311" y="1449" on="0"/>
        <pt x="256" y="1358" on="1"/>
        <pt x="201" y="1269" on="0"/>
        <pt x="189" y="1184" on="1"/>
        <pt x="171" y="1058" on="0"/>
      </contour>
      <contour>
        <pt x="908" y="754" on="1"/>
        <pt x="808" y="758" on="1"/>
        <pt x="789" y="758" on="0"/>
        <pt x="780" y="757" on="1"/>
        <pt x="779" y="634" on="0"/>
        <pt x="792" y="177" on="0"/>
        <pt x="792" y="80" on="1"/>
        <pt x="895" y="87" on="0"/>
        <pt x="925" y="87" on="1"/>
        <pt x="925" y="85" on="1"/>
        <pt x="958" y="85" on="1"/>
        <pt x="1094" y="85" on="0"/>
        <pt x="1094" y="25" on="1"/>
        <pt x="1094" y="-16" on="1"/>
        <pt x="747" y="-22" on="1"/>
        <pt x="723" y="-22" on="0"/>
        <pt x="674" y="4" on="0"/>
        <pt x="674" y="26" on="1"/>
        <pt x="674" y="33" on="1"/>
        <pt x="600" y="9" on="0"/>
        <pt x="496" y="9" on="0"/>
        <pt x="369" y="41" on="0"/>
        <pt x="275" y="93" on="0"/>
        <pt x="200" y="176" on="0"/>
        <pt x="149" y="264" on="0"/>
        <pt x="113" y="383" on="0"/>
        <pt x="92" y="490" on="0"/>
        <pt x="86" y="559" on="1"/>
        <pt x="77" y="662" on="0"/>
        <pt x="77" y="861" on="0"/>
        <pt x="78" y="928" on="0"/>
        <pt x="84" y="1056" on="0"/>
        <pt x="94" y="1147" on="0"/>
        <pt x="116" y="1272" on="0"/>
        <pt x="146" y="1360" on="0"/>
        <pt x="194" y="1455" on="0"/>
        <pt x="224" y="1484" on="1"/>
        <pt x="295" y="1551" on="0"/>
        <pt x="389" y="1551" on="1"/>
        <pt x="570" y="1551" on="0"/>
        <pt x="655" y="1494" on="1"/>
        <pt x="655" y="1525" on="1"/>
        <pt x="980" y="1525" on="1"/>
        <pt x="1027" y="1499" on="0"/>
        <pt x="1027" y="1474" on="1"/>
        <pt x="1027" y="1426" on="0"/>
        <pt x="967" y="1426" on="1"/>
        <pt x="749" y="1433" on="1"/>
        <pt x="749" y="1364" on="0"/>
        <pt x="777" y="1088" on="0"/>
        <pt x="777" y="1018" on="1"/>
        <pt x="773" y="913" on="1"/>
        <pt x="773" y="880" on="0"/>
        <pt x="778" y="856" on="1"/>
        <pt x="840" y="856" on="1"/>
        <pt x="849" y="854" on="1"/>
        <pt x="894" y="855" on="1"/>
        <pt x="935" y="855" on="0"/>
        <pt x="964" y="818" on="1"/>
        <pt x="964" y="754" on="0"/>
      </contour>
    </TTGlyph>
    <TTGlyph name="Oacute" xMin="81" yMin="-57" xMax="614" yMax="1975">
      <component glyphName="acute" x="178" y="402" flags="0x1004"/>
      <component glyphName="O" x="0" y="0" flags="0x1204"/>
    </TTGlyph>
    <TTGlyph name="Obreve" xMin="81" yMin="-57" xMax="599" yMax="1962">
      <component glyphName="breve" x="43" y="820" flags="0x1004"/>
      <component glyphName="O" x="0" y="0" flags="0x1204"/>
    </TTGlyph>
    <TTGlyph name="Ocircumflex" xMin="81" yMin="-57" xMax="599" yMax="2123">
      <contour>
        <pt x="447" y="1766" on="1"/>
        <pt x="465" y="1741" on="1"/>
        <pt x="465" y="1718" on="0"/>
        <pt x="424" y="1691" on="0"/>
        <pt x="401" y="1691" on="1"/>
        <pt x="358" y="1691" on="1"/>
        <pt x="340" y="1869" on="0"/>
        <pt x="319" y="1957" on="1"/>
        <pt x="311" y="1934" on="0"/>
        <pt x="284" y="1842" on="0"/>
        <pt x="276" y="1818" on="1"/>
        <pt x="252" y="1749" on="0"/>
        <pt x="208" y="1692" on="1"/>
        <pt x="142" y="1740" on="1"/>
        <pt x="149" y="1810" on="0"/>
        <pt x="287" y="2123" on="0"/>
        <pt x="387" y="2123" on="0"/>
        <pt x="387" y="2056" on="1"/>
        <pt x="387" y="2011" on="0"/>
        <pt x="447" y="1853" on="0"/>
        <pt x="447" y="1818" on="1"/>
      </contour>
      <contour>
        <pt x="251" y="1449" on="0"/>
        <pt x="285" y="1477" on="0"/>
        <pt x="340" y="1477" on="0"/>
        <pt x="399" y="1420" on="0"/>
        <pt x="439" y="1315" on="0"/>
        <pt x="470" y="1195" on="0"/>
        <pt x="488" y="1041" on="0"/>
        <pt x="500" y="914" on="0"/>
        <pt x="502" y="842" on="1"/>
        <pt x="506" y="740" on="0"/>
        <pt x="506" y="596" on="0"/>
        <pt x="498" y="438" on="0"/>
        <pt x="475" y="208" on="0"/>
        <pt x="419" y="55" on="0"/>
        <pt x="379" y="55" on="1"/>
        <pt x="323" y="55" on="0"/>
        <pt x="236" y="261" on="0"/>
        <pt x="214" y="406" on="1"/>
        <pt x="173" y="687" on="0"/>
        <pt x="173" y="852" on="1"/>
        <pt x="173" y="894" on="1"/>
        <pt x="173" y="983" on="0"/>
        <pt x="178" y="1063" on="0"/>
        <pt x="184" y="1165" on="0"/>
        <pt x="194" y="1239" on="0"/>
        <pt x="207" y="1330" on="0"/>
        <pt x="227" y="1393" on="0"/>
      </contour>
      <contour>
        <pt x="586" y="359" on="1"/>
        <pt x="599" y="618" on="1"/>
        <pt x="599" y="958" on="0"/>
        <pt x="539" y="1312" on="1"/>
        <pt x="510" y="1483" on="0"/>
        <pt x="426" y="1546" on="1"/>
        <pt x="373" y="1585" on="0"/>
        <pt x="256" y="1585" on="0"/>
        <pt x="195" y="1558" on="0"/>
        <pt x="155" y="1517" on="0"/>
        <pt x="126" y="1451" on="0"/>
        <pt x="112" y="1391" on="0"/>
        <pt x="102" y="1306" on="0"/>
        <pt x="100" y="1248" on="0"/>
        <pt x="98" y="1164" on="0"/>
        <pt x="95" y="1115" on="0"/>
        <pt x="90" y="1038" on="1"/>
        <pt x="81" y="877" on="0"/>
        <pt x="81" y="749" on="0"/>
        <pt x="85" y="634" on="0"/>
        <pt x="100" y="460" on="0"/>
        <pt x="124" y="303" on="0"/>
        <pt x="170" y="138" on="0"/>
        <pt x="229" y="19" on="0"/>
        <pt x="320" y="-57" on="0"/>
        <pt x="430" y="-57" on="0"/>
        <pt x="523" y="38" on="0"/>
        <pt x="569" y="161" on="0"/>
        <pt x="569" y="275" on="0"/>
        <pt x="586" y="350" on="1"/>
      </contour>
    </TTGlyph>
    <TTGlyph name="Odieresis" xMin="48" yMin="-58" xMax="623" yMax="1834">
      <contour>
        <pt x="610" y="358" on="1"/>
        <pt x="623" y="617" on="1"/>
        <pt x="623" y="956" on="0"/>
        <pt x="563" y="1310" on="1"/>
        <pt x="534" y="1482" on="0"/>
        <pt x="450" y="1544" on="1"/>
        <pt x="397" y="1584" on="0"/>
        <pt x="280" y="1584" on="0"/>
        <pt x="219" y="1557" on="0"/>
        <pt x="179" y="1516" on="0"/>
        <pt x="150" y="1450" on="0"/>
        <pt x="136" y="1390" on="0"/>
        <pt x="126" y="1305" on="0"/>
        <pt x="124" y="1247" on="0"/>
        <pt x="122" y="1163" on="0"/>
        <pt x="119" y="1114" on="0"/>
        <pt x="114" y="1038" on="1"/>
        <pt x="105" y="876" on="0"/>
        <pt x="105" y="748" on="0"/>
        <pt x="109" y="633" on="0"/>
        <pt x="124" y="459" on="0"/>
        <pt x="148" y="302" on="0"/>
        <pt x="194" y="137" on="0"/>
        <pt x="253" y="18" on="0"/>
        <pt x="344" y="-58" on="0"/>
        <pt x="454" y="-58" on="0"/>
        <pt x="547" y="37" on="0"/>
        <pt x="593" y="160" on="0"/>
        <pt x="593" y="274" on="0"/>
        <pt x="610" y="349" on="1"/>
      </contour>
      <contour>
        <pt x="275" y="1448" on="0"/>
        <pt x="309" y="1476" on="0"/>
        <pt x="364" y="1476" on="0"/>
        <pt x="423" y="1419" on="0"/>
        <pt x="463" y="1314" on="0"/>
        <pt x="494" y="1194" on="0"/>
        <pt x="512" y="1040" on="0"/>
        <pt x="524" y="913" on="0"/>
        <pt x="526" y="840" on="1"/>
        <pt x="530" y="739" on="0"/>
        <pt x="530" y="595" on="0"/>
        <pt x="522" y="437" on="0"/>
        <pt x="499" y="207" on="0"/>
        <pt x="443" y="54" on="0"/>
        <pt x="403" y="54" on="1"/>
        <pt x="347" y="54" on="0"/>
        <pt x="260" y="260" on="0"/>
        <pt x="238" y="406" on="1"/>
        <pt x="197" y="686" on="0"/>
        <pt x="197" y="851" on="1"/>
        <pt x="197" y="893" on="1"/>
        <pt x="197" y="982" on="0"/>
        <pt x="202" y="1062" on="0"/>
        <pt x="208" y="1164" on="0"/>
        <pt x="218" y="1238" on="0"/>
        <pt x="231" y="1329" on="0"/>
        <pt x="251" y="1392" on="0"/>
      </contour>
      <contour>
        <pt x="499" y="1690" on="0"/>
        <pt x="463" y="1732" on="0"/>
        <pt x="463" y="1788" on="0"/>
        <pt x="506" y="1834" on="0"/>
        <pt x="561" y="1834" on="0"/>
        <pt x="602" y="1789" on="0"/>
        <pt x="602" y="1730" on="0"/>
        <pt x="556" y="1690" on="0"/>
      </contour>
      <contour>
        <pt x="189" y="1732" on="0"/>
        <pt x="138" y="1690" on="0"/>
        <pt x="79" y="1690" on="0"/>
        <pt x="48" y="1728" on="0"/>
        <pt x="48" y="1788" on="0"/>
        <pt x="88" y="1831" on="0"/>
        <pt x="147" y="1831" on="0"/>
        <pt x="189" y="1791" on="0"/>
      </contour>
    </TTGlyph>
    <TTGlyph name="Ograve" xMin="0" yMin="-57" xMax="599" yMax="1888">
      <component glyphName="grave" x="-91" y="162" flags="0x1004"/>
      <component glyphName="O" x="0" y="0" flags="0x1204"/>
    </TTGlyph>
    <TTGlyph name="Ohungarumlaut" xMin="81" yMin="-57" xMax="989" yMax="2068">
      <component glyphName="hungarumlaut" x="-10" y="1693" flags="0x1004"/>
      <component glyphName="O" x="0" y="0" flags="0x1204"/>
    </TTGlyph>
    <TTGlyph name="Omacron" xMin="81" yMin="-57" xMax="599" yMax="1791">
      <component glyphName="macron" x="1" y="987" flags="0x1004"/>
      <component glyphName="O" x="0" y="0" flags="0x1204"/>
    </TTGlyph>
    <TTGlyph name="Oslash" xMin="89" yMin="-280" xMax="520" yMax="1799">
      <contour>
        <pt x="316" y="1552" on="1"/>
        <pt x="368" y="1799" on="1"/>
        <pt x="445" y="1799" on="1"/>
        <pt x="443" y="1747" on="0"/>
        <pt x="400" y="1531" on="0"/>
        <pt x="400" y="1473" on="1"/>
        <pt x="400" y="1452" on="0"/>
        <pt x="435" y="1420" on="1"/>
        <pt x="435" y="1366" on="1"/>
        <pt x="436" y="1342" on="0"/>
        <pt x="483" y="1248" on="0"/>
        <pt x="483" y="1223" on="1"/>
        <pt x="483" y="1207" on="1"/>
        <pt x="485" y="1148" on="0"/>
        <pt x="513" y="903" on="0"/>
        <pt x="515" y="800" on="0"/>
        <pt x="516" y="722" on="1"/>
        <pt x="520" y="540" on="0"/>
        <pt x="520" y="411" on="0"/>
        <pt x="519" y="352" on="0"/>
        <pt x="510" y="241" on="0"/>
        <pt x="495" y="168" on="0"/>
        <pt x="462" y="77" on="0"/>
        <pt x="439" y="50" on="1"/>
        <pt x="384" y="-16" on="0"/>
        <pt x="299" y="-16" on="1"/>
        <pt x="253" y="-16" on="0"/>
        <pt x="217" y="4" on="1"/>
        <pt x="210" y="-42" on="0"/>
        <pt x="191" y="-143" on="1"/>
        <pt x="164" y="-280" on="1"/>
        <pt x="94" y="-224" on="1"/>
        <pt x="94" y="-164" on="0"/>
        <pt x="153" y="69" on="0"/>
        <pt x="153" y="129" on="1"/>
        <pt x="87" y="349" on="0"/>
        <pt x="89" y="747" on="1"/>
        <pt x="92" y="1108" on="1"/>
        <pt x="92" y="1156" on="1"/>
        <pt x="92" y="1360" on="0"/>
        <pt x="142" y="1476" on="1"/>
        <pt x="183" y="1570" on="0"/>
        <pt x="262" y="1570" on="1"/>
        <pt x="290" y="1570" on="0"/>
        <pt x="316" y="1548" on="1"/>
      </contour>
      <contour>
        <pt x="315" y="72" on="1"/>
        <pt x="421" y="72" on="0"/>
        <pt x="421" y="464" on="1"/>
        <pt x="421" y="636" on="1"/>
        <pt x="421" y="1036" on="0"/>
        <pt x="378" y="1297" on="1"/>
        <pt x="363" y="1176" on="0"/>
        <pt x="302" y="436" on="0"/>
        <pt x="251" y="167" on="0"/>
        <pt x="251" y="103" on="0"/>
        <pt x="275" y="72" on="0"/>
      </contour>
      <contour>
        <pt x="267" y="1492" on="1"/>
        <pt x="267" y="1491" on="1"/>
        <pt x="233" y="1491" on="1"/>
        <pt x="233" y="1480" on="1"/>
        <pt x="183" y="1373" on="0"/>
        <pt x="183" y="850" on="1"/>
        <pt x="183" y="768" on="0"/>
        <pt x="208" y="538" on="0"/>
        <pt x="211" y="503" on="1"/>
        <pt x="228" y="661" on="0"/>
        <pt x="271" y="1130" on="0"/>
        <pt x="284" y="1251" on="0"/>
        <pt x="294" y="1322" on="0"/>
        <pt x="297" y="1346" on="1"/>
        <pt x="305" y="1408" on="0"/>
        <pt x="305" y="1440" on="1"/>
        <pt x="305" y="1489" on="0"/>
      </contour>
    </TTGlyph>
    <TTGlyph name="Otilde" xMin="67" yMin="-57" xMax="603" yMax="1918">
      <contour>
        <pt x="440" y="1840" on="1"/>
        <pt x="427" y="1885" on="1"/>
        <pt x="443" y="1917" on="0"/>
        <pt x="505" y="1917" on="0"/>
        <pt x="541" y="1859" on="0"/>
        <pt x="541" y="1770" on="0"/>
        <pt x="463" y="1691" on="0"/>
        <pt x="372" y="1691" on="0"/>
        <pt x="296" y="1734" on="0"/>
        <pt x="250" y="1779" on="0"/>
        <pt x="218" y="1817" on="1"/>
        <pt x="218" y="1819" on="1"/>
        <pt x="166" y="1788" on="1"/>
        <pt x="166" y="1690" on="1"/>
        <pt x="132" y="1690" on="0"/>
        <pt x="67" y="1721" on="0"/>
        <pt x="67" y="1749" on="1"/>
        <pt x="67" y="1819" on="0"/>
        <pt x="147" y="1918" on="0"/>
        <pt x="215" y="1918" on="1"/>
        <pt x="315" y="1866" on="1"/>
        <pt x="324" y="1842" on="0"/>
        <pt x="367" y="1794" on="0"/>
        <pt x="388" y="1794" on="1"/>
        <pt x="388" y="1795" on="1"/>
        <pt x="394" y="1801" on="0"/>
        <pt x="408" y="1808" on="1"/>
        <pt x="440" y="1822" on="0"/>
      </contour>
      <contour>
        <pt x="255" y="1449" on="0"/>
        <pt x="289" y="1477" on="0"/>
        <pt x="344" y="1477" on="0"/>
        <pt x="403" y="1420" on="0"/>
        <pt x="443" y="1315" on="0"/>
        <pt x="474" y="1195" on="0"/>
        <pt x="492" y="1041" on="0"/>
        <pt x="504" y="914" on="0"/>
        <pt x="506" y="842" on="1"/>
        <pt x="510" y="740" on="0"/>
        <pt x="510" y="596" on="0"/>
        <pt x="502" y="438" on="0"/>
        <pt x="479" y="208" on="0"/>
        <pt x="423" y="55" on="0"/>
        <pt x="383" y="55" on="1"/>
        <pt x="327" y="55" on="0"/>
        <pt x="240" y="261" on="0"/>
        <pt x="218" y="406" on="1"/>
        <pt x="177" y="687" on="0"/>
        <pt x="177" y="852" on="1"/>
        <pt x="177" y="894" on="1"/>
        <pt x="177" y="983" on="0"/>
        <pt x="182" y="1063" on="0"/>
        <pt x="188" y="1165" on="0"/>
        <pt x="198" y="1239" on="0"/>
        <pt x="211" y="1330" on="0"/>
        <pt x="231" y="1393" on="0"/>
      </contour>
      <contour>
        <pt x="590" y="359" on="1"/>
        <pt x="603" y="618" on="1"/>
        <pt x="603" y="958" on="0"/>
        <pt x="543" y="1312" on="1"/>
        <pt x="514" y="1483" on="0"/>
        <pt x="430" y="1546" on="1"/>
        <pt x="377" y="1585" on="0"/>
        <pt x="260" y="1585" on="0"/>
        <pt x="199" y="1558" on="0"/>
        <pt x="159" y="1517" on="0"/>
        <pt x="130" y="1451" on="0"/>
        <pt x="116" y="1391" on="0"/>
        <pt x="106" y="1306" on="0"/>
        <pt x="104" y="1248" on="0"/>
        <pt x="102" y="1164" on="0"/>
        <pt x="99" y="1115" on="0"/>
        <pt x="94" y="1038" on="1"/>
        <pt x="85" y="877" on="0"/>
        <pt x="85" y="749" on="0"/>
        <pt x="89" y="634" on="0"/>
        <pt x="104" y="460" on="0"/>
        <pt x="128" y="303" on="0"/>
        <pt x="174" y="138" on="0"/>
        <pt x="233" y="19" on="0"/>
        <pt x="324" y="-57" on="0"/>
        <pt x="434" y="-57" on="0"/>
        <pt x="527" y="38" on="0"/>
        <pt x="573" y="161" on="0"/>
        <pt x="573" y="275" on="0"/>
        <pt x="590" y="350" on="1"/>
      </contour>
    </TTGlyph>
    <TTGlyph name="P" xMin="67" yMin="-11" xMax="466" yMax="1566">
      <contour>
        <pt x="205" y="811" on="1"/>
        <pt x="360" y="958" on="0"/>
        <pt x="360" y="1158" on="1"/>
        <pt x="360" y="1159" on="1"/>
        <pt x="360" y="1307" on="0"/>
        <pt x="306" y="1363" on="1"/>
        <pt x="272" y="1398" on="0"/>
        <pt x="187" y="1459" on="1"/>
        <pt x="188" y="1351" on="0"/>
        <pt x="205" y="919" on="0"/>
      </contour>
      <contour>
        <pt x="109" y="58" on="1"/>
        <pt x="119" y="789" on="1"/>
        <pt x="119" y="1275" on="0"/>
        <pt x="67" y="1520" on="1"/>
        <pt x="99" y="1566" on="0"/>
        <pt x="145" y="1566" on="1"/>
        <pt x="221" y="1566" on="0"/>
        <pt x="346" y="1498" on="0"/>
        <pt x="385" y="1442" on="1"/>
        <pt x="466" y="1324" on="0"/>
        <pt x="466" y="1025" on="0"/>
        <pt x="336" y="780" on="0"/>
        <pt x="210" y="712" on="1"/>
        <pt x="226" y="74" on="1"/>
        <pt x="226" y="-11" on="0"/>
        <pt x="158" y="-11" on="1"/>
        <pt x="133" y="-11" on="0"/>
        <pt x="109" y="32" on="0"/>
      </contour>
    </TTGlyph>
    <TTGlyph name="Q" xMin="82" yMin="-282" xMax="663" yMax="1576">
      <contour>
        <pt x="587" y="-169" on="1"/>
        <pt x="663" y="-169" on="0"/>
        <pt x="663" y="-219" on="1"/>
        <pt x="663" y="-282" on="0"/>
        <pt x="572" y="-282" on="1"/>
        <pt x="537" y="-282" on="0"/>
        <pt x="487" y="-253" on="1"/>
        <pt x="487" y="-252" on="1"/>
        <pt x="433" y="-226" on="0"/>
        <pt x="413" y="-161" on="1"/>
        <pt x="396" y="-106" on="0"/>
        <pt x="382" y="2" on="0"/>
        <pt x="378" y="20" on="1"/>
        <pt x="297" y="20" on="1"/>
        <pt x="107" y="148" on="0"/>
        <pt x="86" y="446" on="1"/>
        <pt x="82" y="502" on="0"/>
        <pt x="82" y="574" on="1"/>
        <pt x="92" y="908" on="1"/>
        <pt x="90" y="1052" on="1"/>
        <pt x="90" y="1576" on="0"/>
        <pt x="311" y="1576" on="1"/>
        <pt x="392" y="1576" on="0"/>
        <pt x="532" y="1459" on="0"/>
        <pt x="551" y="1377" on="1"/>
        <pt x="586" y="1222" on="0"/>
        <pt x="606" y="887" on="0"/>
        <pt x="606" y="764" on="1"/>
        <pt x="606" y="611" on="1"/>
        <pt x="606" y="355" on="0"/>
        <pt x="586" y="292" on="1"/>
        <pt x="546" y="162" on="0"/>
        <pt x="481" y="70" on="1"/>
        <pt x="483" y="62" on="0"/>
        <pt x="493" y="-3" on="0"/>
        <pt x="506" y="-64" on="0"/>
        <pt x="515" y="-96" on="1"/>
        <pt x="535" y="-169" on="0"/>
        <pt x="567" y="-169" on="1"/>
      </contour>
      <contour>
        <pt x="411" y="107" on="1"/>
        <pt x="494" y="186" on="0"/>
        <pt x="494" y="327" on="1"/>
        <pt x="494" y="793" on="1"/>
        <pt x="494" y="886" on="0"/>
        <pt x="465" y="1145" on="0"/>
        <pt x="460" y="1201" on="0"/>
        <pt x="456" y="1251" on="0"/>
        <pt x="454" y="1281" on="0"/>
        <pt x="448" y="1329" on="0"/>
        <pt x="441" y="1358" on="0"/>
        <pt x="428" y="1398" on="0"/>
        <pt x="412" y="1422" on="0"/>
        <pt x="388" y="1449" on="0"/>
        <pt x="373" y="1456" on="1"/>
        <pt x="338" y="1474" on="0"/>
        <pt x="294" y="1474" on="1"/>
        <pt x="258" y="1474" on="0"/>
        <pt x="209" y="1263" on="0"/>
        <pt x="200" y="1104" on="1"/>
        <pt x="183" y="826" on="0"/>
        <pt x="183" y="598" on="0"/>
        <pt x="187" y="488" on="0"/>
        <pt x="209" y="313" on="0"/>
        <pt x="244" y="184" on="0"/>
        <pt x="316" y="84" on="0"/>
        <pt x="364" y="80" on="1"/>
        <pt x="364" y="82" on="1"/>
        <pt x="379" y="108" on="0"/>
        <pt x="411" y="108" on="1"/>
      </contour>
    </TTGlyph>
    <TTGlyph name="R" xMin="102" yMin="-21" xMax="535" yMax="1557">
      <contour>
        <pt x="221" y="1463" on="1"/>
        <pt x="210" y="1045" on="1"/>
        <pt x="210" y="982" on="0"/>
        <pt x="212" y="951" on="1"/>
        <pt x="246" y="984" on="0"/>
        <pt x="278" y="1030" on="1"/>
        <pt x="308" y="1207" on="1"/>
        <pt x="308" y="1313" on="0"/>
        <pt x="252" y="1457" on="0"/>
      </contour>
      <contour>
        <pt x="535" y="46" on="1"/>
        <pt x="535" y="-21" on="0"/>
        <pt x="486" y="-21" on="1"/>
        <pt x="448" y="-21" on="0"/>
        <pt x="412" y="34" on="1"/>
        <pt x="412" y="41" on="1"/>
        <pt x="407" y="123" on="0"/>
        <pt x="316" y="409" on="0"/>
        <pt x="294" y="509" on="0"/>
        <pt x="245" y="786" on="0"/>
        <pt x="227" y="859" on="1"/>
        <pt x="227" y="52" on="1"/>
        <pt x="227" y="-13" on="0"/>
        <pt x="160" y="-13" on="1"/>
        <pt x="136" y="-13" on="0"/>
        <pt x="102" y="20" on="0"/>
        <pt x="102" y="44" on="1"/>
        <pt x="102" y="60" on="1"/>
        <pt x="116" y="1261" on="1"/>
        <pt x="116" y="1513" on="1"/>
        <pt x="116" y="1537" on="0"/>
        <pt x="136" y="1557" on="0"/>
        <pt x="232" y="1557" on="0"/>
        <pt x="332" y="1494" on="0"/>
        <pt x="362" y="1444" on="1"/>
        <pt x="424" y="1341" on="0"/>
        <pt x="424" y="1217" on="1"/>
        <pt x="424" y="1117" on="0"/>
        <pt x="374" y="988" on="1"/>
        <pt x="368" y="974" on="0"/>
        <pt x="332" y="884" on="0"/>
        <pt x="329" y="876" on="1"/>
        <pt x="330" y="796" on="0"/>
        <pt x="381" y="557" on="0"/>
        <pt x="425" y="410" on="0"/>
        <pt x="528" y="98" on="0"/>
        <pt x="535" y="76" on="1"/>
      </contour>
    </TTGlyph>
    <TTGlyph name="Racute" xMin="102" yMin="-21" xMax="535" yMax="1975">
      <component glyphName="acute" x="47" y="402" flags="0x1004"/>
      <component glyphName="R" x="0" y="0" flags="0x1204"/>
    </TTGlyph>
    <TTGlyph name="Rcaron" xMin="99" yMin="-21" xMax="535" yMax="2115">
      <component glyphName="caron" x="17" y="759" flags="0x1004"/>
      <component glyphName="R" x="0" y="0" flags="0x1204"/>
    </TTGlyph>
    <TTGlyph name="Rcommaaccent" xMin="102" yMin="-509" xMax="546" yMax="1557">
      <component glyphName="uni0326" x="164" y="51" flags="0x1004"/>
      <component glyphName="R" x="0" y="0" flags="0x1204"/>
    </TTGlyph>
    <TTGlyph name="S" xMin="64" yMin="-45" xMax="503" yMax="1574">
      <contour>
        <pt x="64" y="24" on="1"/>
        <pt x="64" y="79" on="0"/>
        <pt x="110" y="79" on="1"/>
        <pt x="133" y="79" on="0"/>
        <pt x="208" y="48" on="0"/>
        <pt x="263" y="48" on="0"/>
        <pt x="327" y="118" on="0"/>
        <pt x="345" y="170" on="1"/>
        <pt x="382" y="275" on="0"/>
        <pt x="382" y="447" on="0"/>
        <pt x="322" y="643" on="0"/>
        <pt x="235" y="815" on="0"/>
        <pt x="192" y="901" on="1"/>
        <pt x="89" y="1107" on="0"/>
        <pt x="89" y="1275" on="1"/>
        <pt x="89" y="1435" on="0"/>
        <pt x="190" y="1526" on="1"/>
        <pt x="244" y="1574" on="0"/>
        <pt x="317" y="1574" on="1"/>
        <pt x="354" y="1574" on="0"/>
        <pt x="424" y="1533" on="0"/>
        <pt x="438" y="1500" on="1"/>
        <pt x="438" y="1456" on="1"/>
        <pt x="352" y="1456" on="0"/>
        <pt x="323" y="1476" on="1"/>
        <pt x="285" y="1472" on="0"/>
        <pt x="257" y="1440" on="1"/>
        <pt x="206" y="1380" on="0"/>
        <pt x="206" y="1223" on="0"/>
        <pt x="252" y="1056" on="0"/>
        <pt x="316" y="909" on="0"/>
        <pt x="381" y="783" on="0"/>
        <pt x="427" y="703" on="0"/>
        <pt x="427" y="701" on="1"/>
        <pt x="427" y="685" on="1"/>
        <pt x="434" y="659" on="0"/>
        <pt x="468" y="547" on="0"/>
        <pt x="478" y="514" on="1"/>
        <pt x="503" y="424" on="0"/>
        <pt x="503" y="278" on="0"/>
        <pt x="468" y="146" on="0"/>
        <pt x="403" y="29" on="0"/>
        <pt x="292" y="-45" on="0"/>
        <pt x="196" y="-45" on="0"/>
        <pt x="130" y="-35" on="0"/>
        <pt x="64" y="-1" on="0"/>
      </contour>
    </TTGlyph>
    <TTGlyph name="Sacute" xMin="64" yMin="-45" xMax="631" yMax="1975">
      <component glyphName="acute" x="195" y="402" flags="0x1004"/>
      <component glyphName="S" x="0" y="0" flags="0x1204"/>
    </TTGlyph>
    <TTGlyph name="Scaron" xMin="64" yMin="-45" xMax="503" yMax="2115">
      <component glyphName="caron" x="-16" y="759" flags="0x1004"/>
      <component glyphName="S" x="0" y="0" flags="0x1204"/>
    </TTGlyph>
    <TTGlyph name="Scedilla" xMin="64" yMin="-550" xMax="503" yMax="1574">
      <component glyphName="cedilla" x="95" y="-46" flags="0x1004"/>
      <component glyphName="S" x="0" y="0" flags="0x1204"/>
    </TTGlyph>
    <TTGlyph name="Scircumflex" xMin="64" yMin="-45" xMax="511" yMax="2119">
      <component glyphName="circumflex" x="98" y="760" flags="0x1004"/>
      <component glyphName="S" x="0" y="0" flags="0x1204"/>
    </TTGlyph>
    <TTGlyph name="Scommaaccent" xMin="64" yMin="-533" xMax="515" yMax="1574">
      <component glyphName="uni0326" x="133" y="27" flags="0x1004"/>
      <component glyphName="S" x="0" y="0" flags="0x1204"/>
    </TTGlyph>
    <TTGlyph name="T" xMin="47" yMin="-14" xMax="489" yMax="1550">
      <contour>
        <pt x="347" y="1189" on="1"/>
        <pt x="343" y="925" on="1"/>
        <pt x="343" y="738" on="0"/>
        <pt x="375" y="611" on="1"/>
        <pt x="375" y="610" on="1"/>
        <pt x="361" y="545" on="0"/>
        <pt x="361" y="454" on="1"/>
        <pt x="378" y="86" on="1"/>
        <pt x="378" y="-14" on="0"/>
        <pt x="319" y="-14" on="1"/>
        <pt x="285" y="-14" on="0"/>
        <pt x="253" y="50" on="0"/>
        <pt x="253" y="89" on="1"/>
        <pt x="269" y="416" on="1"/>
        <pt x="269" y="522" on="0"/>
        <pt x="241" y="948" on="0"/>
        <pt x="241" y="1054" on="1"/>
        <pt x="244" y="1233" on="1"/>
        <pt x="244" y="1380" on="0"/>
        <pt x="225" y="1424" on="1"/>
        <pt x="114" y="1413" on="1"/>
        <pt x="88" y="1413" on="0"/>
        <pt x="47" y="1444" on="0"/>
        <pt x="47" y="1493" on="0"/>
        <pt x="145" y="1528" on="0"/>
        <pt x="216" y="1536" on="1"/>
        <pt x="339" y="1550" on="0"/>
        <pt x="423" y="1550" on="1"/>
        <pt x="448" y="1550" on="0"/>
        <pt x="489" y="1517" on="0"/>
        <pt x="489" y="1467" on="0"/>
        <pt x="453" y="1438" on="0"/>
        <pt x="427" y="1438" on="1"/>
        <pt x="354" y="1442" on="1"/>
        <pt x="340" y="1442" on="0"/>
        <pt x="333" y="1441" on="1"/>
        <pt x="347" y="1323" on="0"/>
      </contour>
    </TTGlyph>
    <TTGlyph name="Tbar" xMin="48" yMin="-14" xMax="505" yMax="1550">
      <component glyphName="T" x="1" y="0" flags="0x1004"/>
      <component glyphName="macron" x="-43" y="194" flags="0x1004"/>
    </TTGlyph>
    <TTGlyph name="Tcaron" xMin="47" yMin="-14" xMax="489" yMax="2115">
      <component glyphName="caron" x="32" y="759" flags="0x1004"/>
      <component glyphName="T" x="0" y="0" flags="0x1204"/>
    </TTGlyph>
    <TTGlyph name="Tcommaaccent" xMin="47" yMin="-519" xMax="591" yMax="1550">
      <component glyphName="cedilla" x="212" y="-15" flags="0x1004"/>
      <component glyphName="T" x="0" y="0" flags="0x1204"/>
    </TTGlyph>
    <TTGlyph name="Thorn" xMin="98" yMin="-11" xMax="471" yMax="1548">
      <contour>
        <pt x="120" y="58" on="1"/>
        <pt x="98" y="1297" on="1"/>
        <pt x="98" y="1487" on="1"/>
        <pt x="98" y="1548" on="0"/>
        <pt x="147" y="1548" on="1"/>
        <pt x="217" y="1548" on="0"/>
        <pt x="217" y="1424" on="1"/>
        <pt x="215" y="1353" on="1"/>
        <pt x="298" y="1341" on="0"/>
        <pt x="358" y="1277" on="1"/>
        <pt x="471" y="1156" on="0"/>
        <pt x="471" y="965" on="1"/>
        <pt x="471" y="816" on="0"/>
        <pt x="343" y="570" on="0"/>
        <pt x="221" y="502" on="1"/>
        <pt x="236" y="74" on="1"/>
        <pt x="236" y="-11" on="0"/>
        <pt x="169" y="-11" on="1"/>
        <pt x="144" y="-11" on="0"/>
        <pt x="120" y="32" on="0"/>
      </contour>
      <contour>
        <pt x="216" y="601" on="1"/>
        <pt x="365" y="748" on="0"/>
        <pt x="365" y="948" on="1"/>
        <pt x="365" y="1098" on="0"/>
        <pt x="313" y="1160" on="1"/>
        <pt x="286" y="1193" on="0"/>
        <pt x="218" y="1249" on="1"/>
        <pt x="218" y="1141" on="0"/>
        <pt x="216" y="709" on="0"/>
      </contour>
    </TTGlyph>
    <TTGlyph name="U" xMin="67" yMin="-37" xMax="651" yMax="1545">
      <contour>
        <pt x="645" y="586" on="1"/>
        <pt x="651" y="460" on="1"/>
        <pt x="651" y="429" on="1"/>
        <pt x="646" y="407" on="1"/>
        <pt x="647" y="288" on="1"/>
        <pt x="647" y="108" on="0"/>
        <pt x="596" y="33" on="1"/>
        <pt x="548" y="-37" on="0"/>
        <pt x="447" y="-37" on="1"/>
        <pt x="324" y="-37" on="0"/>
        <pt x="260" y="52" on="1"/>
        <pt x="204" y="128" on="0"/>
        <pt x="178" y="256" on="1"/>
        <pt x="145" y="410" on="0"/>
        <pt x="125" y="474" on="1"/>
        <pt x="123" y="479" on="0"/>
        <pt x="82" y="1385" on="0"/>
        <pt x="82" y="1435" on="1"/>
        <pt x="67" y="1452" on="0"/>
        <pt x="67" y="1502" on="0"/>
        <pt x="102" y="1540" on="0"/>
        <pt x="126" y="1540" on="1"/>
        <pt x="200" y="1540" on="0"/>
        <pt x="200" y="1394" on="1"/>
        <pt x="219" y="682" on="1"/>
        <pt x="231" y="655" on="0"/>
        <pt x="248" y="491" on="0"/>
        <pt x="248" y="400" on="0"/>
        <pt x="277" y="267" on="0"/>
        <pt x="327" y="131" on="0"/>
        <pt x="412" y="35" on="0"/>
        <pt x="460" y="35" on="1"/>
        <pt x="538" y="35" on="0"/>
        <pt x="542" y="176" on="1"/>
        <pt x="543" y="194" on="0"/>
        <pt x="543" y="219" on="1"/>
        <pt x="543" y="1138" on="1"/>
        <pt x="543" y="1196" on="0"/>
        <pt x="499" y="1431" on="0"/>
        <pt x="499" y="1514" on="0"/>
        <pt x="540" y="1545" on="0"/>
        <pt x="566" y="1545" on="1"/>
        <pt x="628" y="1497" on="1"/>
        <pt x="628" y="1463" on="1"/>
        <pt x="610" y="1338" on="1"/>
        <pt x="610" y="1219" on="0"/>
        <pt x="640" y="760" on="0"/>
        <pt x="641" y="649" on="1"/>
        <pt x="641" y="646" on="1"/>
      </contour>
    </TTGlyph>
    <TTGlyph name="Uacute" xMin="67" yMin="-37" xMax="659" yMax="1975">
      <component glyphName="acute" x="223" y="402" flags="0x1004"/>
      <component glyphName="U" x="0" y="0" flags="0x1204"/>
    </TTGlyph>
    <TTGlyph name="Ubreve" xMin="67" yMin="-37" xMax="651" yMax="1962">
      <component glyphName="breve" x="91" y="820" flags="0x1004"/>
      <component glyphName="U" x="0" y="0" flags="0x1204"/>
    </TTGlyph>
    <TTGlyph name="Ucircumflex" xMin="67" yMin="-37" xMax="651" yMax="2119">
      <component glyphName="circumflex" x="125" y="760" flags="0x1004"/>
      <component glyphName="U" x="0" y="0" flags="0x1204"/>
    </TTGlyph>
    <TTGlyph name="Udieresis" xMin="67" yMin="-37" xMax="651" yMax="1831">
      <component glyphName="dieresis" x="-7" y="733" flags="0x1004"/>
      <component glyphName="U" x="0" y="0" flags="0x1204"/>
    </TTGlyph>
    <TTGlyph name="Ugrave" xMin="45" yMin="-37" xMax="651" yMax="1888">
      <component glyphName="grave" x="-46" y="162" flags="0x1004"/>
      <component glyphName="U" x="0" y="0" flags="0x1204"/>
    </TTGlyph>
    <TTGlyph name="Uhungarumlaut" xMin="67" yMin="-37" xMax="1035" yMax="2068">
      <component glyphName="hungarumlaut" x="36" y="1693" flags="0x1004"/>
      <component glyphName="U" x="0" y="0" flags="0x1204"/>
    </TTGlyph>
    <TTGlyph name="Umacron" xMin="67" yMin="-37" xMax="651" yMax="1791">
      <component glyphName="macron" x="46" y="987" flags="0x1004"/>
      <component glyphName="U" x="0" y="0" flags="0x1204"/>
    </TTGlyph>
    <TTGlyph name="Uogonek" xMin="67" yMin="-410" xMax="651" yMax="1545">
      <component glyphName="ogonek" x="210" y="-44" flags="0x1004"/>
      <component glyphName="U" x="0" y="0" flags="0x1204"/>
    </TTGlyph>
    <TTGlyph name="Uring" xMin="67" yMin="-37" xMax="651" yMax="1916">
      <component glyphName="ring" x="169" y="625" flags="0x1004"/>
      <component glyphName="U" x="0" y="0" flags="0x1204"/>
    </TTGlyph>
    <TTGlyph name="Utilde" xMin="67" yMin="-37" xMax="651" yMax="1915">
      <component glyphName="tilde" x="37" y="691" flags="0x1004"/>
      <component glyphName="U" x="0" y="0" flags="0x1204"/>
    </TTGlyph>
    <TTGlyph name="V" xMin="51" yMin="-34" xMax="597" yMax="1569">
      <contour>
        <pt x="554" y="1569" on="1"/>
        <pt x="597" y="1569" on="1"/>
        <pt x="583" y="1436" on="0"/>
        <pt x="465" y="540" on="0"/>
        <pt x="442" y="264" on="0"/>
        <pt x="441" y="164" on="0"/>
        <pt x="437" y="89" on="0"/>
        <pt x="431" y="50" on="1"/>
        <pt x="418" y="-34" on="0"/>
        <pt x="370" y="-34" on="1"/>
        <pt x="341" y="-34" on="0"/>
        <pt x="322" y="-12" on="1"/>
        <pt x="275" y="183" on="0"/>
        <pt x="89" y="1354" on="0"/>
        <pt x="51" y="1523" on="1"/>
        <pt x="63" y="1563" on="0"/>
        <pt x="111" y="1563" on="1"/>
        <pt x="134" y="1563" on="0"/>
        <pt x="151" y="1542" on="0"/>
        <pt x="159" y="1530" on="0"/>
        <pt x="165" y="1507" on="0"/>
        <pt x="168" y="1494" on="0"/>
        <pt x="171" y="1468" on="0"/>
        <pt x="191" y="1347" on="0"/>
        <pt x="226" y="1112" on="1"/>
        <pt x="300" y="602" on="0"/>
        <pt x="354" y="339" on="1"/>
        <pt x="367" y="455" on="0"/>
        <pt x="404" y="708" on="1"/>
        <pt x="479" y="1233" on="0"/>
        <pt x="479" y="1528" on="1"/>
        <pt x="511" y="1569" on="0"/>
      </contour>
    </TTGlyph>
    <TTGlyph name="W" xMin="52" yMin="-29" xMax="890" yMax="1592">
      <contour>
        <pt x="305" y="503" on="1"/>
        <pt x="380" y="1103" on="0"/>
        <pt x="380" y="1286" on="1"/>
        <pt x="380" y="1325" on="1"/>
        <pt x="380" y="1347" on="0"/>
        <pt x="413" y="1388" on="0"/>
        <pt x="434" y="1388" on="1"/>
        <pt x="517" y="1388" on="0"/>
        <pt x="517" y="1328" on="1"/>
        <pt x="517" y="1297" on="1"/>
        <pt x="517" y="1098" on="0"/>
        <pt x="598" y="723" on="1"/>
        <pt x="635" y="555" on="0"/>
        <pt x="650" y="461" on="1"/>
        <pt x="661" y="574" on="0"/>
        <pt x="690" y="788" on="1"/>
        <pt x="753" y="1254" on="0"/>
        <pt x="753" y="1506" on="1"/>
        <pt x="753" y="1551" on="0"/>
        <pt x="783" y="1592" on="0"/>
        <pt x="851" y="1592" on="0"/>
        <pt x="890" y="1560" on="0"/>
        <pt x="890" y="1510" on="0"/>
        <pt x="869" y="1489" on="1"/>
        <pt x="838" y="1321" on="0"/>
        <pt x="791" y="655" on="0"/>
        <pt x="747" y="390" on="0"/>
        <pt x="740" y="340" on="1"/>
        <pt x="714" y="170" on="0"/>
        <pt x="714" y="43" on="1"/>
        <pt x="714" y="12" on="0"/>
        <pt x="683" y="-28" on="0"/>
        <pt x="628" y="-28" on="0"/>
        <pt x="592" y="38" on="0"/>
        <pt x="572" y="147" on="0"/>
        <pt x="561" y="246" on="0"/>
        <pt x="554" y="353" on="0"/>
        <pt x="539" y="470" on="0"/>
        <pt x="459" y="861" on="0"/>
        <pt x="453" y="893" on="1"/>
        <pt x="378" y="318" on="0"/>
        <pt x="378" y="28" on="1"/>
        <pt x="378" y="6" on="0"/>
        <pt x="341" y="-29" on="0"/>
        <pt x="319" y="-29" on="1"/>
        <pt x="244" y="-29" on="0"/>
        <pt x="244" y="127" on="1"/>
        <pt x="244" y="223" on="0"/>
        <pt x="75" y="1434" on="0"/>
        <pt x="52" y="1491" on="1"/>
        <pt x="78" y="1540" on="0"/>
        <pt x="123" y="1540" on="1"/>
        <pt x="182" y="1540" on="0"/>
        <pt x="208" y="1386" on="1"/>
        <pt x="220" y="1314" on="0"/>
        <pt x="226" y="1098" on="0"/>
        <pt x="233" y="1018" on="0"/>
        <pt x="252" y="856" on="0"/>
        <pt x="261" y="798" on="1"/>
        <pt x="281" y="666" on="0"/>
      </contour>
    </TTGlyph>
    <TTGlyph name="X" xMin="63" yMin="-13" xMax="504" yMax="1550">
      <contour>
        <pt x="433" y="24" on="1"/>
        <pt x="373" y="24" on="0"/>
        <pt x="373" y="118" on="0"/>
        <pt x="364" y="211" on="0"/>
        <pt x="344" y="317" on="0"/>
        <pt x="329" y="385" on="0"/>
        <pt x="299" y="512" on="0"/>
        <pt x="293" y="538" on="1"/>
        <pt x="217" y="214" on="0"/>
        <pt x="187" y="47" on="0"/>
        <pt x="177" y="16" on="0"/>
        <pt x="145" y="-13" on="0"/>
        <pt x="98" y="-13" on="0"/>
        <pt x="63" y="13" on="0"/>
        <pt x="63" y="56" on="0"/>
        <pt x="78" y="110" on="0"/>
        <pt x="105" y="179" on="0"/>
        <pt x="146" y="313" on="0"/>
        <pt x="235" y="730" on="0"/>
        <pt x="235" y="894" on="0"/>
        <pt x="193" y="1079" on="0"/>
        <pt x="168" y="1152" on="1"/>
        <pt x="102" y="1348" on="0"/>
        <pt x="102" y="1473" on="1"/>
        <pt x="102" y="1478" on="1"/>
        <pt x="121" y="1520" on="0"/>
        <pt x="160" y="1520" on="1"/>
        <pt x="199" y="1520" on="0"/>
        <pt x="216" y="1483" on="0"/>
        <pt x="221" y="1465" on="0"/>
        <pt x="225" y="1422" on="0"/>
        <pt x="235" y="1351" on="0"/>
        <pt x="294" y="1118" on="0"/>
        <pt x="301" y="1087" on="1"/>
        <pt x="304" y="1097" on="0"/>
        <pt x="326" y="1229" on="1"/>
        <pt x="381" y="1550" on="0"/>
        <pt x="443" y="1550" on="1"/>
        <pt x="466" y="1550" on="0"/>
        <pt x="504" y="1526" on="0"/>
        <pt x="504" y="1491" on="0"/>
        <pt x="495" y="1463" on="0"/>
        <pt x="479" y="1427" on="0"/>
        <pt x="454" y="1360" on="0"/>
        <pt x="351" y="851" on="0"/>
        <pt x="351" y="782" on="0"/>
        <pt x="398" y="545" on="0"/>
        <pt x="458" y="256" on="0"/>
        <pt x="459" y="248" on="1"/>
        <pt x="459" y="236" on="1"/>
        <pt x="461" y="211" on="0"/>
        <pt x="489" y="109" on="0"/>
        <pt x="489" y="58" on="0"/>
        <pt x="456" y="24" on="0"/>
      </contour>
    </TTGlyph>
    <TTGlyph name="Y" xMin="53" yMin="-25" xMax="446" yMax="1546">
      <contour>
        <pt x="353" y="183" on="1"/>
        <pt x="352" y="81" on="1"/>
        <pt x="352" y="35" on="1"/>
        <pt x="352" y="8" on="0"/>
        <pt x="316" y="-25" on="0"/>
        <pt x="271" y="-25" on="0"/>
        <pt x="240" y="4" on="0"/>
        <pt x="240" y="25" on="1"/>
        <pt x="250" y="421" on="1"/>
        <pt x="250" y="481" on="0"/>
        <pt x="211" y="716" on="0"/>
        <pt x="211" y="859" on="0"/>
        <pt x="162" y="1064" on="0"/>
        <pt x="132" y="1146" on="1"/>
        <pt x="53" y="1360" on="0"/>
        <pt x="53" y="1513" on="1"/>
        <pt x="53" y="1546" on="0"/>
        <pt x="118" y="1546" on="1"/>
        <pt x="133" y="1546" on="0"/>
        <pt x="165" y="1522" on="0"/>
        <pt x="166" y="1507" on="1"/>
        <pt x="186" y="1271" on="0"/>
        <pt x="268" y="1006" on="1"/>
        <pt x="272" y="1024" on="0"/>
        <pt x="283" y="1159" on="0"/>
        <pt x="298" y="1301" on="0"/>
        <pt x="310" y="1374" on="1"/>
        <pt x="337" y="1539" on="0"/>
        <pt x="446" y="1539" on="0"/>
        <pt x="446" y="1517" on="1"/>
        <pt x="446" y="1402" on="0"/>
        <pt x="348" y="946" on="0"/>
        <pt x="348" y="828" on="1"/>
        <pt x="354" y="757" on="1"/>
        <pt x="354" y="726" on="1"/>
        <pt x="354" y="726" on="0"/>
      </contour>
    </TTGlyph>
    <TTGlyph name="Yacute" xMin="53" yMin="-25" xMax="561" yMax="1975">
      <component glyphName="acute" x="125" y="402" flags="0x1004"/>
      <component glyphName="Y" x="0" y="0" flags="0x1204"/>
    </TTGlyph>
    <TTGlyph name="Ycircumflex" xMin="53" yMin="-25" xMax="446" yMax="2119">
      <component glyphName="circumflex" x="27" y="760" flags="0x1004"/>
      <component glyphName="Y" x="0" y="0" flags="0x1204"/>
    </TTGlyph>
    <TTGlyph name="Ydieresis" xMin="-8" yMin="-25" xMax="553" yMax="1831">
      <component glyphName="dieresis" x="-105" y="733" flags="0x1004"/>
      <component glyphName="Y" x="0" y="0" flags="0x1204"/>
    </TTGlyph>
    <TTGlyph name="Z" xMin="60" yMin="-19" xMax="414" yMax="1564">
      <contour>
        <pt x="307" y="1451" on="1"/>
        <pt x="237" y="1441" on="0"/>
        <pt x="190" y="1441" on="1"/>
        <pt x="79" y="1441" on="0"/>
        <pt x="79" y="1506" on="1"/>
        <pt x="79" y="1549" on="1"/>
        <pt x="108" y="1550" on="1"/>
        <pt x="135" y="1543" on="0"/>
        <pt x="165" y="1543" on="1"/>
        <pt x="358" y="1564" on="1"/>
        <pt x="382" y="1564" on="0"/>
        <pt x="414" y="1529" on="0"/>
        <pt x="414" y="1490" on="1"/>
        <pt x="414" y="1444" on="0"/>
        <pt x="374" y="1224" on="1"/>
        <pt x="362" y="1136" on="0"/>
        <pt x="335" y="910" on="1"/>
        <pt x="282" y="463" on="0"/>
        <pt x="231" y="209" on="1"/>
        <pt x="226" y="186" on="0"/>
        <pt x="192" y="105" on="0"/>
        <pt x="187" y="85" on="1"/>
        <pt x="295" y="93" on="1"/>
        <pt x="403" y="93" on="0"/>
        <pt x="403" y="30" on="1"/>
        <pt x="403" y="21" on="1"/>
        <pt x="371" y="-11" on="1"/>
        <pt x="371" y="-11" on="0"/>
        <pt x="118" y="-19" on="1"/>
        <pt x="79" y="-19" on="0"/>
        <pt x="60" y="31" on="1"/>
        <pt x="107" y="106" on="0"/>
        <pt x="224" y="735" on="0"/>
        <pt x="299" y="1321" on="0"/>
      </contour>
    </TTGlyph>
    <TTGlyph name="Zacute" xMin="60" yMin="-19" xMax="513" yMax="1975">
      <component glyphName="acute" x="77" y="402" flags="0x1004"/>
      <component glyphName="Z" x="0" y="0" flags="0x1204"/>
    </TTGlyph>
    <TTGlyph name="Zcaron" xMin="60" yMin="-19" xMax="537" yMax="2115">
      <component glyphName="caron" x="126" y="759" flags="0x1004"/>
      <component glyphName="Z" x="0" y="0" flags="0x1204"/>
    </TTGlyph>
    <TTGlyph name="Zdotaccent" xMin="60" yMin="-19" xMax="456" yMax="1839">
      <component glyphName="dotaccent" x="204" y="297" flags="0x1004"/>
      <component glyphName="Z" x="0" y="0" flags="0x1204"/>
    </TTGlyph>
    <TTGlyph name="a" xMin="63" yMin="-19" xMax="597" yMax="1363">
      <contour>
        <pt x="572" y="331" on="1"/>
        <pt x="561" y="290" on="1"/>
        <pt x="561" y="265" on="0"/>
        <pt x="597" y="71" on="0"/>
        <pt x="597" y="41" on="1"/>
        <pt x="597" y="39" on="1"/>
        <pt x="597" y="-7" on="0"/>
        <pt x="566" y="-19" on="1"/>
        <pt x="523" y="-19" on="0"/>
        <pt x="475" y="9" on="0"/>
        <pt x="475" y="122" on="0"/>
        <pt x="445" y="298" on="1"/>
        <pt x="382" y="304" on="1"/>
        <pt x="314" y="304" on="1"/>
        <pt x="291" y="314" on="0"/>
        <pt x="233" y="314" on="1"/>
        <pt x="233" y="312" on="0"/>
        <pt x="228" y="263" on="0"/>
        <pt x="225" y="233" on="0"/>
        <pt x="218" y="174" on="0"/>
        <pt x="210" y="133" on="0"/>
        <pt x="198" y="78" on="0"/>
        <pt x="183" y="41" on="0"/>
        <pt x="174" y="24" on="1"/>
        <pt x="156" y="-11" on="0"/>
        <pt x="104" y="-11" on="0"/>
        <pt x="63" y="20" on="0"/>
        <pt x="63" y="44" on="1"/>
        <pt x="117" y="251" on="0"/>
        <pt x="194" y="705" on="0"/>
        <pt x="209" y="790" on="0"/>
        <pt x="264" y="1033" on="0"/>
        <pt x="275" y="1115" on="0"/>
        <pt x="280" y="1180" on="1"/>
        <pt x="289" y="1322" on="0"/>
        <pt x="317" y="1363" on="1"/>
        <pt x="386" y="1363" on="1"/>
        <pt x="456" y="1363" on="0"/>
        <pt x="456" y="1321" on="1"/>
        <pt x="456" y="926" on="0"/>
        <pt x="533" y="536" on="1"/>
        <pt x="537" y="513" on="0"/>
        <pt x="548" y="472" on="1"/>
        <pt x="572" y="383" on="0"/>
      </contour>
      <contour>
        <pt x="432" y="375" on="1"/>
        <pt x="426" y="405" on="0"/>
        <pt x="426" y="539" on="0"/>
        <pt x="409" y="730" on="0"/>
        <pt x="377" y="982" on="0"/>
        <pt x="371" y="1038" on="1"/>
        <pt x="359" y="980" on="0"/>
        <pt x="324" y="844" on="1"/>
        <pt x="253" y="561" on="0"/>
        <pt x="251" y="408" on="1"/>
        <pt x="286" y="385" on="0"/>
      </contour>
    </TTGlyph>
    <TTGlyph name="aacute" xMin="63" yMin="-19" xMax="701" yMax="1768">
      <component glyphName="acute" x="265" y="195" flags="0x1004"/>
      <component glyphName="a" x="0" y="0" flags="0x1204"/>
    </TTGlyph>
    <TTGlyph name="abreve" xMin="63" yMin="-19" xMax="597" yMax="1755">
      <component glyphName="breve" x="133" y="613" flags="0x1004"/>
      <component glyphName="a" x="0" y="0" flags="0x1204"/>
    </TTGlyph>
    <TTGlyph name="acircumflex" xMin="63" yMin="-19" xMax="597" yMax="1912">
      <component glyphName="circumflex" x="167" y="553" flags="0x1004"/>
      <component glyphName="a" x="0" y="0" flags="0x1204"/>
    </TTGlyph>
    <TTGlyph name="acute" xMin="90" yMin="1285" xMax="436" yMax="1573">
      <contour>
        <pt x="159" y="1285" on="1"/>
        <pt x="90" y="1285" on="0"/>
        <pt x="90" y="1339" on="1"/>
        <pt x="90" y="1341" on="1"/>
        <pt x="92" y="1381" on="0"/>
        <pt x="272" y="1508" on="1"/>
        <pt x="343" y="1559" on="0"/>
        <pt x="358" y="1573" on="1"/>
        <pt x="436" y="1573" on="0"/>
        <pt x="436" y="1517" on="1"/>
        <pt x="436" y="1516" on="0"/>
        <pt x="427" y="1468" on="1"/>
        <pt x="361" y="1441" on="0"/>
        <pt x="208" y="1336" on="0"/>
      </contour>
    </TTGlyph>
    <TTGlyph name="adieresis" xMin="63" yMin="-19" xMax="693" yMax="1624">
      <component glyphName="dieresis" x="35" y="526" flags="0x1004"/>
      <component glyphName="a" x="0" y="0" flags="0x1204"/>
    </TTGlyph>
    <TTGlyph name="ae" xMin="67" yMin="-14" xMax="864" yMax="1354">
      <contour>
        <pt x="470" y="666" on="1"/>
        <pt x="477" y="834" on="0"/>
        <pt x="477" y="1040" on="0"/>
        <pt x="475" y="1083" on="1"/>
        <pt x="357" y="782" on="0"/>
        <pt x="323" y="648" on="1"/>
        <pt x="406" y="651" on="0"/>
      </contour>
      <contour>
        <pt x="589" y="-14" on="1"/>
        <pt x="509" y="-13" on="1"/>
        <pt x="495" y="-13" on="0"/>
        <pt x="468" y="5" on="0"/>
        <pt x="468" y="19" on="1"/>
        <pt x="483" y="253" on="1"/>
        <pt x="473" y="593" on="1"/>
        <pt x="459" y="592" on="0"/>
        <pt x="403" y="589" on="0"/>
        <pt x="386" y="588" on="1"/>
        <pt x="336" y="583" on="0"/>
        <pt x="303" y="571" on="1"/>
        <pt x="134" y="-7" on="1"/>
        <pt x="116" y="-7" on="0"/>
        <pt x="67" y="33" on="0"/>
        <pt x="67" y="48" on="1"/>
        <pt x="67" y="204" on="0"/>
        <pt x="302" y="862" on="1"/>
        <pt x="415" y="1180" on="0"/>
        <pt x="435" y="1250" on="0"/>
        <pt x="446" y="1279" on="0"/>
        <pt x="458" y="1299" on="1"/>
        <pt x="480" y="1338" on="0"/>
        <pt x="604" y="1354" on="0"/>
        <pt x="771" y="1354" on="0"/>
        <pt x="771" y="1298" on="1"/>
        <pt x="771" y="1250" on="1"/>
        <pt x="707" y="1240" on="0"/>
        <pt x="558" y="1240" on="1"/>
        <pt x="572" y="966" on="1"/>
        <pt x="566" y="676" on="1"/>
        <pt x="722" y="685" on="1"/>
        <pt x="764" y="647" on="1"/>
        <pt x="764" y="596" on="0"/>
        <pt x="649" y="597" on="1"/>
        <pt x="565" y="597" on="1"/>
        <pt x="571" y="82" on="1"/>
        <pt x="796" y="103" on="1"/>
        <pt x="821" y="103" on="0"/>
        <pt x="864" y="76" on="0"/>
        <pt x="864" y="53" on="1"/>
        <pt x="864" y="-14" on="0"/>
      </contour>
    </TTGlyph>
    <TTGlyph name="agrave" xMin="63" yMin="-19" xMax="597" yMax="1681">
      <component glyphName="grave" x="-4" y="-45" flags="0x1004"/>
      <component glyphName="a" x="0" y="0" flags="0x1204"/>
    </TTGlyph>
    <TTGlyph name="amacron" xMin="63" yMin="-19" xMax="636" yMax="1584">
      <component glyphName="macron" x="88" y="780" flags="0x1004"/>
      <component glyphName="a" x="0" y="0" flags="0x1204"/>
    </TTGlyph>
    <TTGlyph name="ampersand" xMin="78" yMin="198" xMax="876" yMax="1728">
      <contour>
        <pt x="277" y="969" on="1"/>
        <pt x="172" y="797" on="0"/>
        <pt x="172" y="570" on="1"/>
        <pt x="172" y="413" on="0"/>
        <pt x="255" y="330" on="1"/>
        <pt x="302" y="283" on="0"/>
        <pt x="371" y="283" on="1"/>
        <pt x="402" y="283" on="0"/>
        <pt x="495" y="317" on="0"/>
        <pt x="515" y="338" on="1"/>
        <pt x="508" y="348" on="0"/>
        <pt x="436" y="424" on="0"/>
        <pt x="364" y="564" on="0"/>
        <pt x="340" y="658" on="1"/>
        <pt x="307" y="784" on="0"/>
      </contour>
      <contour>
        <pt x="500" y="1600" on="1"/>
        <pt x="494" y="1496" on="1"/>
        <pt x="494" y="1475" on="0"/>
        <pt x="499" y="1452" on="1"/>
        <pt x="482" y="1414" on="0"/>
        <pt x="423" y="1230" on="0"/>
        <pt x="395" y="1176" on="0"/>
        <pt x="381" y="1155" on="1"/>
        <pt x="349" y="1107" on="0"/>
        <pt x="349" y="1086" on="1"/>
        <pt x="349" y="988" on="0"/>
        <pt x="500" y="481" on="0"/>
        <pt x="555" y="418" on="1"/>
        <pt x="617" y="565" on="0"/>
        <pt x="617" y="780" on="1"/>
        <pt x="617" y="789" on="1"/>
        <pt x="582" y="789" on="0"/>
        <pt x="566" y="824" on="1"/>
        <pt x="566" y="876" on="1"/>
        <pt x="617" y="876" on="0"/>
        <pt x="781" y="891" on="0"/>
        <pt x="815" y="902" on="1"/>
        <pt x="873" y="890" on="0"/>
        <pt x="873" y="848" on="1"/>
        <pt x="873" y="792" on="0"/>
        <pt x="760" y="792" on="1"/>
        <pt x="709" y="792" on="1"/>
        <pt x="709" y="731" on="0"/>
        <pt x="704" y="654" on="1"/>
        <pt x="725" y="656" on="0"/>
        <pt x="644" y="394" on="0"/>
        <pt x="625" y="355" on="1"/>
        <pt x="686" y="292" on="0"/>
        <pt x="755" y="292" on="1"/>
        <pt x="838" y="298" on="1"/>
        <pt x="876" y="267" on="1"/>
        <pt x="876" y="226" on="0"/>
        <pt x="819" y="199" on="0"/>
        <pt x="772" y="199" on="1"/>
        <pt x="677" y="199" on="0"/>
        <pt x="575" y="276" on="1"/>
        <pt x="465" y="198" on="0"/>
        <pt x="278" y="198" on="0"/>
        <pt x="148" y="303" on="0"/>
        <pt x="78" y="457" on="0"/>
        <pt x="78" y="619" on="0"/>
        <pt x="98" y="759" on="0"/>
        <pt x="125" y="833" on="1"/>
        <pt x="163" y="937" on="0"/>
        <pt x="257" y="1125" on="1"/>
        <pt x="243" y="1406" on="1"/>
        <pt x="243" y="1576" on="1"/>
        <pt x="243" y="1656" on="0"/>
        <pt x="297" y="1728" on="0"/>
        <pt x="387" y="1728" on="0"/>
        <pt x="500" y="1656" on="0"/>
      </contour>
      <contour>
        <pt x="333" y="1471" on="1"/>
        <pt x="335" y="1286" on="1"/>
        <pt x="335" y="1263" on="1"/>
        <pt x="362" y="1321" on="0"/>
        <pt x="412" y="1483" on="0"/>
        <pt x="412" y="1531" on="1"/>
        <pt x="412" y="1628" on="0"/>
        <pt x="364" y="1630" on="1"/>
        <pt x="350" y="1618" on="0"/>
        <pt x="333" y="1580" on="1"/>
      </contour>
    </TTGlyph>
    <TTGlyph name="aogonek" xMin="63" yMin="-392" xMax="670" yMax="1363">
      <component glyphName="ogonek" x="342" y="-26" flags="0x1004"/>
      <component glyphName="a" x="0" y="0" flags="0x1004"/>
    </TTGlyph>
    <TTGlyph name="aring" xMin="63" yMin="-19" xMax="597" yMax="1709">
      <component glyphName="ring" x="211" y="418" flags="0x1004"/>
      <component glyphName="a" x="0" y="0" flags="0x1204"/>
    </TTGlyph>
    <TTGlyph name="asciicircum" xMin="108" yMin="1515" xMax="245" yMax="1656">
      <contour>
        <pt x="151" y="1515" on="0"/>
        <pt x="108" y="1546" on="0"/>
        <pt x="108" y="1606" on="0"/>
        <pt x="141" y="1656" on="0"/>
        <pt x="201" y="1656" on="0"/>
        <pt x="245" y="1613" on="0"/>
        <pt x="245" y="1555" on="0"/>
        <pt x="209" y="1515" on="0"/>
      </contour>
    </TTGlyph>
    <TTGlyph name="asterisk" xMin="63" yMin="691" xMax="829" yMax="1567">
      <contour>
        <pt x="590" y="1189" on="1"/>
        <pt x="725" y="1199" on="1"/>
        <pt x="829" y="1199" on="0"/>
        <pt x="829" y="1137" on="1"/>
        <pt x="829" y="1085" on="0"/>
        <pt x="758" y="1085" on="1"/>
        <pt x="713" y="1085" on="0"/>
        <pt x="537" y="1094" on="0"/>
        <pt x="495" y="1094" on="1"/>
        <pt x="501" y="1077" on="0"/>
        <pt x="643" y="791" on="0"/>
        <pt x="643" y="731" on="0"/>
        <pt x="595" y="691" on="0"/>
        <pt x="573" y="691" on="1"/>
        <pt x="433" y="1011" on="1"/>
        <pt x="424" y="987" on="0"/>
        <pt x="386" y="881" on="0"/>
        <pt x="374" y="848" on="1"/>
        <pt x="341" y="760" on="0"/>
        <pt x="304" y="697" on="1"/>
        <pt x="255" y="697" on="1"/>
        <pt x="211" y="736" on="1"/>
        <pt x="211" y="742" on="1"/>
        <pt x="212" y="781" on="0"/>
        <pt x="354" y="1067" on="0"/>
        <pt x="364" y="1096" on="1"/>
        <pt x="248" y="1096" on="0"/>
        <pt x="113" y="1096" on="0"/>
        <pt x="95" y="1098" on="0"/>
        <pt x="84" y="1102" on="1"/>
        <pt x="63" y="1111" on="0"/>
        <pt x="63" y="1169" on="0"/>
        <pt x="90" y="1198" on="0"/>
        <pt x="109" y="1198" on="1"/>
        <pt x="350" y="1198" on="1"/>
        <pt x="319" y="1260" on="1"/>
        <pt x="216" y="1466" on="0"/>
        <pt x="216" y="1494" on="1"/>
        <pt x="216" y="1547" on="0"/>
        <pt x="272" y="1547" on="1"/>
        <pt x="315" y="1547" on="0"/>
        <pt x="384" y="1349" on="1"/>
        <pt x="413" y="1268" on="0"/>
        <pt x="418" y="1258" on="1"/>
        <pt x="484" y="1490" on="0"/>
        <pt x="526" y="1542" on="1"/>
        <pt x="546" y="1567" on="0"/>
        <pt x="586" y="1567" on="0"/>
        <pt x="621" y="1534" on="0"/>
        <pt x="621" y="1506" on="0"/>
        <pt x="618" y="1493" on="0"/>
        <pt x="614" y="1483" on="0"/>
        <pt x="607" y="1470" on="0"/>
        <pt x="602" y="1462" on="0"/>
        <pt x="592" y="1448" on="0"/>
        <pt x="563" y="1403" on="0"/>
        <pt x="511" y="1217" on="0"/>
        <pt x="502" y="1194" on="1"/>
        <pt x="540" y="1189" on="0"/>
      </contour>
    </TTGlyph>
    <TTGlyph name="at" xMin="90" yMin="-120" xMax="1002" yMax="1719">
      <contour>
        <pt x="518" y="1246" on="1"/>
        <pt x="421" y="1246" on="0"/>
        <pt x="421" y="920" on="1"/>
        <pt x="421" y="855" on="1"/>
        <pt x="421" y="649" on="0"/>
        <pt x="443" y="526" on="0"/>
        <pt x="454" y="488" on="1"/>
        <pt x="478" y="410" on="0"/>
        <pt x="529" y="410" on="1"/>
        <pt x="571" y="410" on="0"/>
        <pt x="659" y="558" on="0"/>
        <pt x="659" y="605" on="1"/>
        <pt x="659" y="759" on="1"/>
        <pt x="659" y="878" on="0"/>
        <pt x="638" y="1004" on="1"/>
        <pt x="599" y="1246" on="0"/>
      </contour>
      <contour>
        <pt x="202" y="1108" on="0"/>
        <pt x="198" y="995" on="0"/>
        <pt x="200" y="908" on="0"/>
        <pt x="200" y="873" on="1"/>
        <pt x="199" y="-31" on="0"/>
        <pt x="463" y="-31" on="1"/>
        <pt x="642" y="-31" on="0"/>
        <pt x="704" y="26" on="1"/>
        <pt x="728" y="48" on="0"/>
        <pt x="823" y="136" on="0"/>
        <pt x="877" y="169" on="1"/>
        <pt x="877" y="179" on="1"/>
        <pt x="926" y="140" on="1"/>
        <pt x="910" y="81" on="0"/>
        <pt x="804" y="-22" on="0"/>
        <pt x="736" y="-54" on="1"/>
        <pt x="594" y="-120" on="0"/>
        <pt x="470" y="-120" on="1"/>
        <pt x="90" y="-120" on="0"/>
        <pt x="90" y="956" on="1"/>
        <pt x="90" y="1256" on="0"/>
        <pt x="124" y="1386" on="1"/>
        <pt x="168" y="1551" on="0"/>
        <pt x="244" y="1622" on="1"/>
        <pt x="346" y="1719" on="0"/>
        <pt x="505" y="1719" on="1"/>
        <pt x="759" y="1719" on="0"/>
        <pt x="870" y="1467" on="1"/>
        <pt x="926" y="1341" on="0"/>
        <pt x="1002" y="840" on="0"/>
        <pt x="1002" y="732" on="0"/>
        <pt x="1001" y="684" on="0"/>
        <pt x="994" y="602" on="0"/>
        <pt x="981" y="544" on="0"/>
        <pt x="956" y="476" on="0"/>
        <pt x="938" y="456" on="1"/>
        <pt x="895" y="406" on="0"/>
        <pt x="784" y="406" on="0"/>
        <pt x="737" y="449" on="1"/>
        <pt x="701" y="386" on="0"/>
        <pt x="580" y="306" on="0"/>
        <pt x="479" y="306" on="0"/>
        <pt x="422" y="332" on="0"/>
        <pt x="380" y="372" on="0"/>
        <pt x="347" y="439" on="0"/>
        <pt x="326" y="501" on="0"/>
        <pt x="311" y="591" on="0"/>
        <pt x="304" y="658" on="0"/>
        <pt x="302" y="706" on="1"/>
        <pt x="299" y="779" on="0"/>
        <pt x="299" y="906" on="0"/>
        <pt x="300" y="977" on="0"/>
        <pt x="309" y="1093" on="0"/>
        <pt x="325" y="1170" on="0"/>
        <pt x="358" y="1260" on="0"/>
        <pt x="380" y="1287" on="1"/>
        <pt x="434" y="1351" on="0"/>
        <pt x="608" y="1351" on="0"/>
        <pt x="675" y="1284" on="1"/>
        <pt x="707" y="1252" on="0"/>
        <pt x="751" y="936" on="0"/>
        <pt x="760" y="855" on="1"/>
        <pt x="779" y="698" on="0"/>
        <pt x="791" y="565" on="1"/>
        <pt x="791" y="556" on="1"/>
        <pt x="836" y="510" on="1"/>
        <pt x="857" y="522" on="0"/>
        <pt x="870" y="581" on="1"/>
        <pt x="887" y="664" on="0"/>
        <pt x="887" y="776" on="1"/>
        <pt x="887" y="1123" on="0"/>
        <pt x="778" y="1404" on="1"/>
        <pt x="732" y="1517" on="0"/>
        <pt x="609" y="1612" on="0"/>
        <pt x="496" y="1612" on="1"/>
        <pt x="344" y="1612" on="0"/>
        <pt x="270" y="1474" on="1"/>
        <pt x="236" y="1409" on="0"/>
        <pt x="205" y="1222" on="0"/>
      </contour>
    </TTGlyph>
    <TTGlyph name="atilde" xMin="63" yMin="-19" xMax="653" yMax="1708">
      <component glyphName="tilde" x="79" y="484" flags="0x1004"/>
      <component glyphName="a" x="0" y="0" flags="0x1204"/>
    </TTGlyph>
    <TTGlyph name="b" xMin="91" yMin="-20" xMax="451" yMax="1383">
      <contour>
        <pt x="111" y="524" on="1"/>
        <pt x="120" y="1173" on="1"/>
        <pt x="120" y="1244" on="0"/>
        <pt x="118" y="1279" on="1"/>
        <pt x="118" y="1298" on="1"/>
        <pt x="118" y="1383" on="0"/>
        <pt x="176" y="1383" on="1"/>
        <pt x="222" y="1383" on="0"/>
        <pt x="378" y="1331" on="0"/>
        <pt x="378" y="1296" on="1"/>
        <pt x="378" y="1250" on="0"/>
        <pt x="439" y="1073" on="0"/>
        <pt x="439" y="1028" on="1"/>
        <pt x="439" y="889" on="0"/>
        <pt x="399" y="766" on="0"/>
        <pt x="356" y="705" on="1"/>
        <pt x="415" y="648" on="0"/>
        <pt x="451" y="475" on="0"/>
        <pt x="451" y="300" on="0"/>
        <pt x="431" y="192" on="0"/>
        <pt x="385" y="94" on="0"/>
        <pt x="352" y="58" on="1"/>
        <pt x="279" y="-20" on="0"/>
        <pt x="155" y="-20" on="1"/>
        <pt x="111" y="-20" on="0"/>
        <pt x="100" y="18" on="1"/>
        <pt x="91" y="46" on="0"/>
        <pt x="91" y="88" on="1"/>
      </contour>
      <contour>
        <pt x="220" y="244" on="1"/>
        <pt x="207" y="222" on="0"/>
        <pt x="207" y="176" on="1"/>
        <pt x="207" y="84" on="1"/>
        <pt x="273" y="100" on="0"/>
        <pt x="341" y="231" on="0"/>
        <pt x="341" y="343" on="0"/>
        <pt x="338" y="410" on="0"/>
        <pt x="324" y="506" on="0"/>
        <pt x="312" y="542" on="1"/>
        <pt x="283" y="629" on="0"/>
        <pt x="222" y="643" on="1"/>
        <pt x="214" y="525" on="0"/>
        <pt x="214" y="269" on="0"/>
      </contour>
      <contour>
        <pt x="220" y="1288" on="1"/>
        <pt x="220" y="763" on="1"/>
        <pt x="323" y="766" on="0"/>
        <pt x="323" y="1012" on="1"/>
        <pt x="323" y="1077" on="0"/>
        <pt x="308" y="1147" on="1"/>
        <pt x="278" y="1282" on="0"/>
      </contour>
    </TTGlyph>
    <TTGlyph name="backslash" xMin="60" yMin="-31" xMax="501" yMax="1555">
      <contour>
        <pt x="463" y="-30" on="1"/>
        <pt x="463" y="-31" on="1"/>
        <pt x="431" y="-31" on="0"/>
        <pt x="406" y="24" on="1"/>
        <pt x="361" y="124" on="0"/>
        <pt x="333" y="293" on="1"/>
        <pt x="293" y="478" on="0"/>
        <pt x="134" y="1166" on="0"/>
        <pt x="97" y="1333" on="0"/>
        <pt x="86" y="1372" on="1"/>
        <pt x="60" y="1458" on="0"/>
        <pt x="60" y="1527" on="0"/>
        <pt x="93" y="1555" on="0"/>
        <pt x="128" y="1555" on="0"/>
        <pt x="147" y="1541" on="0"/>
        <pt x="159" y="1513" on="0"/>
        <pt x="165" y="1493" on="0"/>
        <pt x="171" y="1456" on="0"/>
        <pt x="195" y="1353" on="0"/>
        <pt x="316" y="910" on="0"/>
        <pt x="367" y="722" on="1"/>
        <pt x="501" y="230" on="0"/>
        <pt x="501" y="31" on="1"/>
        <pt x="501" y="-6" on="0"/>
      </contour>
    </TTGlyph>
    <TTGlyph name="bar" xMin="110" yMin="-80" xMax="230" yMax="1584">
      <contour>
        <pt x="223" y="1533" on="1"/>
        <pt x="230" y="379" on="1"/>
        <pt x="230" y="-29" on="1"/>
        <pt x="230" y="-50" on="0"/>
        <pt x="196" y="-80" on="0"/>
        <pt x="175" y="-80" on="1"/>
        <pt x="124" y="-80" on="0"/>
        <pt x="124" y="114" on="1"/>
        <pt x="110" y="1510" on="1"/>
        <pt x="110" y="1584" on="0"/>
        <pt x="181" y="1584" on="1"/>
        <pt x="199" y="1584" on="0"/>
        <pt x="223" y="1552" on="0"/>
      </contour>
    </TTGlyph>
    <TTGlyph name="braceleft" xMin="57" yMin="-48" xMax="542" yMax="1495">
      <contour>
        <pt x="384" y="39" on="1"/>
        <pt x="505" y="62" on="1"/>
        <pt x="513" y="62" on="0"/>
        <pt x="522" y="27" on="0"/>
        <pt x="522" y="-8" on="0"/>
        <pt x="498" y="-24" on="1"/>
        <pt x="460" y="-48" on="0"/>
        <pt x="399" y="-48" on="1"/>
        <pt x="283" y="-48" on="0"/>
        <pt x="197" y="77" on="0"/>
        <pt x="197" y="198" on="1"/>
        <pt x="197" y="621" on="1"/>
        <pt x="197" y="697" on="0"/>
        <pt x="160" y="711" on="1"/>
        <pt x="131" y="722" on="0"/>
        <pt x="78" y="724" on="0"/>
        <pt x="57" y="744" on="0"/>
        <pt x="57" y="793" on="0"/>
        <pt x="86" y="815" on="0"/>
        <pt x="126" y="817" on="0"/>
        <pt x="146" y="822" on="1"/>
        <pt x="196" y="832" on="0"/>
        <pt x="196" y="916" on="1"/>
        <pt x="186" y="1130" on="1"/>
        <pt x="186" y="1204" on="0"/>
        <pt x="199" y="1226" on="1"/>
        <pt x="194" y="1256" on="0"/>
        <pt x="194" y="1280" on="1"/>
        <pt x="194" y="1374" on="0"/>
        <pt x="300" y="1495" on="0"/>
        <pt x="399" y="1495" on="1"/>
        <pt x="464" y="1495" on="0"/>
        <pt x="542" y="1456" on="0"/>
        <pt x="542" y="1413" on="0"/>
        <pt x="507" y="1389" on="0"/>
        <pt x="485" y="1389" on="1"/>
        <pt x="384" y="1408" on="1"/>
        <pt x="286" y="1408" on="0"/>
        <pt x="286" y="1157" on="1"/>
        <pt x="294" y="947" on="1"/>
        <pt x="294" y="815" on="0"/>
        <pt x="258" y="768" on="1"/>
        <pt x="295" y="722" on="0"/>
        <pt x="295" y="622" on="1"/>
        <pt x="295" y="192" on="1"/>
        <pt x="295" y="106" on="0"/>
        <pt x="310" y="82" on="1"/>
        <pt x="336" y="39" on="0"/>
      </contour>
    </TTGlyph>
    <TTGlyph name="braceright" xMin="60" yMin="-48" xMax="535" yMax="1495">
      <contour>
        <pt x="218" y="1408" on="1"/>
        <pt x="97" y="1385" on="1"/>
        <pt x="89" y="1385" on="0"/>
        <pt x="80" y="1420" on="0"/>
        <pt x="80" y="1455" on="0"/>
        <pt x="104" y="1470" on="1"/>
        <pt x="142" y="1495" on="0"/>
        <pt x="203" y="1495" on="1"/>
        <pt x="317" y="1495" on="0"/>
        <pt x="405" y="1369" on="0"/>
        <pt x="405" y="1249" on="1"/>
        <pt x="405" y="876" on="1"/>
        <pt x="405" y="790" on="0"/>
        <pt x="451" y="780" on="1"/>
        <pt x="470" y="775" on="0"/>
        <pt x="489" y="774" on="1"/>
        <pt x="535" y="772" on="0"/>
        <pt x="535" y="731" on="1"/>
        <pt x="535" y="683" on="0"/>
        <pt x="490" y="681" on="1"/>
        <pt x="471" y="680" on="0"/>
        <pt x="452" y="676" on="1"/>
        <pt x="406" y="666" on="0"/>
        <pt x="406" y="581" on="1"/>
        <pt x="414" y="330" on="1"/>
        <pt x="414" y="239" on="0"/>
        <pt x="403" y="221" on="1"/>
        <pt x="407" y="196" on="0"/>
        <pt x="407" y="166" on="1"/>
        <pt x="407" y="72" on="0"/>
        <pt x="302" y="-48" on="0"/>
        <pt x="203" y="-48" on="1"/>
        <pt x="138" y="-48" on="0"/>
        <pt x="60" y="-9" on="0"/>
        <pt x="60" y="34" on="0"/>
        <pt x="95" y="58" on="0"/>
        <pt x="117" y="58" on="1"/>
        <pt x="218" y="39" on="1"/>
        <pt x="316" y="39" on="0"/>
        <pt x="316" y="289" on="1"/>
        <pt x="306" y="534" on="1"/>
        <pt x="306" y="681" on="0"/>
        <pt x="344" y="729" on="1"/>
        <pt x="307" y="776" on="0"/>
        <pt x="307" y="875" on="1"/>
        <pt x="317" y="1127" on="1"/>
        <pt x="317" y="1408" on="0"/>
      </contour>
    </TTGlyph>
    <TTGlyph name="bracketleft" xMin="72" yMin="-112" xMax="471" yMax="1576">
      <contour>
        <pt x="415" y="1465" on="1"/>
        <pt x="300" y="1478" on="1"/>
        <pt x="262" y="1478" on="0"/>
        <pt x="262" y="1458" on="1"/>
        <pt x="262" y="1173" on="0"/>
        <pt x="212" y="416" on="0"/>
        <pt x="207" y="337" on="0"/>
        <pt x="182" y="110" on="0"/>
        <pt x="182" y="48" on="1"/>
        <pt x="182" y="6" on="1"/>
        <pt x="191" y="6" on="1"/>
        <pt x="385" y="7" on="0"/>
        <pt x="385" y="-68" on="1"/>
        <pt x="385" y="-112" on="0"/>
        <pt x="319" y="-112" on="1"/>
        <pt x="72" y="-112" on="0"/>
        <pt x="72" y="-35" on="1"/>
        <pt x="72" y="49" on="0"/>
        <pt x="115" y="386" on="0"/>
        <pt x="115" y="639" on="0"/>
        <pt x="168" y="1311" on="0"/>
        <pt x="168" y="1480" on="1"/>
        <pt x="168" y="1545" on="0"/>
        <pt x="207" y="1576" on="1"/>
        <pt x="285" y="1576" on="1"/>
        <pt x="471" y="1576" on="0"/>
        <pt x="471" y="1511" on="1"/>
        <pt x="471" y="1490" on="0"/>
        <pt x="436" y="1465" on="0"/>
      </contour>
    </TTGlyph>
    <TTGlyph name="bracketright" xMin="54" yMin="-112" xMax="435" yMax="1578">
      <contour>
        <pt x="121" y="-68" on="1"/>
        <pt x="121" y="6" on="0"/>
        <pt x="302" y="6" on="1"/>
        <pt x="323" y="6" on="1"/>
        <pt x="323" y="48" on="1"/>
        <pt x="319" y="250" on="0"/>
        <pt x="263" y="1201" on="0"/>
        <pt x="263" y="1458" on="1"/>
        <pt x="263" y="1476" on="1"/>
        <pt x="128" y="1465" on="1"/>
        <pt x="54" y="1465" on="0"/>
        <pt x="54" y="1511" on="1"/>
        <pt x="54" y="1578" on="0"/>
        <pt x="247" y="1578" on="1"/>
        <pt x="319" y="1578" on="1"/>
        <pt x="352" y="1564" on="0"/>
        <pt x="358" y="1533" on="0"/>
        <pt x="359" y="1525" on="0"/>
        <pt x="358" y="1488" on="0"/>
        <pt x="358" y="1318" on="0"/>
        <pt x="394" y="672" on="0"/>
        <pt x="394" y="418" on="0"/>
        <pt x="435" y="56" on="0"/>
        <pt x="435" y="-35" on="1"/>
        <pt x="435" y="-112" on="0"/>
        <pt x="187" y="-112" on="1"/>
        <pt x="121" y="-112" on="0"/>
      </contour>
    </TTGlyph>
    <TTGlyph name="breve" xMin="95" yMin="867" xMax="444" yMax="1142">
      <contour>
        <pt x="435" y="1048" on="1"/>
        <pt x="435" y="1031" on="1"/>
        <pt x="426" y="1004" on="0"/>
        <pt x="385" y="922" on="0"/>
        <pt x="372" y="910" on="0"/>
        <pt x="347" y="884" on="0"/>
        <pt x="334" y="880" on="1"/>
        <pt x="294" y="867" on="0"/>
        <pt x="222" y="867" on="0"/>
        <pt x="153" y="909" on="0"/>
        <pt x="134" y="944" on="1"/>
        <pt x="95" y="1012" on="0"/>
        <pt x="95" y="1100" on="1"/>
        <pt x="95" y="1110" on="1"/>
        <pt x="133" y="1142" on="1"/>
        <pt x="177" y="1142" on="0"/>
        <pt x="193" y="1067" on="1"/>
        <pt x="210" y="985" on="0"/>
        <pt x="242" y="962" on="1"/>
        <pt x="285" y="962" on="1"/>
        <pt x="299" y="962" on="0"/>
        <pt x="332" y="1027" on="0"/>
        <pt x="332" y="1066" on="0"/>
        <pt x="334" y="1088" on="0"/>
        <pt x="344" y="1119" on="0"/>
        <pt x="369" y="1133" on="0"/>
        <pt x="411" y="1133" on="0"/>
        <pt x="444" y="1102" on="0"/>
        <pt x="444" y="1080" on="0"/>
      </contour>
    </TTGlyph>
    <TTGlyph name="brokenbar" xMin="106" yMin="-80" xMax="220" yMax="1584">
      <contour>
        <pt x="159" y="695" on="1"/>
        <pt x="220" y="695" on="0"/>
        <pt x="220" y="621" on="1"/>
        <pt x="220" y="-16" on="1"/>
        <pt x="220" y="-80" on="0"/>
        <pt x="171" y="-80" on="1"/>
        <pt x="150" y="-80" on="0"/>
        <pt x="119" y="-50" on="0"/>
        <pt x="119" y="-29" on="1"/>
        <pt x="119" y="644" on="1"/>
        <pt x="119" y="664" on="0"/>
        <pt x="141" y="695" on="0"/>
      </contour>
      <contour>
        <pt x="114" y="1020" on="1"/>
        <pt x="114" y="1020" on="0"/>
        <pt x="106" y="1510" on="1"/>
        <pt x="106" y="1584" on="0"/>
        <pt x="177" y="1584" on="1"/>
        <pt x="220" y="1584" on="0"/>
        <pt x="220" y="1393" on="1"/>
        <pt x="220" y="877" on="1"/>
        <pt x="220" y="856" on="0"/>
        <pt x="186" y="826" on="0"/>
        <pt x="165" y="826" on="1"/>
        <pt x="114" y="826" on="0"/>
      </contour>
    </TTGlyph>
    <TTGlyph name="bullet" xMin="102" yMin="485" xMax="534" yMax="1011">
      <contour>
        <pt x="103" y="665" on="1"/>
        <pt x="102" y="727" on="1"/>
        <pt x="102" y="767" on="0"/>
        <pt x="116" y="809" on="1"/>
        <pt x="132" y="858" on="0"/>
        <pt x="171" y="920" on="1"/>
        <pt x="185" y="941" on="0"/>
        <pt x="277" y="1011" on="0"/>
        <pt x="298" y="1011" on="1"/>
        <pt x="365" y="1011" on="0"/>
        <pt x="464" y="964" on="0"/>
        <pt x="488" y="926" on="1"/>
        <pt x="534" y="855" on="0"/>
        <pt x="534" y="779" on="1"/>
        <pt x="534" y="653" on="0"/>
        <pt x="469" y="564" on="1"/>
        <pt x="412" y="485" on="0"/>
        <pt x="227" y="485" on="0"/>
        <pt x="103" y="607" on="0"/>
      </contour>
    </TTGlyph>
    <TTGlyph name="c" xMin="77" yMin="-29" xMax="499" yMax="1364">
      <contour>
        <pt x="437" y="97" on="1"/>
        <pt x="499" y="97" on="0"/>
        <pt x="499" y="52" on="1"/>
        <pt x="499" y="-29" on="0"/>
        <pt x="385" y="-29" on="1"/>
        <pt x="338" y="-29" on="0"/>
        <pt x="239" y="-2" on="0"/>
        <pt x="214" y="14" on="1"/>
        <pt x="78" y="102" on="0"/>
        <pt x="78" y="495" on="1"/>
        <pt x="77" y="615" on="1"/>
        <pt x="77" y="1204" on="0"/>
        <pt x="221" y="1310" on="1"/>
        <pt x="295" y="1364" on="0"/>
        <pt x="427" y="1364" on="1"/>
        <pt x="449" y="1364" on="0"/>
        <pt x="486" y="1332" on="0"/>
        <pt x="486" y="1311" on="1"/>
        <pt x="486" y="1303" on="1"/>
        <pt x="467" y="1256" on="0"/>
        <pt x="387" y="1256" on="1"/>
        <pt x="350" y="1258" on="1"/>
        <pt x="316" y="1258" on="0"/>
        <pt x="263" y="1184" on="0"/>
        <pt x="235" y="1080" on="0"/>
        <pt x="226" y="1016" on="1"/>
        <pt x="212" y="915" on="0"/>
        <pt x="212" y="827" on="1"/>
        <pt x="212" y="817" on="1"/>
        <pt x="199" y="422" on="1"/>
        <pt x="199" y="297" on="0"/>
        <pt x="226" y="201" on="0"/>
        <pt x="255" y="142" on="0"/>
        <pt x="275" y="123" on="1"/>
        <pt x="321" y="79" on="0"/>
        <pt x="393" y="79" on="1"/>
        <pt x="417" y="79" on="0"/>
      </contour>
    </TTGlyph>
    <TTGlyph name="cacute" xMin="77" yMin="-29" xMax="575" yMax="1768">
      <component glyphName="acute" x="139" y="195" flags="0x1004"/>
      <component glyphName="c" x="0" y="0" flags="0x1204"/>
    </TTGlyph>
    <TTGlyph name="caron" xMin="82" yMin="928" xMax="411" yMax="1356">
      <contour>
        <pt x="411" y="1310" on="1"/>
        <pt x="411" y="1300" on="0"/>
        <pt x="404" y="1279" on="1"/>
        <pt x="404" y="1242" on="1"/>
        <pt x="391" y="1240" on="0"/>
        <pt x="391" y="1239" on="1"/>
        <pt x="391" y="1229" on="0"/>
        <pt x="330" y="1024" on="0"/>
        <pt x="330" y="994" on="1"/>
        <pt x="330" y="928" on="0"/>
        <pt x="229" y="928" on="0"/>
        <pt x="89" y="1240" on="0"/>
        <pt x="82" y="1309" on="1"/>
        <pt x="148" y="1356" on="1"/>
        <pt x="201" y="1285" on="1"/>
        <pt x="202" y="1247" on="0"/>
        <pt x="260" y="1091" on="1"/>
        <pt x="290" y="1209" on="0"/>
        <pt x="302" y="1332" on="1"/>
        <pt x="346" y="1332" on="1"/>
        <pt x="381" y="1333" on="1"/>
        <pt x="411" y="1333" on="0"/>
      </contour>
    </TTGlyph>
    <TTGlyph name="ccaron" xMin="77" yMin="-29" xMax="561" yMax="1908">
      <component glyphName="caron" x="150" y="552" flags="0x1004"/>
      <component glyphName="c" x="0" y="0" flags="0x1204"/>
    </TTGlyph>
    <TTGlyph name="ccedilla" xMin="77" yMin="-538" xMax="615" yMax="1364">
      <component glyphName="cedilla" x="236" y="-34" flags="0x1004"/>
      <component glyphName="c" x="0" y="0" flags="0x1204"/>
    </TTGlyph>
    <TTGlyph name="ccircumflex" xMin="77" yMin="-29" xMax="499" yMax="1912">
      <component glyphName="circumflex" x="41" y="553" flags="0x1004"/>
      <component glyphName="c" x="0" y="0" flags="0x1204"/>
    </TTGlyph>
    <TTGlyph name="cdotaccent" xMin="77" yMin="-29" xMax="499" yMax="1632">
      <component glyphName="dotaccent" x="229" y="90" flags="0x1004"/>
      <component glyphName="c" x="0" y="0" flags="0x1204"/>
    </TTGlyph>
    <TTGlyph name="cedilla" xMin="88" yMin="-504" xMax="379" yMax="2">
      <contour>
        <pt x="112" y="-157" on="1"/>
        <pt x="131" y="-119" on="0"/>
        <pt x="131" y="-45" on="1"/>
        <pt x="131" y="2" on="1"/>
        <pt x="243" y="2" on="1"/>
        <pt x="232" y="-55" on="0"/>
        <pt x="230" y="-91" on="1"/>
        <pt x="308" y="-106" on="0"/>
        <pt x="379" y="-232" on="0"/>
        <pt x="379" y="-385" on="0"/>
        <pt x="267" y="-504" on="0"/>
        <pt x="158" y="-504" on="0"/>
        <pt x="88" y="-463" on="0"/>
        <pt x="88" y="-407" on="0"/>
        <pt x="116" y="-381" on="0"/>
        <pt x="171" y="-381" on="0"/>
        <pt x="200" y="-401" on="1"/>
        <pt x="215" y="-400" on="0"/>
        <pt x="246" y="-357" on="0"/>
        <pt x="246" y="-325" on="0"/>
        <pt x="239" y="-292" on="0"/>
        <pt x="225" y="-250" on="0"/>
        <pt x="223" y="-240" on="1"/>
        <pt x="258" y="-275" on="1"/>
        <pt x="258" y="-266" on="1"/>
        <pt x="258" y="-230" on="0"/>
        <pt x="241" y="-214" on="1"/>
        <pt x="208" y="-219" on="0"/>
        <pt x="168" y="-219" on="0"/>
        <pt x="136" y="-194" on="0"/>
      </contour>
    </TTGlyph>
    <TTGlyph name="cent" xMin="84" yMin="-20" xMax="617" yMax="1456">
      <contour>
        <pt x="250" y="1254" on="1"/>
        <pt x="238" y="1368" on="1"/>
        <pt x="238" y="1456" on="0"/>
        <pt x="292" y="1456" on="1"/>
        <pt x="317" y="1440" on="0"/>
        <pt x="326" y="1413" on="0"/>
        <pt x="326" y="1332" on="0"/>
        <pt x="336" y="1254" on="1"/>
        <pt x="345" y="1251" on="0"/>
        <pt x="394" y="1238" on="0"/>
        <pt x="424" y="1229" on="0"/>
        <pt x="469" y="1210" on="0"/>
        <pt x="483" y="1200" on="1"/>
        <pt x="516" y="1176" on="0"/>
        <pt x="520" y="1140" on="1"/>
        <pt x="520" y="1135" on="1"/>
        <pt x="520" y="1118" on="0"/>
        <pt x="493" y="1084" on="0"/>
        <pt x="454" y="1084" on="0"/>
        <pt x="417" y="1117" on="0"/>
        <pt x="408" y="1140" on="1"/>
        <pt x="350" y="1140" on="1"/>
        <pt x="390" y="609" on="0"/>
        <pt x="407" y="424" on="0"/>
        <pt x="404" y="406" on="0"/>
        <pt x="404" y="399" on="0"/>
        <pt x="406" y="391" on="1"/>
        <pt x="461" y="393" on="0"/>
        <pt x="489" y="423" on="1"/>
        <pt x="524" y="460" on="0"/>
        <pt x="558" y="511" on="1"/>
        <pt x="617" y="511" on="0"/>
        <pt x="617" y="451" on="1"/>
        <pt x="617" y="398" on="0"/>
        <pt x="467" y="306" on="0"/>
        <pt x="405" y="301" on="1"/>
        <pt x="405" y="222" on="1"/>
        <pt x="419" y="28" on="1"/>
        <pt x="419" y="8" on="0"/>
        <pt x="390" y="-20" on="0"/>
        <pt x="371" y="-20" on="1"/>
        <pt x="339" y="12" on="0"/>
        <pt x="339" y="65" on="1"/>
        <pt x="339" y="65" on="0"/>
        <pt x="331" y="202" on="1"/>
        <pt x="331" y="227" on="0"/>
        <pt x="324" y="313" on="1"/>
        <pt x="232" y="346" on="0"/>
        <pt x="162" y="418" on="0"/>
        <pt x="126" y="464" on="0"/>
        <pt x="104" y="532" on="0"/>
        <pt x="91" y="583" on="0"/>
        <pt x="88" y="626" on="1"/>
        <pt x="84" y="683" on="0"/>
        <pt x="84" y="841" on="0"/>
        <pt x="87" y="924" on="0"/>
        <pt x="105" y="1050" on="0"/>
        <pt x="122" y="1094" on="1"/>
        <pt x="162" y="1200" on="0"/>
      </contour>
      <contour>
        <pt x="262" y="1150" on="1"/>
        <pt x="220" y="1095" on="0"/>
        <pt x="183" y="885" on="0"/>
        <pt x="183" y="790" on="1"/>
        <pt x="183" y="428" on="0"/>
        <pt x="327" y="406" on="1"/>
        <pt x="316" y="627" on="0"/>
      </contour>
    </TTGlyph>
    <TTGlyph name="circumflex" xMin="84" yMin="927" xMax="413" yMax="1359">
      <contour>
        <pt x="395" y="1002" on="1"/>
        <pt x="413" y="977" on="1"/>
        <pt x="413" y="954" on="0"/>
        <pt x="372" y="927" on="0"/>
        <pt x="348" y="927" on="1"/>
        <pt x="304" y="927" on="1"/>
        <pt x="287" y="1098" on="0"/>
        <pt x="264" y="1193" on="1"/>
        <pt x="256" y="1169" on="0"/>
        <pt x="228" y="1078" on="0"/>
        <pt x="220" y="1053" on="1"/>
        <pt x="196" y="985" on="0"/>
        <pt x="151" y="928" on="1"/>
        <pt x="84" y="976" on="1"/>
        <pt x="88" y="1014" on="0"/>
        <pt x="152" y="1194" on="0"/>
        <pt x="247" y="1359" on="0"/>
        <pt x="281" y="1359" on="1"/>
        <pt x="333" y="1359" on="0"/>
        <pt x="333" y="1292" on="1"/>
        <pt x="333" y="1247" on="0"/>
        <pt x="395" y="1089" on="0"/>
        <pt x="395" y="1054" on="1"/>
      </contour>
    </TTGlyph>
    <TTGlyph name="colon" xMin="94" yMin="177" xMax="264" yMax="1103">
      <contour>
        <pt x="155" y="951" on="0"/>
        <pt x="115" y="996" on="0"/>
        <pt x="115" y="1054" on="0"/>
        <pt x="161" y="1103" on="0"/>
        <pt x="220" y="1103" on="0"/>
        <pt x="264" y="1055" on="0"/>
        <pt x="264" y="992" on="0"/>
        <pt x="218" y="951" on="0"/>
      </contour>
      <contour>
        <pt x="135" y="177" on="0"/>
        <pt x="94" y="222" on="0"/>
        <pt x="94" y="281" on="0"/>
        <pt x="140" y="329" on="0"/>
        <pt x="200" y="329" on="0"/>
        <pt x="243" y="281" on="0"/>
        <pt x="243" y="218" on="0"/>
        <pt x="197" y="177" on="0"/>
      </contour>
    </TTGlyph>
    <TTGlyph name="comma" xMin="82" yMin="-202" xMax="332" yMax="184">
      <contour>
        <pt x="332" y="91" on="1"/>
        <pt x="329" y="77" on="1"/>
        <pt x="329" y="30" on="0"/>
        <pt x="277" y="-100" on="0"/>
        <pt x="187" y="-202" on="0"/>
        <pt x="143" y="-202" on="1"/>
        <pt x="82" y="-202" on="1"/>
        <pt x="82" y="-130" on="1"/>
        <pt x="90" y="-122" on="0"/>
        <pt x="122" y="-96" on="1"/>
        <pt x="189" y="-42" on="0"/>
        <pt x="196" y="-4" on="1"/>
        <pt x="137" y="39" on="0"/>
        <pt x="137" y="134" on="0"/>
        <pt x="200" y="184" on="0"/>
        <pt x="275" y="184" on="0"/>
        <pt x="317" y="139" on="0"/>
        <pt x="332" y="98" on="1"/>
      </contour>
    </TTGlyph>
    <TTGlyph name="copyright" xMin="87" yMin="-20" xMax="1154" yMax="1812">
      <contour>
        <pt x="486" y="412" on="0"/>
        <pt x="568" y="332" on="0"/>
        <pt x="658" y="332" on="0"/>
        <pt x="719" y="366" on="0"/>
        <pt x="736" y="386" on="1"/>
        <pt x="782" y="440" on="0"/>
        <pt x="852" y="440" on="0"/>
        <pt x="883" y="399" on="0"/>
        <pt x="883" y="331" on="0"/>
        <pt x="837" y="296" on="1"/>
        <pt x="746" y="225" on="0"/>
        <pt x="634" y="225" on="1"/>
        <pt x="296" y="225" on="0"/>
        <pt x="296" y="813" on="1"/>
        <pt x="296" y="825" on="1"/>
        <pt x="296" y="1139" on="0"/>
        <pt x="348" y="1286" on="1"/>
        <pt x="386" y="1389" on="0"/>
        <pt x="426" y="1427" on="1"/>
        <pt x="504" y="1499" on="0"/>
        <pt x="682" y="1499" on="0"/>
        <pt x="862" y="1352" on="0"/>
        <pt x="862" y="1275" on="1"/>
        <pt x="862" y="1254" on="0"/>
        <pt x="831" y="1223" on="0"/>
        <pt x="777" y="1223" on="0"/>
        <pt x="731" y="1257" on="0"/>
        <pt x="702" y="1305" on="0"/>
        <pt x="688" y="1329" on="1"/>
        <pt x="654" y="1387" on="0"/>
        <pt x="550" y="1387" on="0"/>
        <pt x="505" y="1302" on="1"/>
        <pt x="414" y="1129" on="0"/>
        <pt x="414" y="815" on="1"/>
        <pt x="414" y="619" on="0"/>
        <pt x="462" y="481" on="1"/>
      </contour>
      <contour>
        <pt x="210" y="1110" on="0"/>
        <pt x="204" y="995" on="0"/>
        <pt x="204" y="888" on="0"/>
        <pt x="210" y="777" on="0"/>
        <pt x="221" y="627" on="0"/>
        <pt x="234" y="405" on="0"/>
        <pt x="256" y="322" on="1"/>
        <pt x="319" y="81" on="0"/>
        <pt x="561" y="81" on="1"/>
        <pt x="763" y="81" on="0"/>
        <pt x="991" y="280" on="0"/>
        <pt x="1040" y="464" on="1"/>
        <pt x="1040" y="894" on="1"/>
        <pt x="1040" y="948" on="0"/>
        <pt x="1002" y="1098" on="0"/>
        <pt x="979" y="1209" on="0"/>
        <pt x="937" y="1343" on="0"/>
        <pt x="903" y="1416" on="1"/>
        <pt x="835" y="1563" on="0"/>
        <pt x="692" y="1658" on="1"/>
        <pt x="611" y="1713" on="0"/>
        <pt x="496" y="1713" on="0"/>
        <pt x="388" y="1649" on="0"/>
        <pt x="316" y="1548" on="0"/>
        <pt x="260" y="1407" on="0"/>
        <pt x="229" y="1267" on="0"/>
      </contour>
      <contour>
        <pt x="197" y="159" on="1"/>
        <pt x="129" y="270" on="0"/>
        <pt x="87" y="760" on="0"/>
        <pt x="87" y="994" on="0"/>
        <pt x="94" y="1133" on="0"/>
        <pt x="118" y="1315" on="0"/>
        <pt x="157" y="1472" on="0"/>
        <pt x="226" y="1630" on="0"/>
        <pt x="272" y="1686" on="1"/>
        <pt x="374" y="1812" on="0"/>
        <pt x="535" y="1812" on="1"/>
        <pt x="828" y="1812" on="0"/>
        <pt x="992" y="1506" on="1"/>
        <pt x="1117" y="1273" on="0"/>
        <pt x="1146" y="926" on="1"/>
        <pt x="1154" y="838" on="0"/>
        <pt x="1154" y="757" on="1"/>
        <pt x="1154" y="-20" on="0"/>
        <pt x="589" y="-20" on="1"/>
        <pt x="305" y="-20" on="0"/>
      </contour>
    </TTGlyph>
    <TTGlyph name="currency" xMin="71" yMin="195" xMax="812" yMax="1351">
      <contour>
        <pt x="328" y="1052" on="1"/>
        <pt x="328" y="1009" on="0"/>
        <pt x="293" y="1009" on="1"/>
        <pt x="275" y="1009" on="0"/>
        <pt x="235" y="765" on="0"/>
        <pt x="235" y="696" on="1"/>
        <pt x="240" y="669" on="1"/>
        <pt x="235" y="585" on="1"/>
        <pt x="235" y="468" on="0"/>
        <pt x="291" y="421" on="1"/>
        <pt x="291" y="305" on="0"/>
        <pt x="447" y="305" on="1"/>
        <pt x="503" y="305" on="0"/>
        <pt x="591" y="378" on="0"/>
        <pt x="641" y="484" on="0"/>
        <pt x="657" y="552" on="1"/>
        <pt x="683" y="664" on="0"/>
        <pt x="683" y="837" on="0"/>
        <pt x="645" y="1041" on="0"/>
        <pt x="620" y="1071" on="1"/>
        <pt x="598" y="1075" on="0"/>
        <pt x="568" y="1110" on="0"/>
        <pt x="566" y="1132" on="1"/>
        <pt x="520" y="1181" on="0"/>
        <pt x="438" y="1181" on="1"/>
        <pt x="420" y="1181" on="0"/>
        <pt x="344" y="1121" on="0"/>
        <pt x="327" y="1100" on="1"/>
        <pt x="327" y="1086" on="1"/>
      </contour>
      <contour>
        <pt x="684" y="251" on="1"/>
        <pt x="684" y="293" on="1"/>
        <pt x="635" y="251" on="0"/>
        <pt x="482" y="205" on="0"/>
        <pt x="310" y="205" on="0"/>
        <pt x="221" y="290" on="1"/>
        <pt x="195" y="234" on="0"/>
        <pt x="158" y="201" on="0"/>
        <pt x="104" y="201" on="0"/>
        <pt x="71" y="244" on="0"/>
        <pt x="71" y="293" on="0"/>
        <pt x="104" y="336" on="0"/>
        <pt x="150" y="381" on="0"/>
        <pt x="157" y="392" on="1"/>
        <pt x="125" y="452" on="0"/>
        <pt x="125" y="567" on="1"/>
        <pt x="125" y="971" on="0"/>
        <pt x="197" y="1078" on="1"/>
        <pt x="191" y="1090" on="0"/>
        <pt x="100" y="1181" on="0"/>
        <pt x="100" y="1228" on="0"/>
        <pt x="129" y="1255" on="0"/>
        <pt x="157" y="1255" on="0"/>
        <pt x="176" y="1250" on="0"/>
        <pt x="190" y="1245" on="0"/>
        <pt x="207" y="1231" on="0"/>
        <pt x="216" y="1224" on="0"/>
        <pt x="233" y="1204" on="0"/>
        <pt x="236" y="1201" on="1"/>
        <pt x="253" y="1180" on="0"/>
        <pt x="257" y="1172" on="1"/>
        <pt x="259" y="1174" on="0"/>
        <pt x="306" y="1227" on="0"/>
        <pt x="320" y="1241" on="1"/>
        <pt x="362" y="1285" on="0"/>
        <pt x="392" y="1285" on="1"/>
        <pt x="512" y="1285" on="0"/>
        <pt x="623" y="1216" on="1"/>
        <pt x="631" y="1226" on="0"/>
        <pt x="678" y="1308" on="0"/>
        <pt x="723" y="1351" on="0"/>
        <pt x="754" y="1351" on="1"/>
        <pt x="807" y="1304" on="1"/>
        <pt x="804" y="1262" on="0"/>
        <pt x="735" y="1178" on="1"/>
        <pt x="712" y="1150" on="0"/>
        <pt x="712" y="1141" on="1"/>
        <pt x="712" y="1081" on="0"/>
        <pt x="802" y="838" on="0"/>
        <pt x="802" y="708" on="0"/>
        <pt x="735" y="461" on="0"/>
        <pt x="735" y="396" on="1"/>
        <pt x="735" y="366" on="0"/>
        <pt x="812" y="278" on="0"/>
        <pt x="812" y="226" on="0"/>
        <pt x="783" y="195" on="0"/>
        <pt x="733" y="195" on="0"/>
        <pt x="687" y="224" on="0"/>
      </contour>
    </TTGlyph>
    <TTGlyph name="d" xMin="86" yMin="-12" xMax="551" yMax="1353">
      <contour>
        <pt x="216" y="1045" on="1"/>
        <pt x="239" y="141" on="1"/>
        <pt x="239" y="92" on="1"/>
        <pt x="276" y="92" on="1"/>
        <pt x="383" y="222" on="0"/>
        <pt x="414" y="330" on="1"/>
        <pt x="443" y="431" on="0"/>
        <pt x="443" y="612" on="1"/>
        <pt x="443" y="1230" on="0"/>
        <pt x="231" y="1258" on="1"/>
        <pt x="216" y="1177" on="0"/>
      </contour>
      <contour>
        <pt x="551" y="808" on="1"/>
        <pt x="547" y="705" on="1"/>
        <pt x="547" y="593" on="1"/>
        <pt x="547" y="390" on="0"/>
        <pt x="511" y="248" on="0"/>
        <pt x="474" y="156" on="0"/>
        <pt x="448" y="120" on="1"/>
        <pt x="388" y="39" on="0"/>
        <pt x="296" y="-12" on="1"/>
        <pt x="156" y="-12" on="1"/>
        <pt x="104" y="-12" on="0"/>
        <pt x="104" y="256" on="1"/>
        <pt x="110" y="901" on="1"/>
        <pt x="110" y="1080" on="0"/>
        <pt x="103" y="1237" on="1"/>
        <pt x="86" y="1257" on="0"/>
        <pt x="86" y="1312" on="0"/>
        <pt x="132" y="1353" on="0"/>
        <pt x="197" y="1353" on="0"/>
        <pt x="220" y="1317" on="1"/>
        <pt x="235" y="1311" on="0"/>
        <pt x="294" y="1301" on="0"/>
        <pt x="308" y="1294" on="1"/>
        <pt x="422" y="1241" on="0"/>
        <pt x="551" y="972" on="0"/>
      </contour>
    </TTGlyph>
    <TTGlyph name="dcaron" xMin="85" yMin="-12" xMax="996" yMax="1378">
      <component glyphName="comma" x="664" y="1194" flags="0x1004"/>
      <component glyphName="d" x="-1" y="0" flags="0x1004"/>
    </TTGlyph>
    <TTGlyph name="dcroat" xMin="86" yMin="-12" xMax="586" yMax="1353">
      <contour>
        <pt x="216" y="1045" on="1"/>
        <pt x="239" y="141" on="1"/>
        <pt x="239" y="92" on="1"/>
        <pt x="281" y="92" on="1"/>
        <pt x="400" y="220" on="0"/>
        <pt x="469" y="425" on="0"/>
        <pt x="469" y="612" on="1"/>
        <pt x="469" y="1230" on="0"/>
        <pt x="231" y="1258" on="1"/>
        <pt x="216" y="1177" on="0"/>
      </contour>
      <contour>
        <pt x="577" y="808" on="1"/>
        <pt x="573" y="705" on="1"/>
        <pt x="573" y="652" on="0"/>
        <pt x="586" y="622" on="1"/>
        <pt x="568" y="523" on="0"/>
        <pt x="549" y="322" on="0"/>
        <pt x="518" y="201" on="0"/>
        <pt x="494" y="158" on="1"/>
        <pt x="437" y="57" on="0"/>
        <pt x="304" y="-12" on="1"/>
        <pt x="156" y="-12" on="1"/>
        <pt x="104" y="-12" on="0"/>
        <pt x="104" y="256" on="1"/>
        <pt x="104" y="256" on="0"/>
        <pt x="110" y="901" on="1"/>
        <pt x="110" y="1080" on="0"/>
        <pt x="103" y="1237" on="1"/>
        <pt x="86" y="1257" on="0"/>
        <pt x="86" y="1312" on="0"/>
        <pt x="132" y="1353" on="0"/>
        <pt x="197" y="1353" on="0"/>
        <pt x="220" y="1317" on="1"/>
        <pt x="236" y="1311" on="0"/>
        <pt x="302" y="1300" on="0"/>
        <pt x="355" y="1278" on="0"/>
        <pt x="467" y="1174" on="0"/>
        <pt x="487" y="1161" on="1"/>
        <pt x="487" y="1148" on="1"/>
        <pt x="545" y="1043" on="0"/>
        <pt x="577" y="925" on="0"/>
      </contour>
    </TTGlyph>
    <TTGlyph name="degree" xMin="99" yMin="438" xMax="610" yMax="970">
      <contour>
        <pt x="393" y="901" on="0"/>
        <pt x="275" y="901" on="0"/>
        <pt x="238" y="863" on="1"/>
        <pt x="176" y="799" on="0"/>
        <pt x="176" y="665" on="1"/>
        <pt x="176" y="617" on="0"/>
        <pt x="273" y="515" on="0"/>
        <pt x="384" y="515" on="0"/>
        <pt x="461" y="548" on="0"/>
        <pt x="505" y="597" on="0"/>
        <pt x="519" y="628" on="1"/>
        <pt x="542" y="679" on="0"/>
        <pt x="542" y="756" on="0"/>
        <pt x="523" y="810" on="0"/>
        <pt x="480" y="866" on="0"/>
      </contour>
      <contour>
        <pt x="99" y="834" on="0"/>
        <pt x="225" y="970" on="0"/>
        <pt x="325" y="970" on="1"/>
        <pt x="505" y="970" on="0"/>
        <pt x="575" y="854" on="1"/>
        <pt x="610" y="796" on="0"/>
        <pt x="610" y="704" on="0"/>
        <pt x="597" y="636" on="0"/>
        <pt x="558" y="551" on="0"/>
        <pt x="528" y="518" on="1"/>
        <pt x="457" y="438" on="0"/>
        <pt x="326" y="438" on="1"/>
        <pt x="260" y="438" on="0"/>
        <pt x="166" y="496" on="0"/>
        <pt x="142" y="543" on="1"/>
        <pt x="99" y="630" on="0"/>
      </contour>
    </TTGlyph>
    <TTGlyph name="dieresis" xMin="97" yMin="954" xMax="658" yMax="1098">
      <contour>
        <pt x="555" y="954" on="0"/>
        <pt x="517" y="996" on="0"/>
        <pt x="517" y="1052" on="0"/>
        <pt x="561" y="1098" on="0"/>
        <pt x="617" y="1098" on="0"/>
        <pt x="658" y="1053" on="0"/>
        <pt x="658" y="994" on="0"/>
        <pt x="612" y="954" on="0"/>
      </contour>
      <contour>
        <pt x="238" y="996" on="0"/>
        <pt x="187" y="954" on="0"/>
        <pt x="128" y="954" on="0"/>
        <pt x="97" y="992" on="0"/>
        <pt x="97" y="1052" on="0"/>
        <pt x="137" y="1095" on="0"/>
        <pt x="196" y="1095" on="0"/>
        <pt x="238" y="1055" on="0"/>
      </contour>
    </TTGlyph>
    <TTGlyph name="divide" xMin="61" yMin="369" xMax="633" yMax="930">
      <contour>
        <pt x="575" y="600" on="1"/>
        <pt x="143" y="590" on="1"/>
        <pt x="61" y="590" on="0"/>
        <pt x="61" y="655" on="1"/>
        <pt x="61" y="676" on="0"/>
        <pt x="86" y="701" on="0"/>
        <pt x="107" y="701" on="1"/>
        <pt x="534" y="701" on="1"/>
        <pt x="608" y="701" on="0"/>
        <pt x="633" y="666" on="0"/>
        <pt x="633" y="647" on="1"/>
        <pt x="633" y="600" on="0"/>
      </contour>
      <contour>
        <pt x="415" y="827" on="0"/>
        <pt x="373" y="789" on="0"/>
        <pt x="317" y="789" on="0"/>
        <pt x="271" y="833" on="0"/>
        <pt x="271" y="889" on="0"/>
        <pt x="316" y="930" on="0"/>
        <pt x="375" y="930" on="0"/>
        <pt x="415" y="884" on="0"/>
      </contour>
      <contour>
        <pt x="373" y="510" on="0"/>
        <pt x="415" y="459" on="0"/>
        <pt x="415" y="400" on="0"/>
        <pt x="377" y="369" on="0"/>
        <pt x="317" y="369" on="0"/>
        <pt x="274" y="409" on="0"/>
        <pt x="274" y="468" on="0"/>
        <pt x="314" y="510" on="0"/>
      </contour>
    </TTGlyph>
    <TTGlyph name="dollar" xMin="66" yMin="-16" xMax="490" yMax="1641">
      <contour>
        <pt x="222" y="243" on="1"/>
        <pt x="266" y="248" on="1"/>
        <pt x="264" y="371" on="0"/>
        <pt x="244" y="695" on="1"/>
        <pt x="236" y="810" on="1"/>
        <pt x="218" y="849" on="0"/>
        <pt x="160" y="959" on="0"/>
        <pt x="123" y="1032" on="0"/>
        <pt x="104" y="1080" on="1"/>
        <pt x="66" y="1174" on="0"/>
        <pt x="66" y="1356" on="0"/>
        <pt x="120" y="1499" on="0"/>
        <pt x="179" y="1518" on="1"/>
        <pt x="173" y="1566" on="0"/>
        <pt x="173" y="1584" on="1"/>
        <pt x="173" y="1641" on="0"/>
        <pt x="204" y="1641" on="1"/>
        <pt x="235" y="1638" on="0"/>
        <pt x="238" y="1617" on="1"/>
        <pt x="241" y="1600" on="0"/>
        <pt x="241" y="1529" on="0"/>
        <pt x="248" y="1529" on="1"/>
        <pt x="284" y="1529" on="0"/>
        <pt x="326" y="1502" on="1"/>
        <pt x="330" y="1497" on="0"/>
        <pt x="365" y="1465" on="0"/>
        <pt x="376" y="1454" on="1"/>
        <pt x="407" y="1423" on="0"/>
        <pt x="407" y="1399" on="1"/>
        <pt x="407" y="1372" on="0"/>
        <pt x="384" y="1352" on="0"/>
        <pt x="350" y="1352" on="0"/>
        <pt x="309" y="1382" on="0"/>
        <pt x="264" y="1428" on="0"/>
        <pt x="246" y="1439" on="1"/>
        <pt x="249" y="1293" on="1"/>
        <pt x="249" y="1207" on="0"/>
        <pt x="269" y="1024" on="0"/>
        <pt x="270" y="1010" on="1"/>
        <pt x="280" y="1012" on="0"/>
        <pt x="386" y="763" on="0"/>
        <pt x="416" y="682" on="1"/>
        <pt x="490" y="487" on="0"/>
        <pt x="490" y="381" on="0"/>
        <pt x="469" y="308" on="0"/>
        <pt x="436" y="257" on="0"/>
        <pt x="415" y="236" on="1"/>
        <pt x="378" y="198" on="0"/>
        <pt x="336" y="180" on="1"/>
        <pt x="342" y="71" on="0"/>
        <pt x="342" y="64" on="1"/>
        <pt x="342" y="-16" on="0"/>
        <pt x="266" y="-16" on="0"/>
        <pt x="266" y="45" on="1"/>
        <pt x="266" y="163" on="1"/>
        <pt x="177" y="163" on="0"/>
        <pt x="80" y="212" on="0"/>
        <pt x="80" y="281" on="1"/>
        <pt x="80" y="298" on="0"/>
        <pt x="105" y="324" on="0"/>
        <pt x="138" y="324" on="0"/>
        <pt x="159" y="301" on="0"/>
        <pt x="180" y="259" on="0"/>
        <pt x="187" y="250" on="1"/>
      </contour>
      <contour>
        <pt x="328" y="269" on="1"/>
        <pt x="392" y="323" on="0"/>
        <pt x="392" y="442" on="0"/>
        <pt x="376" y="511" on="1"/>
        <pt x="355" y="605" on="0"/>
        <pt x="307" y="726" on="0"/>
        <pt x="304" y="735" on="1"/>
        <pt x="306" y="673" on="0"/>
        <pt x="326" y="355" on="0"/>
      </contour>
      <contour>
        <pt x="188" y="1418" on="1"/>
        <pt x="146" y="1378" on="0"/>
        <pt x="146" y="1195" on="0"/>
        <pt x="212" y="1084" on="1"/>
        <pt x="198" y="1186" on="0"/>
      </contour>
    </TTGlyph>
    <TTGlyph name="dotaccent" xMin="102" yMin="1390" xMax="252" yMax="1542">
      <contour>
        <pt x="143" y="1390" on="0"/>
        <pt x="102" y="1435" on="0"/>
        <pt x="102" y="1494" on="0"/>
        <pt x="148" y="1542" on="0"/>
        <pt x="208" y="1542" on="0"/>
        <pt x="252" y="1494" on="0"/>
        <pt x="252" y="1431" on="0"/>
        <pt x="206" y="1390" on="0"/>
      </contour>
    </TTGlyph>
    <TTGlyph name="dotlessi" xMin="53" yMin="0" xMax="493" yMax="1356">
      <contour>
        <pt x="314" y="681" on="1"/>
        <pt x="329" y="246" on="1"/>
        <pt x="329" y="185" on="1"/>
        <pt x="329" y="173" on="0"/>
        <pt x="328" y="162" on="1"/>
        <pt x="326" y="143" on="0"/>
        <pt x="334" y="131" on="1"/>
        <pt x="334" y="128" on="1"/>
        <pt x="334" y="128" on="0"/>
        <pt x="409" y="130" on="1"/>
        <pt x="493" y="130" on="0"/>
        <pt x="493" y="79" on="1"/>
        <pt x="493" y="53" on="0"/>
        <pt x="452" y="16" on="0"/>
        <pt x="425" y="16" on="1"/>
        <pt x="357" y="23" on="1"/>
        <pt x="352" y="23" on="0"/>
        <pt x="300" y="0" on="0"/>
        <pt x="237" y="0" on="0"/>
        <pt x="216" y="20" on="1"/>
        <pt x="200" y="18" on="0"/>
        <pt x="191" y="18" on="1"/>
        <pt x="134" y="18" on="0"/>
        <pt x="115" y="55" on="1"/>
        <pt x="115" y="95" on="0"/>
        <pt x="147" y="110" on="1"/>
        <pt x="147" y="118" on="1"/>
        <pt x="212" y="118" on="1"/>
        <pt x="216" y="145" on="1"/>
        <pt x="202" y="580" on="1"/>
        <pt x="213" y="1036" on="1"/>
        <pt x="213" y="1151" on="0"/>
        <pt x="203" y="1254" on="1"/>
        <pt x="160" y="1254" on="0"/>
        <pt x="87" y="1254" on="0"/>
        <pt x="53" y="1277" on="0"/>
        <pt x="53" y="1309" on="1"/>
        <pt x="53" y="1357" on="0"/>
        <pt x="164" y="1356" on="1"/>
        <pt x="171" y="1356" on="1"/>
        <pt x="434" y="1356" on="0"/>
        <pt x="434" y="1273" on="1"/>
        <pt x="434" y="1262" on="0"/>
        <pt x="422" y="1235" on="1"/>
        <pt x="317" y="1235" on="1"/>
        <pt x="325" y="1160" on="0"/>
        <pt x="325" y="1072" on="1"/>
      </contour>
    </TTGlyph>
    <TTGlyph name="e" xMin="102" yMin="-27" xMax="448" yMax="1352">
      <contour>
        <pt x="289" y="77" on="1"/>
        <pt x="370" y="82" on="1"/>
        <pt x="448" y="82" on="0"/>
        <pt x="448" y="32" on="1"/>
        <pt x="448" y="1" on="0"/>
        <pt x="394" y="-27" on="0"/>
        <pt x="360" y="-27" on="1"/>
        <pt x="167" y="-27" on="1"/>
        <pt x="141" y="-27" on="0"/>
        <pt x="104" y="9" on="0"/>
        <pt x="101" y="65" on="0"/>
        <pt x="112" y="149" on="0"/>
        <pt x="112" y="174" on="1"/>
        <pt x="102" y="436" on="1"/>
        <pt x="116" y="1034" on="1"/>
        <pt x="105" y="1207" on="1"/>
        <pt x="105" y="1352" on="0"/>
        <pt x="191" y="1352" on="1"/>
        <pt x="215" y="1352" on="0"/>
        <pt x="236" y="1337" on="1"/>
        <pt x="244" y="1336" on="0"/>
        <pt x="305" y="1331" on="0"/>
        <pt x="351" y="1323" on="0"/>
        <pt x="378" y="1316" on="1"/>
        <pt x="436" y="1300" on="0"/>
        <pt x="436" y="1261" on="1"/>
        <pt x="436" y="1219" on="0"/>
        <pt x="376" y="1197" on="1"/>
        <pt x="282" y="1229" on="0"/>
        <pt x="221" y="1236" on="1"/>
        <pt x="224" y="1192" on="0"/>
        <pt x="224" y="1148" on="1"/>
        <pt x="215" y="854" on="1"/>
        <pt x="215" y="852" on="0"/>
        <pt x="221" y="822" on="1"/>
        <pt x="221" y="822" on="0"/>
        <pt x="294" y="825" on="1"/>
        <pt x="393" y="825" on="0"/>
        <pt x="393" y="769" on="1"/>
        <pt x="393" y="739" on="0"/>
        <pt x="358" y="693" on="0"/>
        <pt x="294" y="693" on="0"/>
        <pt x="270" y="711" on="1"/>
        <pt x="218" y="711" on="1"/>
        <pt x="224" y="633" on="0"/>
        <pt x="224" y="563" on="1"/>
        <pt x="215" y="192" on="1"/>
        <pt x="215" y="77" on="0"/>
      </contour>
    </TTGlyph>
    <TTGlyph name="eacute" xMin="102" yMin="-27" xMax="508" yMax="1768">
      <component glyphName="acute" x="72" y="195" flags="0x1004"/>
      <component glyphName="e" x="0" y="0" flags="0x1204"/>
    </TTGlyph>
    <TTGlyph name="ebreve" xMin="78" yMin="-27" xMax="448" yMax="1755">
      <component glyphName="breve" x="-17" y="613" flags="0x1004"/>
      <component glyphName="e" x="0" y="0" flags="0x1204"/>
    </TTGlyph>
    <TTGlyph name="ecaron" xMin="86" yMin="-27" xMax="448" yMax="1908">
      <component glyphName="caron" x="4" y="552" flags="0x1004"/>
      <component glyphName="e" x="0" y="0" flags="0x1204"/>
    </TTGlyph>
    <TTGlyph name="ecircumflex" xMin="100" yMin="-27" xMax="448" yMax="1912">
      <component glyphName="circumflex" x="16" y="553" flags="0x1004"/>
      <component glyphName="e" x="0" y="0" flags="0x1204"/>
    </TTGlyph>
    <TTGlyph name="edieresis" xMin="-19" yMin="-27" xMax="542" yMax="1624">
      <component glyphName="dieresis" x="-116" y="526" flags="0x1004"/>
      <component glyphName="e" x="0" y="0" flags="0x1204"/>
    </TTGlyph>
    <TTGlyph name="edotaccent" xMin="102" yMin="-27" xMax="448" yMax="1632">
      <component glyphName="dotaccent" x="40" y="90" flags="0x1004"/>
      <component glyphName="e" x="0" y="0" flags="0x1204"/>
    </TTGlyph>
    <TTGlyph name="egrave" xMin="-64" yMin="-27" xMax="448" yMax="1681">
      <component glyphName="grave" x="-155" y="-45" flags="0x1004"/>
      <component glyphName="e" x="0" y="0" flags="0x1204"/>
    </TTGlyph>
    <TTGlyph name="eight" xMin="70" yMin="-82" xMax="466" yMax="1607">
      <contour>
        <pt x="219" y="1515" on="1"/>
        <pt x="170" y="1460" on="0"/>
        <pt x="170" y="1339" on="0"/>
        <pt x="222" y="1054" on="0"/>
        <pt x="248" y="969" on="1"/>
        <pt x="289" y="1151" on="0"/>
        <pt x="289" y="1312" on="1"/>
        <pt x="289" y="1356" on="0"/>
        <pt x="262" y="1518" on="0"/>
        <pt x="240" y="1518" on="1"/>
      </contour>
      <contour>
        <pt x="276" y="6" on="1"/>
        <pt x="372" y="6" on="0"/>
        <pt x="372" y="288" on="0"/>
        <pt x="314" y="589" on="0"/>
        <pt x="260" y="783" on="1"/>
        <pt x="211" y="583" on="0"/>
        <pt x="211" y="190" on="1"/>
        <pt x="211" y="188" on="1"/>
        <pt x="211" y="147" on="0"/>
        <pt x="252" y="6" on="0"/>
      </contour>
      <contour>
        <pt x="460" y="72" on="1"/>
        <pt x="460" y="60" on="1"/>
        <pt x="397" y="-82" on="0"/>
        <pt x="274" y="-82" on="1"/>
        <pt x="229" y="-82" on="0"/>
        <pt x="163" y="-24" on="0"/>
        <pt x="146" y="22" on="1"/>
        <pt x="115" y="108" on="0"/>
        <pt x="115" y="198" on="1"/>
        <pt x="115" y="540" on="0"/>
        <pt x="181" y="759" on="1"/>
        <pt x="209" y="854" on="0"/>
        <pt x="211" y="863" on="1"/>
        <pt x="156" y="1003" on="0"/>
        <pt x="70" y="1334" on="0"/>
        <pt x="70" y="1497" on="0"/>
        <pt x="141" y="1607" on="0"/>
        <pt x="212" y="1607" on="1"/>
        <pt x="253" y="1607" on="1"/>
        <pt x="353" y="1543" on="0"/>
        <pt x="367" y="1459" on="1"/>
        <pt x="376" y="1406" on="0"/>
        <pt x="376" y="1170" on="0"/>
        <pt x="313" y="891" on="1"/>
        <pt x="309" y="872" on="0"/>
        <pt x="307" y="862" on="1"/>
        <pt x="375" y="698" on="0"/>
        <pt x="466" y="286" on="0"/>
        <pt x="466" y="119" on="1"/>
        <pt x="466" y="94" on="0"/>
      </contour>
    </TTGlyph>
    <TTGlyph name="ellipsis" xMin="105" yMin="-32" xMax="834" yMax="120">
      <contour>
        <pt x="146" y="-32" on="0"/>
        <pt x="105" y="13" on="0"/>
        <pt x="105" y="72" on="0"/>
        <pt x="151" y="120" on="0"/>
        <pt x="211" y="120" on="0"/>
        <pt x="255" y="72" on="0"/>
        <pt x="255" y="9" on="0"/>
        <pt x="209" y="-32" on="0"/>
      </contour>
      <contour>
        <pt x="435" y="-32" on="0"/>
        <pt x="394" y="13" on="0"/>
        <pt x="394" y="72" on="0"/>
        <pt x="440" y="120" on="0"/>
        <pt x="500" y="120" on="0"/>
        <pt x="544" y="72" on="0"/>
        <pt x="544" y="9" on="0"/>
        <pt x="498" y="-32" on="0"/>
      </contour>
      <contour>
        <pt x="725" y="-32" on="0"/>
        <pt x="684" y="13" on="0"/>
        <pt x="684" y="72" on="0"/>
        <pt x="730" y="120" on="0"/>
        <pt x="790" y="120" on="0"/>
        <pt x="834" y="72" on="0"/>
        <pt x="834" y="9" on="0"/>
        <pt x="788" y="-32" on="0"/>
      </contour>
    </TTGlyph>
    <TTGlyph name="emacron" xMin="43" yMin="-27" xMax="485" yMax="1584">
      <component glyphName="macron" x="-63" y="780" flags="0x1004"/>
      <component glyphName="e" x="0" y="0" flags="0x1204"/>
    </TTGlyph>
    <TTGlyph name="emdash" xMin="108" yMin="680" xMax="1005" yMax="779">
      <contour>
        <pt x="766" y="779" on="1"/>
        <pt x="1005" y="779" on="0"/>
        <pt x="1005" y="725" on="1"/>
        <pt x="1005" y="697" on="0"/>
        <pt x="915" y="680" on="0"/>
        <pt x="833" y="680" on="1"/>
        <pt x="231" y="680" on="1"/>
        <pt x="138" y="680" on="0"/>
        <pt x="118" y="704" on="1"/>
        <pt x="108" y="715" on="0"/>
        <pt x="108" y="754" on="0"/>
        <pt x="133" y="779" on="0"/>
        <pt x="154" y="779" on="1"/>
      </contour>
    </TTGlyph>
    <TTGlyph name="endash" xMin="107" yMin="636" xMax="792" yMax="741">
      <contour>
        <pt x="744" y="636" on="1"/>
        <pt x="189" y="646" on="1"/>
        <pt x="107" y="646" on="0"/>
        <pt x="107" y="691" on="1"/>
        <pt x="107" y="712" on="0"/>
        <pt x="132" y="737" on="0"/>
        <pt x="153" y="737" on="1"/>
        <pt x="324" y="737" on="1"/>
        <pt x="512" y="741" on="1"/>
        <pt x="792" y="741" on="0"/>
        <pt x="792" y="683" on="1"/>
        <pt x="792" y="662" on="0"/>
        <pt x="765" y="636" on="0"/>
      </contour>
    </TTGlyph>
    <TTGlyph name="eng" xMin="98" yMin="-6" xMax="783" yMax="1362">
      <contour>
        <pt x="558" y="93" on="1"/>
        <pt x="559" y="102" on="1"/>
        <pt x="559" y="179" on="0"/>
        <pt x="273" y="998" on="0"/>
        <pt x="210" y="1145" on="1"/>
        <pt x="210" y="66" on="1"/>
        <pt x="210" y="2" on="0"/>
        <pt x="169" y="2" on="1"/>
        <pt x="102" y="2" on="0"/>
        <pt x="102" y="127" on="1"/>
        <pt x="98" y="829" on="1"/>
        <pt x="110" y="1211" on="1"/>
        <pt x="110" y="1264" on="0"/>
        <pt x="135" y="1334" on="0"/>
        <pt x="173" y="1362" on="1"/>
        <pt x="173" y="1349" on="1"/>
        <pt x="181" y="1354" on="0"/>
        <pt x="200" y="1354" on="1"/>
        <pt x="231" y="1354" on="0"/>
        <pt x="253" y="1280" on="1"/>
        <pt x="292" y="1137" on="0"/>
        <pt x="498" y="629" on="0"/>
        <pt x="548" y="472" on="0"/>
        <pt x="602" y="248" on="0"/>
        <pt x="626" y="189" on="1"/>
        <pt x="667" y="618" on="0"/>
        <pt x="667" y="1228" on="1"/>
        <pt x="667" y="1228" on="0"/>
        <pt x="664" y="1283" on="1"/>
        <pt x="664" y="1344" on="0"/>
        <pt x="715" y="1344" on="1"/>
        <pt x="745" y="1344" on="0"/>
        <pt x="783" y="1295" on="0"/>
        <pt x="783" y="1264" on="1"/>
        <pt x="783" y="1109" on="1"/>
        <pt x="782" y="898" on="0"/>
        <pt x="733" y="63" on="0"/>
        <pt x="699" y="11" on="1"/>
        <pt x="643" y="-6" on="0"/>
        <pt x="600" y="-6" on="0"/>
        <pt x="577" y="23" on="0"/>
        <pt x="563" y="83" on="0"/>
      </contour>
    </TTGlyph>
    <TTGlyph name="eogonek" xMin="102" yMin="-400" xMax="448" yMax="1352">
      <component glyphName="ogonek" x="91" y="-34" flags="0x1004"/>
      <component glyphName="e" x="0" y="0" flags="0x1204"/>
    </TTGlyph>
    <TTGlyph name="equal" xMin="110" yMin="579" xMax="682" yMax="872">
      <contour>
        <pt x="624" y="579" on="1"/>
        <pt x="192" y="589" on="1"/>
        <pt x="110" y="589" on="0"/>
        <pt x="110" y="634" on="1"/>
        <pt x="110" y="655" on="0"/>
        <pt x="135" y="680" on="0"/>
        <pt x="156" y="680" on="1"/>
        <pt x="463" y="680" on="1"/>
        <pt x="672" y="680" on="0"/>
        <pt x="672" y="626" on="1"/>
        <pt x="672" y="605" on="0"/>
        <pt x="645" y="579" on="0"/>
      </contour>
      <contour>
        <pt x="311" y="770" on="1"/>
        <pt x="233" y="767" on="1"/>
        <pt x="110" y="767" on="0"/>
        <pt x="110" y="826" on="1"/>
        <pt x="110" y="847" on="0"/>
        <pt x="135" y="872" on="0"/>
        <pt x="156" y="872" on="1"/>
        <pt x="523" y="872" on="1"/>
        <pt x="682" y="872" on="0"/>
        <pt x="682" y="764" on="0"/>
        <pt x="466" y="764" on="1"/>
        <pt x="374" y="764" on="0"/>
        <pt x="320" y="770" on="1"/>
      </contour>
    </TTGlyph>
    <TTGlyph name="eth" xMin="80" yMin="-15" xMax="488" yMax="1582">
      <contour>
        <pt x="471" y="1355" on="1"/>
        <pt x="488" y="1355" on="0"/>
        <pt x="488" y="1326" on="1"/>
        <pt x="488" y="1287" on="0"/>
        <pt x="383" y="1267" on="1"/>
        <pt x="435" y="1025" on="0"/>
        <pt x="435" y="641" on="1"/>
        <pt x="426" y="283" on="1"/>
        <pt x="426" y="167" on="0"/>
        <pt x="403" y="90" on="0"/>
        <pt x="378" y="38" on="0"/>
        <pt x="360" y="22" on="1"/>
        <pt x="318" y="-15" on="0"/>
        <pt x="254" y="-15" on="1"/>
        <pt x="108" y="-15" on="0"/>
        <pt x="88" y="184" on="1"/>
        <pt x="83" y="239" on="0"/>
        <pt x="82" y="313" on="0"/>
        <pt x="81" y="342" on="0"/>
        <pt x="80" y="431" on="0"/>
        <pt x="82" y="517" on="0"/>
        <pt x="93" y="635" on="0"/>
        <pt x="110" y="735" on="0"/>
        <pt x="143" y="838" on="0"/>
        <pt x="165" y="874" on="1"/>
        <pt x="215" y="956" on="0"/>
        <pt x="294" y="956" on="1"/>
        <pt x="302" y="956" on="0"/>
        <pt x="320" y="954" on="1"/>
        <pt x="295" y="1143" on="0"/>
        <pt x="272" y="1251" on="1"/>
        <pt x="188" y="1242" on="0"/>
        <pt x="103" y="1242" on="1"/>
        <pt x="86" y="1242" on="0"/>
        <pt x="86" y="1272" on="1"/>
        <pt x="86" y="1319" on="0"/>
        <pt x="252" y="1340" on="1"/>
        <pt x="222" y="1451" on="0"/>
        <pt x="196" y="1473" on="1"/>
        <pt x="153" y="1480" on="0"/>
        <pt x="114" y="1520" on="0"/>
        <pt x="114" y="1557" on="0"/>
        <pt x="148" y="1582" on="0"/>
        <pt x="167" y="1582" on="1"/>
        <pt x="294" y="1582" on="0"/>
        <pt x="361" y="1351" on="1"/>
        <pt x="435" y="1355" on="0"/>
      </contour>
      <contour>
        <pt x="182" y="390" on="1"/>
        <pt x="181" y="352" on="1"/>
        <pt x="181" y="325" on="1"/>
        <pt x="181" y="72" on="0"/>
        <pt x="249" y="72" on="1"/>
        <pt x="308" y="72" on="0"/>
        <pt x="315" y="152" on="1"/>
        <pt x="316" y="163" on="0"/>
        <pt x="318" y="204" on="0"/>
        <pt x="340" y="489" on="0"/>
        <pt x="340" y="849" on="0"/>
        <pt x="281" y="885" on="1"/>
        <pt x="233" y="872" on="0"/>
        <pt x="206" y="740" on="1"/>
        <pt x="182" y="628" on="0"/>
        <pt x="182" y="434" on="1"/>
      </contour>
    </TTGlyph>
    <TTGlyph name="exclam" xMin="70" yMin="-52" xMax="254" yMax="1572">
      <contour>
        <pt x="203" y="543" on="1"/>
        <pt x="199" y="430" on="1"/>
        <pt x="199" y="303" on="0"/>
        <pt x="135" y="303" on="0"/>
        <pt x="135" y="482" on="1"/>
        <pt x="134" y="821" on="1"/>
        <pt x="134" y="821" on="0"/>
        <pt x="117" y="1493" on="1"/>
        <pt x="117" y="1525" on="0"/>
        <pt x="171" y="1572" on="0"/>
        <pt x="225" y="1572" on="0"/>
        <pt x="254" y="1543" on="0"/>
        <pt x="254" y="1522" on="1"/>
        <pt x="254" y="1358" on="0"/>
        <pt x="203" y="706" on="0"/>
      </contour>
      <contour>
        <pt x="148" y="-38" on="1"/>
        <pt x="98" y="-25" on="0"/>
        <pt x="70" y="33" on="1"/>
        <pt x="70" y="68" on="0"/>
        <pt x="120" y="125" on="0"/>
        <pt x="194" y="125" on="0"/>
        <pt x="239" y="67" on="0"/>
        <pt x="239" y="26" on="1"/>
        <pt x="239" y="-46" on="0"/>
        <pt x="148" y="-52" on="1"/>
      </contour>
    </TTGlyph>
    <TTGlyph name="exclamdown" xMin="74" yMin="-52" xMax="258" yMax="1572">
      <contour>
        <pt x="131" y="699" on="1"/>
        <pt x="123" y="1038" on="1"/>
        <pt x="123" y="1148" on="0"/>
        <pt x="133" y="1222" on="1"/>
        <pt x="142" y="1250" on="0"/>
        <pt x="161" y="1250" on="1"/>
        <pt x="188" y="1250" on="0"/>
        <pt x="217" y="1128" on="0"/>
        <pt x="217" y="894" on="0"/>
        <pt x="258" y="177" on="0"/>
        <pt x="258" y="-2" on="1"/>
        <pt x="258" y="-23" on="0"/>
        <pt x="229" y="-52" on="0"/>
        <pt x="175" y="-52" on="0"/>
        <pt x="121" y="-5" on="0"/>
        <pt x="121" y="27" on="1"/>
      </contour>
      <contour>
        <pt x="243" y="1453" on="0"/>
        <pt x="198" y="1395" on="0"/>
        <pt x="126" y="1395" on="0"/>
        <pt x="74" y="1448" on="0"/>
        <pt x="74" y="1481" on="1"/>
        <pt x="74" y="1487" on="1"/>
        <pt x="78" y="1572" on="0"/>
        <pt x="152" y="1572" on="1"/>
        <pt x="192" y="1572" on="0"/>
        <pt x="243" y="1533" on="0"/>
      </contour>
    </TTGlyph>
    <TTGlyph name="f" xMin="84" yMin="-30" xMax="480" yMax="1364">
      <contour>
        <pt x="226" y="808" on="1"/>
        <pt x="245" y="1219" on="1"/>
        <pt x="245" y="1243" on="1"/>
        <pt x="335" y="1243" on="0"/>
        <pt x="376" y="1223" on="1"/>
        <pt x="480" y="1223" on="0"/>
        <pt x="480" y="1281" on="1"/>
        <pt x="480" y="1347" on="0"/>
        <pt x="278" y="1362" on="1"/>
        <pt x="242" y="1364" on="0"/>
        <pt x="181" y="1364" on="0"/>
        <pt x="132" y="1332" on="0"/>
        <pt x="132" y="1303" on="1"/>
        <pt x="132" y="1213" on="0"/>
        <pt x="111" y="845" on="0"/>
        <pt x="100" y="190" on="0"/>
        <pt x="84" y="13" on="1"/>
        <pt x="141" y="-30" on="1"/>
        <pt x="210" y="-30" on="0"/>
        <pt x="210" y="72" on="1"/>
        <pt x="210" y="652" on="1"/>
        <pt x="248" y="640" on="0"/>
        <pt x="319" y="640" on="0"/>
        <pt x="363" y="673" on="0"/>
        <pt x="363" y="700" on="1"/>
        <pt x="363" y="754" on="0"/>
        <pt x="264" y="754" on="1"/>
        <pt x="226" y="753" on="1"/>
      </contour>
    </TTGlyph>
    <TTGlyph name="five" xMin="64" yMin="-37" xMax="509" yMax="1574">
      <contour>
        <pt x="245" y="907" on="1"/>
        <pt x="178" y="891" on="1"/>
        <pt x="129" y="891" on="0"/>
        <pt x="115" y="930" on="1"/>
        <pt x="103" y="963" on="0"/>
        <pt x="103" y="1008" on="1"/>
        <pt x="114" y="1112" on="1"/>
        <pt x="114" y="1240" on="0"/>
        <pt x="64" y="1540" on="1"/>
        <pt x="99" y="1574" on="1"/>
        <pt x="266" y="1574" on="1"/>
        <pt x="328" y="1574" on="0"/>
        <pt x="351" y="1541" on="0"/>
        <pt x="351" y="1524" on="1"/>
        <pt x="351" y="1513" on="1"/>
        <pt x="313" y="1482" on="1"/>
        <pt x="269" y="1482" on="1"/>
        <pt x="269" y="1477" on="1"/>
        <pt x="175" y="1477" on="1"/>
        <pt x="179" y="1365" on="0"/>
        <pt x="215" y="1002" on="1"/>
        <pt x="220" y="1001" on="0"/>
        <pt x="289" y="995" on="0"/>
        <pt x="303" y="992" on="1"/>
        <pt x="354" y="983" on="0"/>
        <pt x="381" y="965" on="1"/>
        <pt x="428" y="933" on="0"/>
        <pt x="459" y="821" on="1"/>
        <pt x="509" y="640" on="0"/>
        <pt x="509" y="434" on="1"/>
        <pt x="509" y="259" on="0"/>
        <pt x="489" y="179" on="0"/>
        <pt x="464" y="105" on="0"/>
        <pt x="446" y="78" on="1"/>
        <pt x="404" y="17" on="0"/>
        <pt x="336" y="-36" on="1"/>
        <pt x="301" y="-37" on="1"/>
        <pt x="189" y="-37" on="0"/>
        <pt x="189" y="21" on="1"/>
        <pt x="189" y="44" on="0"/>
        <pt x="228" y="67" on="0"/>
        <pt x="282" y="67" on="0"/>
        <pt x="305" y="50" on="1"/>
        <pt x="354" y="67" on="0"/>
        <pt x="411" y="257" on="0"/>
        <pt x="411" y="328" on="1"/>
        <pt x="411" y="448" on="0"/>
        <pt x="393" y="604" on="1"/>
        <pt x="357" y="914" on="0"/>
        <pt x="285" y="914" on="1"/>
        <pt x="245" y="914" on="1"/>
      </contour>
    </TTGlyph>
    <TTGlyph name="four" xMin="89" yMin="-38" xMax="506" yMax="1543">
      <contour>
        <pt x="210" y="1333" on="1"/>
        <pt x="191" y="622" on="1"/>
        <pt x="191" y="598" on="0"/>
        <pt x="194" y="576" on="1"/>
        <pt x="236" y="577" on="0"/>
        <pt x="286" y="587" on="1"/>
        <pt x="269" y="1160" on="1"/>
        <pt x="269" y="1181" on="0"/>
        <pt x="301" y="1206" on="0"/>
        <pt x="318" y="1206" on="1"/>
        <pt x="360" y="1170" on="1"/>
        <pt x="360" y="1041" on="1"/>
        <pt x="360" y="757" on="0"/>
        <pt x="386" y="596" on="1"/>
        <pt x="445" y="601" on="1"/>
        <pt x="506" y="601" on="0"/>
        <pt x="506" y="557" on="1"/>
        <pt x="506" y="527" on="0"/>
        <pt x="471" y="507" on="0"/>
        <pt x="391" y="507" on="0"/>
        <pt x="391" y="489" on="1"/>
        <pt x="391" y="420" on="0"/>
        <pt x="402" y="178" on="0"/>
        <pt x="412" y="155" on="1"/>
        <pt x="408" y="131" on="0"/>
        <pt x="408" y="92" on="0"/>
        <pt x="418" y="76" on="1"/>
        <pt x="418" y="39" on="1"/>
        <pt x="418" y="-38" on="0"/>
        <pt x="369" y="-38" on="1"/>
        <pt x="338" y="-38" on="0"/>
        <pt x="308" y="25" on="0"/>
        <pt x="308" y="59" on="1"/>
        <pt x="308" y="66" on="1"/>
        <pt x="315" y="90" on="0"/>
        <pt x="315" y="140" on="1"/>
        <pt x="300" y="339" on="1"/>
        <pt x="302" y="428" on="1"/>
        <pt x="302" y="463" on="0"/>
        <pt x="298" y="491" on="1"/>
        <pt x="170" y="480" on="1"/>
        <pt x="170" y="479" on="1"/>
        <pt x="131" y="479" on="0"/>
        <pt x="89" y="512" on="1"/>
        <pt x="89" y="558" on="0"/>
        <pt x="98" y="591" on="1"/>
        <pt x="89" y="639" on="0"/>
        <pt x="89" y="776" on="0"/>
        <pt x="120" y="1058" on="0"/>
        <pt x="120" y="1124" on="1"/>
        <pt x="120" y="1503" on="1"/>
        <pt x="120" y="1543" on="0"/>
        <pt x="159" y="1543" on="1"/>
        <pt x="182" y="1543" on="0"/>
        <pt x="219" y="1515" on="0"/>
        <pt x="219" y="1492" on="1"/>
      </contour>
    </TTGlyph>
    <TTGlyph name="fraction" xMin="64" yMin="-31" xMax="505" yMax="1553">
      <contour>
        <pt x="64" y="30" on="1"/>
        <pt x="64" y="166" on="0"/>
        <pt x="195" y="708" on="0"/>
        <pt x="368" y="1325" on="0"/>
        <pt x="393" y="1455" on="0"/>
        <pt x="399" y="1486" on="0"/>
        <pt x="402" y="1500" on="0"/>
        <pt x="411" y="1527" on="0"/>
        <pt x="416" y="1534" on="1"/>
        <pt x="431" y="1553" on="0"/>
        <pt x="472" y="1553" on="0"/>
        <pt x="505" y="1525" on="0"/>
        <pt x="505" y="1473" on="0"/>
        <pt x="492" y="1411" on="0"/>
        <pt x="480" y="1370" on="1"/>
        <pt x="431" y="1212" on="0"/>
        <pt x="232" y="292" on="1"/>
        <pt x="230" y="285" on="0"/>
        <pt x="213" y="190" on="0"/>
        <pt x="196" y="113" on="0"/>
        <pt x="182" y="68" on="1"/>
        <pt x="152" y="-31" on="0"/>
        <pt x="110" y="-31" on="1"/>
        <pt x="64" y="-3" on="0"/>
      </contour>
    </TTGlyph>
    <TTGlyph name="g" xMin="72" yMin="-16" xMax="571" yMax="1354">
      <contour>
        <pt x="406" y="519" on="1"/>
        <pt x="370" y="518" on="1"/>
        <pt x="341" y="518" on="0"/>
        <pt x="307" y="537" on="0"/>
        <pt x="307" y="594" on="0"/>
        <pt x="344" y="624" on="0"/>
        <pt x="371" y="624" on="1"/>
        <pt x="371" y="623" on="1"/>
        <pt x="571" y="623" on="0"/>
        <pt x="571" y="560" on="1"/>
        <pt x="549" y="411" on="1"/>
        <pt x="559" y="194" on="1"/>
        <pt x="559" y="135" on="0"/>
        <pt x="550" y="93" on="1"/>
        <pt x="431" y="-16" on="0"/>
        <pt x="339" y="-16" on="1"/>
        <pt x="290" y="-16" on="0"/>
        <pt x="208" y="37" on="0"/>
        <pt x="130" y="165" on="0"/>
        <pt x="72" y="524" on="0"/>
        <pt x="72" y="664" on="0"/>
        <pt x="78" y="756" on="0"/>
        <pt x="90" y="873" on="0"/>
        <pt x="92" y="908" on="0"/>
        <pt x="97" y="973" on="0"/>
        <pt x="102" y="1032" on="0"/>
        <pt x="119" y="1139" on="0"/>
        <pt x="139" y="1201" on="0"/>
        <pt x="177" y="1280" on="0"/>
        <pt x="202" y="1302" on="1"/>
        <pt x="263" y="1354" on="0"/>
        <pt x="424" y="1354" on="0"/>
        <pt x="424" y="1302" on="1"/>
        <pt x="424" y="1278" on="0"/>
        <pt x="389" y="1247" on="0"/>
        <pt x="366" y="1247" on="1"/>
        <pt x="329" y="1252" on="1"/>
        <pt x="269" y="1252" on="0"/>
        <pt x="238" y="1112" on="1"/>
        <pt x="208" y="976" on="0"/>
        <pt x="203" y="867" on="1"/>
        <pt x="194" y="700" on="0"/>
        <pt x="194" y="589" on="0"/>
        <pt x="195" y="528" on="0"/>
        <pt x="198" y="437" on="0"/>
        <pt x="205" y="367" on="0"/>
        <pt x="217" y="282" on="0"/>
        <pt x="234" y="219" on="0"/>
        <pt x="259" y="156" on="0"/>
        <pt x="275" y="136" on="1"/>
        <pt x="311" y="91" on="0"/>
        <pt x="361" y="91" on="1"/>
        <pt x="450" y="91" on="0"/>
        <pt x="448" y="436" on="1"/>
        <pt x="448" y="511" on="1"/>
        <pt x="435" y="519" on="0"/>
      </contour>
    </TTGlyph>
    <TTGlyph name="gbreve" xMin="72" yMin="-16" xMax="571" yMax="1755">
      <component glyphName="breve" x="34" y="613" flags="0x1004"/>
      <component glyphName="g" x="0" y="0" flags="0x1204"/>
    </TTGlyph>
    <TTGlyph name="gcircumflex" xMin="72" yMin="-16" xMax="571" yMax="1912">
      <component glyphName="circumflex" x="68" y="553" flags="0x1004"/>
      <component glyphName="g" x="0" y="0" flags="0x1204"/>
    </TTGlyph>
    <TTGlyph name="gcommaaccent" xMin="73" yMin="-16" xMax="600" yMax="1354">
      <contour>
        <pt x="431" y="519" on="1"/>
        <pt x="393" y="518" on="1"/>
        <pt x="325" y="518" on="0"/>
        <pt x="325" y="565" on="1"/>
        <pt x="325" y="594" on="0"/>
        <pt x="365" y="624" on="0"/>
        <pt x="394" y="624" on="1"/>
        <pt x="394" y="623" on="1"/>
        <pt x="600" y="623" on="0"/>
        <pt x="600" y="560" on="1"/>
        <pt x="578" y="411" on="1"/>
        <pt x="588" y="194" on="1"/>
        <pt x="588" y="135" on="0"/>
        <pt x="579" y="93" on="1"/>
        <pt x="459" y="-16" on="0"/>
        <pt x="358" y="-16" on="1"/>
        <pt x="220" y="-16" on="0"/>
        <pt x="163" y="54" on="1"/>
        <pt x="118" y="108" on="0"/>
        <pt x="73" y="487" on="0"/>
        <pt x="73" y="664" on="0"/>
        <pt x="79" y="756" on="0"/>
        <pt x="91" y="873" on="0"/>
        <pt x="106" y="1079" on="0"/>
        <pt x="128" y="1155" on="1"/>
        <pt x="182" y="1345" on="0"/>
        <pt x="350" y="1354" on="1"/>
        <pt x="359" y="1354" on="0"/>
        <pt x="368" y="1354" on="1"/>
        <pt x="451" y="1354" on="0"/>
        <pt x="451" y="1302" on="1"/>
        <pt x="451" y="1278" on="0"/>
        <pt x="413" y="1247" on="0"/>
        <pt x="389" y="1247" on="1"/>
        <pt x="389" y="1247" on="0"/>
        <pt x="348" y="1252" on="1"/>
        <pt x="278" y="1252" on="0"/>
        <pt x="244" y="1112" on="1"/>
        <pt x="210" y="972" on="0"/>
        <pt x="204" y="865" on="1"/>
        <pt x="195" y="707" on="0"/>
        <pt x="195" y="547" on="0"/>
        <pt x="201" y="493" on="1"/>
        <pt x="229" y="441" on="0"/>
        <pt x="235" y="245" on="0"/>
        <pt x="244" y="197" on="1"/>
        <pt x="265" y="91" on="0"/>
        <pt x="382" y="91" on="1"/>
        <pt x="479" y="91" on="0"/>
        <pt x="477" y="437" on="1"/>
        <pt x="477" y="511" on="1"/>
        <pt x="463" y="519" on="0"/>
      </contour>
    </TTGlyph>
</ttFont>
